<svg xmlns="http://www.w3.org/2000/svg" width="957.333" height="1277.333" version="1.0" viewBox="0 0 718 958"><path d="M268.5 419.9c-6.5 2.6-26.6 13.1-43.5 22.6-4.1 2.3-10.2 5.7-13.5 7.5-8.4 4.6-10 5.5-42.6 24-18.2 10.3-29.4 17.2-29.9 18.5-.4 1.1-1 21.6-1.4 45.5l-.7 43.4-16.8 16.6C87.2 630.2 72 649.8 72 659.7c0 3 1.1 5.3 5.3 10.9 2.8 3.9 7.8 10.7 11 15.1 8.5 11.8 17.3 19.9 24.1 22.3 9.2 3.1 41 8.8 67.6 12 4.7.5 13.6 1.7 19.9 2.7l11.4 1.7-16.4 4.3c-48.3 12.7-77.8 23.4-93.7 34-10.1 6.7-13.4 14.5-11.1 26.8 1.9 10.7 6.7 16.4 16.8 20 8.5 3 24.5 1.3 36.7-3.8 7.4-3.2 31-16.6 54.6-31.2 12.5-7.7 28.6-16.1 34.4-17.8 12.5-3.8 24.2-5.7 59.4-9.7 9.6-1.1 20.7-2.6 24.5-3.5 13.7-2.9 18.2-2.9 32.1-.1 15.9 3.2 38.4 7.3 44.4 8.1 2.5.3 6.5 1 9 1.5 9.2 2 39.5 5 49.9 5 17.2 0 26.3-4.2 47.6-22 8.9-7.5 35.2-34.1 43-43.5 2.7-3.3 6.5-7.8 8.5-10 1.9-2.2 4.9-5.8 6.5-7.9 1.7-2.2 4.2-5.3 5.6-7 7.5-9 30.8-43.5 37.6-55.6 1.6-3 3.5-7.5 4.2-10 .6-2.5 3.4-13 6.1-23.3 2.8-10.4 5-20.8 5-23.2 0-5.2-2.9-9.2-9.5-13-4.4-2.6-17.4-7.5-19.9-7.5-1.2 0-1.3-3.1-.9-19.9l.6-20-3.9-.6c-2.1-.3-6.4-1-9.4-1.5s-8.4-1.1-12-1.5c-3.6-.3-11.5-1.3-17.7-2.1l-11.2-1.6-3.6 3.4c-6.9 6.2-6.5 7.3-6.5-17.9 0-12.5-.4-23.3-.8-23.9-.4-.6-5.2-1.7-10.7-2.3-5.5-.7-12.5-1.6-15.5-2.1-3-.6-12.5-1.9-21-3-16.7-2.1-33.3-4.3-64-8.5-27.3-3.7-47.8-6.3-67-8.5-9-1.1-17.6-2.2-19-2.5-4-.8-44.1-4.5-48-4.4-1.9.1-5.3.9-7.5 1.8zm26.5 9.6c8 .8 15.4 1.7 16.5 1.9 1.1.2 7.2.9 13.5 1.5s16.9 1.8 23.5 2.7c6.6.8 17.9 2.1 25 3 75 8.6 105.8 12.3 124.2 15.1l11.1 1.7-2.5 2c-1.4 1.1-5.3 3.8-8.7 6.1-3.4 2.2-11.3 7.7-17.6 12-13.8 9.5-27.4 18.7-46.9 31.8l-14.6 9.8-6.5-.6c-3.6-.4-8.3-.9-10.4-1.1-2.1-.3-13.4-1.4-25-2.4s-31.2-2.8-43.6-3.9c-12.4-1.1-26.3-2.5-31-3-4.7-.6-12.3-1.3-17-1.6-4.7-.3-14.8-1.2-22.5-2-7.7-.8-20.3-1.9-28-2.5-7.7-.6-17.9-1.5-22.8-2.1-10.9-1.2-28.9-2.6-42.7-3.4-11.7-.7-15-1.2-15-2.3 0-.4 3-2.3 6.8-4.1 3.7-1.8 9-4.5 11.7-6 2.8-1.5 10-5.3 16-8.5 6.1-3.3 11.5-6.2 12-6.6 1-.8 12.3-6.7 31.5-16.8 5.8-3 11-5.8 11.5-6.2 1.2-.9 21.1-11.5 27.5-14.6 2.5-1.2 5.6-2 7-1.8 1.4.2 9 1.1 17 1.9zm221 52V502l-4.2 4c-2.4 2.2-4.6 4-4.9 4-.3 0-.9 11.1-1.3 24.7s-.9 24.9-1.1 25.2c-.3.2-1.5 0-2.8-.6-2-.9-3.8.2-17.3 11.6-8.3 6.9-21.7 18-29.7 24.6L440 607.4v35.1l-9 9c-4.9 4.9-9.1 8.7-9.4 8.4-.2-.2-.2-30.6.1-67.5l.6-67.1 3.1-2c9.9-6.4 31.6-21 36-24.1 2.8-2 8-5.6 11.6-8 6.3-4.4 32.5-22.8 34.5-24.4.6-.4 2.4-1.9 4-3.2 1.7-1.4 3.3-2.6 3.8-2.6.4 0 .7 9.2.7 20.5zm40 17.5c10.2 1.2 18.9 2.5 19.4 3 .4.4-.2 1.4-1.5 2.1-1.3.6-2.6 1.5-2.9 1.8-.3.3-3.6 3-7.4 5.9-7.3 5.5-9.4 6-17.1 4.2-2.2-.5-9.2-1.7-15.5-2.6-6.3-.9-11.7-1.8-12-2.1-.9-.9 15.5-15.2 17-14.8.8.2 9.8 1.4 20 2.5zm-396 1.6c13.3 1.9 38.9 4.9 64 7.4 10.7 1.1 22.9 2.4 27 3 4.1.5 13.1 1.4 20 2 6.9.5 15.9 1.5 20 2 4.1.6 14.7 1.7 23.5 2.5 39.8 3.5 62.1 5.6 76 7 8.3.8 17 1.6 19.5 1.7l4.5.3v17c-.1 9.3-.2 40.1-.3 68.2L414 663h-3.4c-1.9 0-8.8-.7-15.3-1.6-6.5-.8-17.2-2.1-23.8-2.9-11.6-1.3-19.4-2.3-52.5-6.5-25.7-3.3-38.7-5-55-7-18.3-2.3-46.6-6-67.5-9-8.2-1.1-19.9-2.7-26-3.5-6-.8-13.2-2-16-2.5-2.7-.6-6-1.3-7.2-1.6-2.3-.4-2.3-.7-2.3-16.2 0-19.9 1.9-96.4 2.6-106 .3-3.9.9-7.2 1.2-7.2.4 0 5.4.7 11.2 1.6zm418.5 59.9c-.6 4.8-.8 5.2-7.5 9.7-3.8 2.7-7.1 4.8-7.4 4.8-.3 0-.6-11.4-.6-25.3v-25.3l7.8-5.7 7.7-5.8.3 21.3c.2 11.7 0 23.5-.3 26.3zm-49-36.6c4.4.5 11.9 1.3 16.8 1.6l8.7.7v26.9c0 24.2-.2 26.9-1.6 26.9-1.4 0-1.5-.7-1-3.9.3-2.2.2-4.2-.4-4.6-.9-.6-7.4-2.2-25.5-6.5-4.9-1.2-9.8-2.4-10.7-2.6-1.6-.5-1.8-2.3-1.8-20V523h3.8c2.1 0 7.3.4 11.7.9zm68.1 24.2c5 1.3 10.4 6.6 10.4 10.2-.1 4-3.6 10.2-13.5 23.3-9.9 13-43.2 53.4-44.2 53.4-.5 0 0-14.1 1.3-36.9l.6-10.3 3 .6c2.5.5 4.6-.7 16.4-9.5l13.4-10.1V547h4.1c2.2 0 6 .5 8.5 1.1zm-87.9 21.3c22.6 5.6 30.6 7.7 31.9 8.4 1 .5 0 1.8-3.5 4.7-7.8 6.4-34.5 28.8-35.1 29.5-.3.3-2.1 1.8-4.1 3.3-3.4 2.5-4 2.7-8 1.8-2.4-.6-10.5-2-17.9-3.2-19.3-3-22-3.5-22.5-4.1-.3-.2 3.2-3.6 7.8-7.5 21.2-18.1 38.6-33.4 39.2-34.3.8-1.4.9-1.3 12.2 1.4zm89 27.9c-4.1 14.6-4.8 16.1-13.5 28.7-35.2 51-88.5 105.9-114.9 118.2l-6.5 3.1-16.7-.6c-9.1-.4-19.7-1.1-23.6-1.7-3.8-.6-13.3-1.9-21-3-24.3-3.3-43-6.2-43.8-7-.5-.4 2.1-2.1 5.6-3.8 3.6-1.6 9.4-4.9 12.8-7.2l6.4-4.3 7 1.2c28.7 4.8 38.5 6.3 49.5 7.6 13.5 1.6 32.3 2.1 35.5.9 5.4-2 20-15.6 36.9-34.4 16.8-18.7 27.9-31.8 46.6-54.9 8.2-10.1 27.5-35.4 35-45.8 4.1-5.7 7.5-10.1 7.8-9.9.2.2-1.2 6-3.1 12.9zm-54.7 6.3c-.6 7.7-1.3 16.2-1.6 19.1l-.5 5.1-16.2 15c-8.9 8.2-17.7 16.2-19.4 17.7l-3.3 2.7.1-19.9v-19.8l6.1-5c3.3-2.8 7.5-6.2 9.3-7.7 11.2-9.6 26-21.6 26.3-21.4.1.2-.2 6.6-.8 14.2zm-405.5 36.2c1.3 1.2 9.2 2.3 60 8.6 7.2.9 20 2.5 28.5 3.6 27.9 3.5 41.3 5.1 54 6.5 6.9.7 17.9 2 24.5 2.9 6.6.8 19.9 2.4 29.5 3.5 9.6 1.1 23.4 2.8 30.5 3.7 7.2.8 15.7 1.8 19 2.1l5.9.6-8.4 2.4c-19.5 5.5-45.1 13.1-72.8 21.5l-16.4 5-17.1-2.1c-38.1-4.7-84.1-11.6-117.7-17.5-32-5.7-36.1-6.6-55.4-11.8-11.7-3.2-18.6-6.7-18.6-9.6.1-7.7 17-29.8 43.6-56.7l8.9-8.9.5 22.6c.3 13.2.9 23.1 1.5 23.6zm332-16.8c8.8 1.2 18 2.4 20.5 2.8l4.5.7.3 19.9.2 19.9-5.2-.7c-5.8-.7-42.8-4.6-44-4.6-.5 0-.8-9.3-.8-20.6v-20.7l4.3.6c2.3.3 11.4 1.5 20.2 2.7zm77.9 14.2c-2.4 4-51.1 58.6-62.9 70.4-10 10.2-11.4 11.2-15.5 11.8-4.1.6-32.5-1-34-1.9-.3-.2-5-.8-10.5-1.4-11-1.2-29.7-4.2-30.4-4.8-.3-.2 1.8-2.7 4.5-5.6 12.7-13.1 20.4-24.3 20.4-29.4 0-2.8 1.3-4.5 9.8-12.7l9.7-9.5.3 7.9.3 7.8 10.2 1.1c5.6.7 13.4 1.7 17.2 2.2 3.9.6 12.1 1.6 18.4 2.4l11.5 1.3 8.5-6.9c4.7-3.8 16-12.9 25.1-20.3 15.7-12.8 19.1-15.2 17.4-12.4zm-428.1 48.3c23 5.3 43.3 8.8 68.7 12 6.3.8 14.7 1.9 18.5 2.5 6.6.9 39.9 4.3 56.9 5.7l7.9.6-4.9 1.8c-2.7.9-10.5 3.4-17.4 5.4-6.9 2-14.4 4.3-16.7 5-4.7 1.6-2.9 1.8-37.8-4.5-34.3-6.2-67.1-12.8-74.9-15.2-3.7-1.1-8.9-3.2-11.4-4.6-4.7-2.7-17.2-14.2-17.2-16 0-.5 3.8.3 8.5 1.9 4.7 1.6 13.6 4 19.8 5.4zm290.2-5.6c1.6 2.7-27.5 31.4-39 38.6-8.6 5.4-17.6 8.1-53 16-19.3 4.3-53.5 8.8-53.5 7.1 0-.3 1.4-2.7 3-5.3 1.7-2.8 3.4-7.3 4-10.5.5-3.2 1.3-6.6 1.9-7.6 1.1-2 5.3-3.5 39.6-13.7 5-1.5 11.7-3.5 15-4.5 3.3-1 9.2-2.7 13-3.8 3.9-1.1 10.4-3 14.5-4.2 4.1-1.3 8.9-2.6 10.5-3 1.7-.4 8.2-2.2 14.5-4 20.4-5.8 28.2-7.1 29.5-5.1zm-144.3 44.3c-.5 6.1-2.7 10.7-7.4 16-2.9 3.4-4.4 4-13.3 6.2-24 5.8-25.9 6.8-73.8 35.6-18.7 11.3-32.9 16-48.8 16-15.8 0-25.3-4.3-26.5-12.1-2.1-13.2 26.8-26.6 104.6-48.4 20.3-5.7 28.7-8.1 36.5-10.5 5.9-1.8 13.6-4.1 22.5-6.6 6.8-1.9 6.8-2 6.2 3.8z"/></svg>