<?xml version="1.0" encoding="UTF-8"?>
<!DOCTYPE svg PUBLIC "-//W3C//DTD SVG 1.1//EN" "http://www.w3.org/Graphics/SVG/1.1/DTD/svg11.dtd">
<!-- Creator: CorelDRAW 2019 (64 Bit) -->
<svg xmlns="http://www.w3.org/2000/svg" xml:space="preserve" width="33.8666mm" height="21.1666mm" version="1.1" style="shape-rendering:geometricPrecision; text-rendering:geometricPrecision; image-rendering:optimizeQuality; fill-rule:evenodd; clip-rule:evenodd"
viewBox="0 0 3386.66 2116.66"
 xmlns:xlink="http://www.w3.org/1999/xlink">
 <defs>
  <style type="text/css">
   <![CDATA[
    .fil0 {fill:#FEFEFE}
   ]]>
  </style>
 </defs>
 <g id="Camada_x0020_1">
  <metadata id="CorelCorpID_0Corel-Layer"/>
  <path class="fil0" d="M1315.89 18.49c-35.02,14.01 -143.3,70.58 -234.34,121.76 -22.09,12.39 -54.95,30.7 -72.73,40.4 -45.25,24.78 -53.87,29.63 -229.5,129.29 -98.04,55.49 -158.38,92.67 -161.08,99.67 -2.15,5.93 -5.38,116.36 -7.54,245.12l-3.77 233.81 -90.5 89.43c-177.24,173.47 -259.13,279.06 -259.13,332.39 0,16.16 5.93,28.55 28.55,58.72 15.09,21.01 42.02,57.65 59.26,81.35 45.79,63.57 93.2,107.21 129.83,120.14 49.57,16.7 220.88,47.4 364.18,64.64 25.32,2.7 73.27,9.16 107.21,14.55l61.41 9.16 -88.35 23.16c-260.2,68.42 -419.13,126.06 -504.78,183.17 -54.41,36.09 -72.19,78.11 -59.8,144.38 10.24,57.64 36.09,88.35 90.51,107.74 45.79,16.16 131.98,7.01 197.71,-20.47 39.86,-17.24 167,-89.43 294.14,-168.08 67.34,-41.49 154.07,-86.74 185.32,-95.9 67.34,-20.47 130.37,-30.7 320,-52.25 51.72,-5.93 111.52,-14.01 131.99,-18.86 73.81,-15.62 98.05,-15.62 172.93,-0.54 85.66,17.24 206.87,39.33 239.2,43.64 13.46,1.62 35.01,5.39 48.48,8.08 49.56,10.78 212.8,26.94 268.82,26.94 92.67,0 141.69,-22.63 256.44,-118.52 47.94,-40.41 189.63,-183.71 231.65,-234.35 14.54,-17.78 35.02,-42.02 45.79,-53.87 10.23,-11.85 26.4,-31.25 35.02,-42.56 9.15,-11.85 22.62,-28.55 30.17,-37.71 40.4,-48.48 165.92,-234.35 202.56,-299.53 8.61,-16.16 18.85,-40.41 22.62,-53.87 3.23,-13.47 18.32,-70.04 32.86,-125.53 15.09,-56.03 26.94,-112.05 26.94,-124.98 0,-28.02 -15.62,-49.57 -51.18,-70.04 -23.7,-14 -93.74,-40.4 -107.21,-40.4 -6.46,0 -7,-16.7 -4.84,-107.21l3.23 -107.74 -21.01 -3.24c-11.31,-1.61 -34.48,-5.38 -50.64,-8.08 -16.16,-2.69 -45.25,-5.92 -64.65,-8.08 -19.39,-1.62 -61.95,-7 -95.35,-11.31l-60.34 -8.62 -19.39 18.31c-37.18,33.41 -35.02,39.33 -35.02,-96.43 0,-67.34 -2.16,-125.52 -4.31,-128.75 -2.15,-3.24 -28.01,-9.16 -57.64,-12.39 -29.63,-3.77 -67.34,-8.62 -83.51,-11.32 -16.16,-3.23 -67.34,-10.23 -113.13,-16.16 -89.96,-11.31 -179.39,-23.16 -344.78,-45.79 -147.07,-19.93 -257.51,-33.94 -360.95,-45.79 -48.48,-5.93 -94.81,-11.85 -102.35,-13.47 -21.55,-4.31 -237.58,-24.24 -258.59,-23.7 -10.24,0.54 -28.55,4.85 -40.4,9.69l-0.01 0zm142.76 51.72c43.1,4.31 82.97,9.16 88.89,10.24 5.93,1.08 38.79,4.85 72.73,8.08 33.94,3.23 91.04,9.7 126.6,14.54 35.56,4.31 96.43,11.32 134.68,16.17 404.04,46.33 569.97,66.26 669.1,81.34l59.79 9.16 -13.46 10.78c-7.55,5.92 -28.56,20.47 -46.87,32.86 -18.32,11.85 -60.88,41.48 -94.82,64.64 -74.34,51.18 -147.61,100.75 -252.66,171.32l-78.65 52.79 -35.02 -3.23c-19.4,-2.15 -44.72,-4.85 -56.03,-5.92 -11.31,-1.62 -72.19,-7.55 -134.68,-12.93 -62.49,-5.39 -168.08,-15.09 -234.88,-21.01 -66.8,-5.93 -141.69,-13.47 -167.01,-16.17 -25.32,-3.23 -66.26,-7 -91.58,-8.62 -25.32,-1.61 -79.73,-6.46 -121.21,-10.77 -41.49,-4.31 -109.36,-10.24 -150.85,-13.47 -41.48,-3.23 -96.43,-8.08 -122.82,-11.31 -58.73,-6.46 -155.7,-14.01 -230.04,-18.32 -63.03,-3.77 -80.81,-6.46 -80.81,-12.39 0,-2.15 16.16,-12.39 36.63,-22.09 19.94,-9.69 48.49,-24.24 63.04,-32.32 15.08,-8.08 53.87,-28.55 86.19,-45.79 32.86,-17.78 61.95,-33.4 64.65,-35.56 5.38,-4.31 66.26,-36.09 169.69,-90.5 31.25,-16.17 59.27,-31.25 61.96,-33.4 6.46,-4.85 113.67,-61.96 148.15,-78.66 13.46,-6.46 30.17,-10.77 37.71,-9.7 7.54,1.08 48.48,5.93 91.58,10.24l0 0zm1190.58 280.14l0 110.44 -22.62 21.55c-12.93,11.85 -24.78,21.55 -26.4,21.55 -1.62,0 -4.85,59.8 -7,133.06 -2.16,73.27 -4.85,134.15 -5.93,135.76 -1.62,1.08 -8.08,0 -15.08,-3.23 -10.78,-4.85 -20.48,1.08 -93.2,62.49 -44.72,37.17 -116.91,96.97 -160.01,132.53l-79.19 64.11 0 189.09 -48.48 48.49c-26.4,26.39 -49.03,46.87 -50.64,45.25 -1.08,-1.08 -1.08,-164.85 0.54,-363.64l3.23 -361.49 16.7 -10.77c53.33,-34.48 170.24,-113.14 193.94,-129.84 15.09,-10.77 43.1,-30.17 62.49,-43.09 33.94,-23.71 175.09,-122.83 185.86,-131.45 3.24,-2.16 12.93,-10.24 21.55,-17.24 9.16,-7.55 17.78,-14.01 20.47,-14.01 2.16,0 3.77,49.56 3.77,110.44zm215.49 94.28c54.95,6.46 101.82,13.47 104.52,16.16 2.15,2.15 -1.08,7.54 -8.09,11.31 -7,3.23 -14,8.08 -15.62,9.7 -1.61,1.61 -19.39,16.16 -39.87,31.78 -39.32,29.63 -50.64,32.33 -92.12,22.63 -11.85,-2.69 -49.56,-9.16 -83.5,-14.01 -33.94,-4.84 -63.03,-9.69 -64.65,-11.31 -4.84,-4.85 83.51,-81.88 91.59,-79.73 4.31,1.08 52.79,7.54 107.74,13.47l0 0zm-2133.34 8.62c71.65,10.23 209.56,26.39 344.78,39.86 57.64,5.93 123.37,12.93 145.46,16.16 22.08,2.7 70.57,7.55 107.74,10.78 37.17,2.69 85.66,8.08 107.75,10.77 22.08,3.24 79.19,9.16 126.6,13.47 214.41,18.86 334.54,30.17 409.43,37.71 44.71,4.31 91.58,8.62 105.05,9.16l24.24 1.62 0 91.58c-0.54,50.1 -1.08,216.03 -1.61,367.41l-1.08 276.37 -18.32 0c-10.24,0 -47.41,-3.77 -82.43,-8.62 -35.01,-4.31 -92.66,-11.31 -128.21,-15.62 -62.49,-7.01 -104.51,-12.39 -282.83,-35.02 -138.45,-17.78 -208.49,-26.94 -296.3,-37.71 -98.59,-12.39 -251.05,-32.32 -363.64,-48.49 -44.17,-5.92 -107.21,-14.54 -140.07,-18.85 -32.32,-4.31 -71.11,-10.78 -86.19,-13.47 -14.55,-3.23 -32.33,-7 -38.79,-8.62 -12.39,-2.15 -12.39,-3.77 -12.39,-87.27 0,-107.21 10.24,-519.34 14.01,-571.05 1.61,-21.01 4.84,-38.79 6.46,-38.79 2.15,0 29.09,3.77 60.34,8.62l0 0zm2254.56 322.69c-3.24,25.86 -4.31,28.02 -40.41,52.26 -20.47,14.55 -38.25,25.86 -39.86,25.86 -1.62,0 -3.24,-61.42 -3.24,-136.3l0 -136.3 42.02 -30.7 41.49 -31.25 1.61 114.75c1.08,63.03 0,126.6 -1.61,141.68zm-263.98 -197.17c23.71,2.69 64.11,7 90.51,8.62l46.87 3.77 0 144.92c0,130.37 -1.08,144.91 -8.62,144.91 -7.54,0 -8.08,-3.77 -5.39,-21.01 1.62,-11.85 1.08,-22.62 -2.15,-24.78 -4.85,-3.23 -39.87,-11.85 -137.38,-35.02 -26.4,-6.46 -52.79,-12.93 -57.64,-14 -8.62,-2.7 -9.7,-12.39 -9.7,-107.75l0 -104.51 20.47 0c11.31,0 39.33,2.16 63.03,4.85zm366.87 130.37c26.94,7 56.03,35.56 56.03,54.95 -0.54,21.55 -19.39,54.95 -72.73,125.52 -53.33,70.04 -232.73,287.68 -238.11,287.68 -2.7,0 0,-75.96 7,-198.79l3.23 -55.48 16.16 3.23c13.47,2.69 24.78,-3.77 88.35,-51.18l72.19 -54.41 0 -117.44 22.09 0c11.85,0 32.32,2.69 45.79,5.92l0 0zm-473.54 114.75c121.76,30.17 164.85,41.48 171.86,45.25 5.38,2.7 0,9.7 -18.86,25.32 -42.02,34.48 -185.86,155.16 -189.09,158.93 -1.62,1.61 -11.31,9.7 -22.09,17.78 -18.31,13.46 -21.55,14.54 -43.1,9.69 -12.93,-3.23 -56.56,-10.77 -96.43,-17.24 -103.97,-16.16 -118.52,-18.85 -121.21,-22.08 -1.62,-1.08 17.24,-19.4 42.02,-40.41 114.21,-97.51 207.95,-179.93 211.18,-184.78 4.31,-7.54 4.85,-7 65.73,7.54l-0.01 0zm479.47 150.31c-22.09,78.65 -25.86,86.73 -72.73,154.61 -189.63,274.75 -476.77,570.51 -618.99,636.78l-35.02 16.7 -89.97 -3.24c-49.02,-2.15 -106.13,-5.92 -127.14,-9.15 -20.47,-3.24 -71.65,-10.24 -113.13,-16.17 -130.91,-17.77 -231.65,-33.4 -235.96,-37.71 -2.69,-2.15 11.31,-11.31 30.17,-20.47 19.39,-8.62 50.64,-26.4 68.96,-38.79l34.47 -23.16 37.71 6.46c154.62,25.86 207.41,33.94 266.67,40.95 72.73,8.62 174.01,11.31 191.25,4.84 29.09,-10.77 107.74,-84.04 198.79,-185.32 90.5,-100.74 150.3,-171.31 251.04,-295.76 44.18,-54.41 148.15,-190.71 188.56,-246.74 22.08,-30.7 40.4,-54.41 42.02,-53.33 1.08,1.08 -6.47,32.32 -16.7,69.49l0 0.01zm-294.68 33.94c-3.24,41.48 -7.01,87.27 -8.62,102.89l-2.7 27.48 -87.27 80.81c-47.94,44.18 -95.35,87.27 -104.51,95.35l-17.78 14.55 0.54 -107.21 0 -106.67 32.86 -26.93c17.78,-15.09 40.4,-33.4 50.1,-41.48 60.34,-51.72 140.07,-116.37 141.69,-115.29 0.54,1.08 -1.08,35.55 -4.31,76.5l0 0zm-2184.53 195.01c7,6.47 49.56,12.4 323.24,46.34 38.78,4.84 107.74,13.46 153.53,19.39 150.31,18.85 222.5,27.48 290.91,35.02 37.18,3.77 96.44,10.77 131.99,15.62 35.56,4.31 107.21,12.93 158.92,18.86 51.72,5.92 126.07,15.08 164.32,19.93 38.78,4.31 84.57,9.7 102.35,11.31l31.79 3.24 -45.25 12.93c-105.06,29.63 -242.97,70.57 -392.19,115.82l-88.36 26.94 -92.12 -11.31c-205.25,-25.33 -453.06,-62.5 -634.08,-94.28 -172.39,-30.71 -194.48,-35.56 -298.45,-63.57 -63.03,-17.24 -100.2,-36.1 -100.2,-51.72 0.54,-41.48 91.58,-160.54 234.88,-305.46l47.95 -47.95 2.69 121.76c1.62,71.11 4.85,124.44 8.08,127.14l0 -0.01zm1788.56 -90.5c47.41,6.46 96.97,12.93 110.44,15.08l24.24 3.77 1.62 107.21 1.08 107.21 -28.01 -3.77c-31.25,-3.77 -230.58,-24.78 -237.04,-24.78 -2.7,0 -4.31,-50.1 -4.31,-110.98l0 -111.52 23.16 3.24c12.39,1.61 61.42,8.08 108.82,14.54l0 0zm419.67 76.5c-12.93,21.55 -275.29,315.69 -338.86,379.26 -53.87,54.95 -61.41,60.34 -83.5,63.57 -22.09,3.23 -175.08,-5.39 -183.16,-10.23 -1.62,-1.08 -26.94,-4.31 -56.57,-7.55 -59.26,-6.46 -160,-22.62 -163.77,-25.86 -1.62,-1.07 9.69,-14.54 24.24,-30.16 68.42,-70.58 109.9,-130.92 109.9,-158.39 0,-15.09 7,-24.24 52.79,-68.42l52.26 -51.18 1.62 42.56 1.61 42.02 54.95 5.93c30.17,3.77 72.19,9.16 92.66,11.85 21.01,3.23 65.19,8.62 99.13,12.93l61.95 7 45.79 -37.17c25.32,-20.47 86.2,-69.5 135.22,-109.36 84.58,-68.96 102.9,-81.89 93.74,-66.8l0 0zm-2306.28 260.2c123.91,28.56 233.27,47.41 370.11,64.65 33.94,4.31 79.19,10.24 99.66,13.47 35.56,4.85 214.95,23.16 306.53,30.71l42.56 3.23 -26.39 9.7c-14.55,4.84 -56.57,18.31 -93.74,29.09 -37.17,10.77 -77.58,23.16 -89.97,26.93 -25.32,8.62 -15.62,9.7 -203.64,-24.24 -184.78,-33.4 -361.48,-68.96 -403.5,-81.89 -19.93,-5.92 -47.95,-17.24 -61.42,-24.78 -25.32,-14.54 -92.66,-76.5 -92.66,-86.19 0,-2.7 20.48,1.61 45.8,10.23 25.32,8.62 73.26,21.55 106.66,29.09l0 0zm1563.38 -30.17c8.62,14.55 -148.15,169.16 -210.1,207.95 -46.33,29.09 -94.82,43.64 -285.53,86.2 -103.97,23.16 -288.21,47.41 -288.21,38.25 0,-1.62 7.54,-14.55 16.16,-28.55 9.16,-15.09 18.31,-39.33 21.55,-56.57 2.69,-17.24 7,-35.56 10.23,-40.94 5.93,-10.78 28.56,-18.86 213.34,-73.81 26.93,-8.08 63.03,-18.86 80.81,-24.24 17.78,-5.39 49.56,-14.55 70.03,-20.48 21.01,-5.92 56.03,-16.16 78.12,-22.62 22.08,-7.01 47.94,-14.01 56.56,-16.16 9.16,-2.16 44.18,-11.86 78.12,-21.55 109.9,-31.25 151.92,-38.25 158.92,-27.48l0 0zm-777.38 238.66c-2.69,32.86 -14.54,57.65 -39.86,86.2 -15.63,18.31 -23.71,21.55 -71.65,33.4 -129.3,31.24 -139.53,36.63 -397.58,191.79 -100.74,60.87 -177.24,86.19 -262.9,86.19 -85.12,0 -136.3,-23.16 -142.76,-65.18 -11.31,-71.12 144.38,-143.31 563.5,-260.75 109.36,-30.71 154.62,-43.64 196.64,-56.57 31.78,-9.69 73.26,-22.08 121.21,-35.55 36.63,-10.24 36.63,-10.78 33.4,20.47z"/>
 </g>
</svg>
