<?xml version="1.0" encoding="UTF-8"?>
<!DOCTYPE svg PUBLIC "-//W3C//DTD SVG 1.1//EN" "http://www.w3.org/Graphics/SVG/1.1/DTD/svg11.dtd">
<!-- Creator: CorelDRAW 2019 (64 Bit) -->
<svg xmlns="http://www.w3.org/2000/svg" xml:space="preserve" width="38.0998mm" height="25.3998mm" version="1.1" style="shape-rendering:geometricPrecision; text-rendering:geometricPrecision; image-rendering:optimizeQuality; fill-rule:evenodd; clip-rule:evenodd"
viewBox="0 0 3809.98 2539.98"
 xmlns:xlink="http://www.w3.org/1999/xlink">
 <defs>
  <style type="text/css">
   <![CDATA[
    .fil5 {fill:#350A02}
    .fil4 {fill:#472D24}
    .fil3 {fill:#764927}
    .fil2 {fill:#9C6C42}
    .fil0 {fill:#D78A38}
    .fil1 {fill:#FCFCFC}
   ]]>
  </style>
 </defs>
 <g id="Camada_x0020_1">
  <metadata id="CorelCorpID_0Corel-Layer"/>
  <g id="_1718281740400">
   <path class="fil0" d="M1687.96 457.32l52.48 22.15 -43.74 14.05 -8.74 -36.2zm-703.66 60.03l10.86 12.36 -14.46 30.43 -1.55 3.7c53.05,20.49 78.15,-12.77 144.19,6.6 38.71,11.36 76.49,41.87 95.03,69.8 43.38,19.45 21.01,7.46 51.01,36.92 20.64,14.93 46.31,24.53 70.3,35.08 11.92,-9.36 7.22,11.91 9.24,-11.77l-14.3 -7.33c-15.83,-14.13 -6.08,-14.92 -21.61,-26.06 -14.26,-10.23 -14.12,3.69 -35.18,-7.93 -13.07,-7.21 -17.77,-21.86 -30.13,-30.5 -22.37,-15.64 -18.41,1.1 -34.07,-28.09l-12.72 -6.13 -66.48 -29.02c-58.91,-35.15 -31.55,20.95 -58.42,-45.7 -17.21,7.31 -40.54,-0.61 -47.03,-7.07 -17.14,-17.05 1.57,14.03 -6.11,-8.23 -6.32,-18.35 -9.15,2.31 2.65,-16.05 -22.4,-6.99 -3.81,4.32 -11.33,-21.49 24.42,21.18 13.29,20.46 44.17,31.5l25.49 -50.07c23.48,-3.38 -9.87,9.54 21.97,-3.74 -22.47,-11.38 -8.49,-23.13 -1.34,-44.92l9.66 -19.53c7.59,-6.29 25.49,-11.46 34.85,-14.45 12.32,7.56 7.27,5.65 13.51,12.02l32.03 28.73c-20.28,22.54 -30.04,24.48 -49.23,42.5l29.13 0.07c-7.91,16.65 -9.32,-1.54 -7.27,35.61 22.91,-7.53 9.99,-1.86 17.85,-5.61 26.49,-17.05 9.75,-102.48 105.46,-86.94 16.21,2.63 12.84,3.54 28.06,3.04 19.14,-14.17 27.61,-20.75 51.67,-31.12 -7.73,-9.57 11.6,-15.17 -13,-9.82 20.64,-16.28 14.34,-11.91 41.19,-21.35l2.27 -7.19c12.97,6.75 26.25,16.5 39.35,23.96l38.87 24.42c-0.01,1.55 -0.78,2.46 -0.96,4.55 -0.17,2.01 -1,3.58 -1.22,4.3l-4.28 16.42c1.25,30.52 16.72,6.76 -0.93,44.86l12.12 3.94c15.83,15.15 0.57,2.87 15.71,14.13 81.8,-34.1 74.79,-19.89 124.68,10.36 56.06,33.97 32.13,39.78 72.63,43.44 -21.42,22.31 0.73,14.01 -32.12,18.14 -16.49,2.07 -59.76,-24.57 -69.5,-33.04 5.31,28.07 5.04,7.36 26.39,46.39l63.68 8.52c35.08,7.48 14.1,31.72 60.3,20.43l-7.96 -29.24c-25.13,-5.83 -17.89,-2.44 -39.37,-16.63 2.6,-0.58 4.87,1.8 13.1,-1.03l22.06 -2.95 21.87 -15.31 67.32 52.97c14.65,-1.09 7.12,-8.29 28.5,-17.26 17.88,10.13 40.17,17.42 59.61,24.49l63.57 10.28c0.73,-0.12 2.87,-0.54 3.56,-0.75 18.47,-5.48 33.5,-26.56 35.14,-28.35l20.44 -14.79c-26.32,-11.58 -86.6,-60.82 -100.99,-87.58l-23.47 -4.95c-14.7,13.36 38.04,14.35 31.04,58.11 -1.25,-2.09 -15.02,-19.27 -19.92,-26.39 -1.49,1.64 -3.48,2.01 -4.44,4.94l-22.22 14.46c4.43,25.43 2.96,5.53 -6.7,11.17 -17.62,-11.09 -54.72,-22.89 -74.04,-24.98l8.28 26.05 -37.78 -13.45c-24.83,-6.78 -9.36,5.26 -27.2,-16.07 5.83,-29.15 -19.4,16.24 3.53,-9.26 21.12,-23.5 5.17,-2.93 8.72,-6.63 17.33,-18.04 4.47,1.27 12.09,-24.8 19.69,-2.82 12.4,13.4 16.64,-9.3l-19 -9.58c0.82,-27.64 -1.61,3.14 -5.03,-25.27l55.89 -30.62 8.97 1.96c8.93,-17.15 22.28,-19.24 42.37,-29.27 0.55,-30.14 -5.64,-13.51 -0.75,-30.82 30.44,7.3 20.7,18.51 52.1,36.21l101.39 73.1c0.97,0.91 2.61,2.56 3.44,3.44 8.28,8.82 12.75,21.69 17.17,28.96 -48.86,0.03 -33.38,-5.53 -39.5,-11.29 -21.47,-8.6 -9.15,-0.05 -23.99,-4.58 -14.44,-4.41 -21.04,-10.81 -30.28,-16.76l-2.16 13.49c34.44,24.24 8.78,1.2 15.53,21.87l28.96 3.45c10.94,14.76 5.34,17.63 23.39,32.24l65.72 -37.79 18.1 13.78c47.64,9.47 84.1,28.48 114.1,64.84 22.24,-1.26 7.56,9 18.86,-10.12 -7.6,27.39 -1.01,24.63 -3.24,41.49 -3.2,24.2 -23,37.44 -23.06,37.49l1.55 1.23c16.3,10.82 15.06,13.57 24.86,-2.47l-5.38 38.78c-19.62,-0.85 -17.51,-0.92 -35.85,-3.44 -7.81,16.19 -3.95,4.24 -0.14,13.78 13.66,34.2 4.63,-7.75 7,11.52 1.38,11.25 -9.95,20.89 -13.79,37.04l28.43 -0.58c1.43,2 4.2,2.4 4.63,5.35l6.62 10.31c9.73,-9.89 12.4,-10.31 10.71,-27.53 -0.01,0.03 9.66,32.17 -27.51,-6.9 25.33,-5.57 17.45,-3.63 42.02,-17.76l7.34 28.83 22.19 7.47 12.68 -30.83c-18.77,-24.86 -22.88,-56.52 -20.97,-89.38 -8.72,-16.15 -4.29,23.35 0.11,-9.81 3.35,-25.24 7.19,-13.5 -16.26,-48.52 3.87,-12.53 -0.26,-1.46 16.99,-18.44 -24.41,-27.47 -21.4,-38.34 -36.13,-59.04l-6.38 48.54c-32.85,6.88 -13.97,9.97 -22.89,-5.27 -18.39,-6.09 -14.98,11.75 -15.06,-10.16 -0.43,0.5 -0.69,1.03 -0.81,1.8l-16.75 10.85c-34.15,-18.52 2.58,-4.99 -54.16,-52.79 -26.16,-22.04 -11.86,2.46 -17.84,-29.42 39.56,8.37 8.64,9.47 50.36,34.7 -10.05,-19.67 -10.56,-21.42 -17.67,-41.44 16.32,-13.5 15.1,-2.92 26.66,-9.17 6.17,-28.19 2.34,-17.05 21.65,-21.36 25.19,-5.61 22.89,9.05 31.3,-19.96 -6.78,-12.5 -10.6,-18.06 -17.6,-28.18 -28.88,1.72 -29.63,7.5 -38,9.37 -1.48,0.33 -14.19,-1.09 -18.29,1.83l-13.92 -25.81c-26.96,18.94 -35.29,38.52 -59.07,56.24 -31.22,-2.63 -24.71,-11.12 -51.83,-21.84 -31.45,-12.42 -22.24,1.91 -52.28,13.77 -8.79,-8.24 -74.95,-53.05 -85.74,-58.93 -32.28,17.05 -48.43,35.92 -78.53,54.77 -35.03,21.93 -57.9,25.77 -101.01,37.96 -51.51,14.58 -54.63,35.02 -98.77,12.12 -32.27,-16.75 -67.57,-23.19 -100.43,-38.74 -111.77,-52.87 -70.26,-75.16 -182.29,-12.24 -137.39,77.16 -109.06,-3 -200.7,-9.81 -52.41,64.83 -31.67,28.81 -60.45,54.73l-80.04 130.79z"/>
   <path class="fil1" d="M2435.94 1058.33c51.35,-53.72 190.85,70.53 105.14,170.62 -21.91,25.58 -108.71,52.3 -111.94,-11.33 -1.73,-34.21 -11.78,-139.84 6.8,-159.29zm-144.86 -31.63c49.43,23.57 60.33,-9.81 60.66,72.97 0.17,41.22 2.78,315.43 -5.49,335.98 -8.81,21.89 2.55,6.83 -39.03,28.94 -1.35,0.72 -3.91,1.77 -5.48,3.18l191.06 0.18c-8.99,-11.44 -42.33,-15.68 -51.63,-17.87 -13.75,-39.72 -13.71,-112.3 -10.17,-163.36 118.24,-18.27 82.74,72.19 196.37,160.49 44.83,34.83 276.19,21.47 351.07,21.11 -57.9,-45.23 -64.4,48.96 -64.33,-171.04l4.05 -253.07 46.19 -17.45c-19.97,-12.2 -168.79,-10.45 -185.26,1.03 39.11,16.37 50.68,-2.74 50.68,57.73l-1.21 328.96c-3.09,26.63 -6.2,28.19 -17.26,35.69 -89.75,54.91 -212.01,-149.23 -250.6,-189.4 30.2,-38.8 96.99,-75.78 77.3,-159.41 -29.89,-126.93 -346.73,-74.78 -346.92,-74.66z"/>
   <path class="fil1" d="M3262.97 975.76c274.54,-96.06 349.77,396.4 149.65,460.28 -187.66,59.9 -304.09,-162.82 -252.32,-347.11 17.07,-60.76 47.95,-94.03 102.67,-113.17zm19.89 -38.5c-367.15,63.36 -271.93,615.01 114.94,535.23 337.36,-69.56 294.99,-605.99 -114.94,-535.23z"/>
   <path class="fil1" d="M645.32 1466.3l147.71 1.81 -45.66 -24.78c-4.03,-38.51 20.62,-217.7 29.82,-260.83 36.39,42.49 111.94,259.04 160.04,283.95 30.21,-34.1 54.77,-95.48 77.71,-142.6 17.32,-35.61 54.19,-118.1 75.64,-142.86 12.06,26.15 43.47,245.57 28.83,284.3l144.4 -3.34c-8.14,-3.43 -9.78,-3.73 -17.53,-6.73 -51.74,-20.06 -45.78,-80.76 -62.32,-193.28l-28.76 -190.71c-4.46,-32.96 -0.46,-42.55 -20.81,-59.47 -26.43,12.99 -78.83,140.6 -93.96,169.74 -25.71,49.51 -58.62,131 -87.21,172.21 -26.66,-48.41 -153.39,-327.44 -183.94,-342.03 -31.9,37.97 -60.69,391.49 -79.14,425.68 -9.94,18.42 -0.52,6.74 -18.93,16.7l-20.74 9.53c-1.18,0.58 -3.64,1.49 -5.15,2.71z"/>
   <path class="fil1" d="M2158.59 2012.9c-15.59,-118.83 18.55,-220.43 129.28,-228.68 108.66,-8.09 179.15,73.32 190.43,170.53 36.42,313.75 -290.13,283.69 -319.71,58.15zm410.7 0c31.45,-147.82 -81.86,-248.49 -215.14,-258.82 -153.39,-11.89 -273.32,66.81 -288.2,200.07 -34.72,310.72 436.52,372.74 503.34,58.75z"/>
   <path class="fil1" d="M1927.96 1049.7c103.58,-31.48 190.08,53.02 209.52,135.5 71.66,304.03 -251.95,342.33 -309.58,113.07 -23.51,-93.51 -12.83,-214.26 100.06,-248.57zm20.67 -34.95c-327.93,36.14 -277.32,502.16 69.5,459.33 308.56,-38.11 299.54,-500 -69.5,-459.33z"/>
   <path class="fil1" d="M1454.68 1793.86c79.88,-8.41 133.24,21.52 133.16,102.16 -0.07,83.41 -48.05,108.95 -133.69,92.71l0.53 -194.87zm-141.13 -29.24c28.73,25.7 59.47,-5.81 62.42,57.74 3.4,73.07 3.25,316.66 -9.12,366.51l-40.34 13.89c17.59,10.83 169.77,9.4 188.03,-2.64l-52.65 -10.29c-10.36,-48.24 -8.3,-110.98 -8.41,-165.45l71.07 1.6c22.5,40.06 66.84,99.22 97.37,134.75 41.45,48.25 103.78,58.14 166.69,45.64l10.37 -3.61c-44.14,-23.42 -64.89,-15.61 -123.27,-88.5 -16.57,-20.69 -32.08,-38.78 -49.75,-59.95 -17.4,-20.83 -29.33,-38.89 -42.76,-54.23 24.33,-30.62 57.83,-43.91 76.61,-97.08 17.72,-50.15 -6.81,-96.64 -41.1,-118.93 -37.43,-24.33 -267.07,-35.31 -305.16,-19.45z"/>
   <path class="fil1" d="M240.95 943.84l12.14 5.38c72.62,25.66 54.5,12.92 54.51,253.13 0,35.93 4.5,203.32 -6.7,231.33 -11.67,29.16 1.14,8.79 -17.81,19.08l-32.96 14.2c54.69,3.53 278.85,8.49 321.99,-0.69 16.66,-28.56 20.03,-67.65 16.11,-103.21 -22.35,19.03 -9.44,53.85 -57.68,66.61 -22.73,6 -89.43,6.91 -109.7,-2.98 -34.53,-16.85 -24.91,-66.52 -24.7,-100.17 0.25,-39.92 -3.09,-81.89 3.03,-121.14 44.83,-1.52 93.56,-0.44 131.61,9.42 6.34,15.54 8.43,33.1 21.36,49.2l9.97 -113.08c-37.33,7.18 -38.18,27.88 -165.46,16.51l0.27 -188.71c30.61,-1.5 76.67,-1.39 104.87,2.61 60.67,8.62 31.76,24.7 55.72,58.86 15.64,-21.1 12.81,-73.48 15.58,-102.62 -109.62,10.93 -220.24,2.69 -332.15,6.27z"/>
   <path class="fil1" d="M938.51 1698.15c21.66,7.3 19.96,2.88 26.24,24.19 7.93,26.95 3.6,424.13 -6.33,466.46l-43.82 13.96c26.52,13.32 79.99,4.14 110.26,4.51 11.39,0.14 94.24,6 98.21,-2.67 0.97,-2.12 3.72,-1.01 5.89,-4.23l-60.17 -12.59c-15.85,-49.87 -11.31,-179.47 -11.25,-243.11 167.51,-1.36 119.81,7.69 156.12,57.83l12.37 -110.51c-23.94,3.02 -25.08,16.91 -76.63,17.46 -30.05,0.32 -61.94,2.59 -91.94,-2.73l0.06 -182.73c31.61,-7.96 79.63,-4.92 113.13,-1.9 46.37,4.18 41.77,20.13 54.6,46.87 0.58,1.21 2.47,6.25 2.9,5.15 0.44,-1.11 1.76,3.61 4.12,5.19l10.16 -98.84 -343.79 2.29 39.87 15.4z"/>
   <path class="fil0" d="M2706.51 602.06c2.82,25.05 5.54,16.58 -19.81,26.04l19.81 -26.04zm39.29 -37.1c27.73,-0.34 4.98,2.15 18.74,-4.06l20.26 19.55c-11.81,6.25 -18.69,10.45 -32.42,15.61l-26.11 8.04c-5.15,-11.63 -0.41,-11.84 4.76,-21.87 -42.33,-13.86 -35,-3.3 -41.23,-51.64l16.62 8.81c33.74,21.27 24.48,20.51 26.99,35.08 9.89,-8.61 5.42,6.68 12.39,-9.52zm14.5 -169.28c0.32,-0.09 -5.18,-20.64 21.42,2.74 11.23,9.87 -2.08,-2.43 7.01,19.24l7.69 13.53c6.47,18.66 4.28,3.53 1.42,25.73 -25.86,-16.78 -3.94,-14.92 -37.47,3.85 2.33,-9.47 6.85,-20.9 4.5,-29.19 -7.57,-26.7 -3.6,13.99 -6.33,-3.18 -0.15,-0.97 -1.79,0.18 -2.64,-0.08l4.4 -32.64zm-75.43 -5.22c27.23,-8.27 7.48,-7.8 35.82,-5.16 2.66,0.25 11.63,2.57 13.56,3l13.89 4.93c-0.46,1.76 -1.07,4.18 -1.56,5.21l-7.76 14.15c-3.81,5.84 -7.06,11.19 -7.8,9.75 -0.69,-1.34 -2.82,3.6 -4.05,5.52 14.74,17.28 16.62,14.73 26.58,37.01l34.75 7.15c15.38,10.38 15.78,1.81 13.44,24 -0.67,6.39 -9.48,19.58 -0.09,34.53l-72.77 7.02c-1.16,-5.13 -18.14,-12.53 -31.78,-35.64 33.59,12.22 9.93,-11.74 33.32,24.34 8.56,-30.33 19.26,-15.8 -6.19,-35.34 -9.96,-17.32 -6.8,-5.87 -8.43,-32.9l-7.85 24.36 -21.99 -5.58c4.73,29.26 9.13,26.93 8.47,52.52 -16.91,-33.04 -9.68,-17.96 -30.11,-26.89 -4.12,19.37 -4.45,63.42 -38.28,47.78 -21.8,-1.58 -16.57,-6.8 -16.57,14.7 38.6,6.09 28.19,1.09 36.06,-4.98l1.15 28.99c28.05,-30.69 18.68,-7.33 18.8,-7.26 -13.15,13.62 -7.4,13.03 -21.94,26.24 1.51,1.69 3.56,3.71 4.72,4.88l20.51 19.99c-52.72,43.92 -61.49,19.1 -103.15,-2.67 -14,8.04 -16.58,14.39 -34.04,15.07l23.17 -32.39c0.85,-1.33 1.79,-3.34 2.66,-4.59 12.78,-18.47 10.47,-4.89 19.99,-22.96 26.32,19.53 6.99,18.86 6.97,18.89 -17.53,24.24 -3.02,-12.78 -4.14,6.72 15.76,14.08 22.58,17.73 46.7,11.22 -29.23,-15.05 -5.94,9.45 -25.11,-25.8l36.46 -15.09c-23.62,-9.73 -14.04,-2.86 -24.64,-19.09 -24.65,2.73 -18.57,4.38 -40.68,-2.37 -8.55,-23.62 -5.66,-22.45 -6.36,-44.53 -0.91,-28.57 -6.54,-13.23 -8.31,-24.5 -0.38,-2.37 -2.56,-2.55 -3.7,-3.95 7.77,-24.68 7.39,-14.09 3.77,-43.78l58.34 36.29c19.24,8.13 1.51,3.25 11.02,-10.72 -44.05,-18.21 -18.86,-31.45 -31.49,-70.15 -6.78,-20.8 -16.83,-79.44 -23.3,-91.45 -9.28,8.84 -31.2,69.9 -35.5,87.69 -11.02,45.52 24.85,115.31 -61.68,75.88l26.37 20.92c21.91,31.71 -15.62,2.78 21,36.61 8.59,15.7 -11.31,12.26 -29.7,31.73 10.37,31.49 -7.44,9.26 26.61,21.91l-15.38 12.31c-19.2,16.05 -1.29,-6.3 -16.23,14.86 1.85,8.94 10.77,11.87 -4.47,20.33 17.6,13.9 -6.7,7.21 17.75,4.04 4.96,-0.64 15.32,-5.59 21.99,-7.98 -4.69,13.15 -13.35,27.49 -9.18,44.19l34.08 10.59 -11.42 21.36 72.26 -14.41 7.91 16.67c16.53,-9.81 45.06,-22.98 68.44,-34.78 11.81,-18.79 -3.06,-6.39 20.91,-18.82 8.24,-4.26 10.27,-3.49 20.29,-9.14 24.94,-14.03 13.46,-11.92 42.23,-17.03 7.34,-16 8.98,-14.44 21.8,-27.48l99.75 -56.82 71.91 -22.74c-12.87,-9.93 2.68,-4.97 -18.19,-7.93 -18.45,-2.61 -27.31,3.88 -55.09,16.37 -27.47,12.34 -43.43,29.73 -62.57,14.73 24.01,5.5 18.69,-5.27 20.12,-6.84 7.84,-8.62 9.43,-17.53 9.64,-31.93 -33.49,-33.17 -13.77,-8.75 -39.08,-50.99 17.25,-11.11 -21.15,0.83 5.21,1.54l13.02 -1.54c-14.17,-21.83 -21.24,-107.83 -22.53,-145.61l-34.13 60.24c-5.48,-7.34 0.04,-0.18 -9.16,-9.5l-13.6 -14.67c43.26,-18.05 1.91,-60.61 -4.99,-111.05l-10.44 -50.93c-15.67,28.12 -22.52,67.64 -35.06,101.6l-3.55 17.19c-12.78,74.4 -19.82,9.71 -17.4,92.96z"/>
   <path class="fil1" d="M2673.17 2198.43c288.9,85.79 355.49,-137.84 225.43,-263 -29.65,-28.53 -59.9,-48.11 -88.06,-72.44 -150.91,-130.36 38.87,-207.74 102.3,-124.18l20.3 45.68 12.57 -99.81c-102.63,-16.93 -209.77,-16.85 -248.83,65.35 -69.04,145.29 134.2,232.03 173.46,294.06 24.59,38.85 23.54,91.27 -8.59,118.87 -29.05,24.95 -82.54,29.48 -120.44,10.61 -51.82,-25.81 -32.92,-57.09 -58.85,-101.93 -17.49,25.76 -12.01,96.9 -9.29,126.79z"/>
   <path class="fil1" d="M1319.29 1027.42l55.12 16.55c8.97,84.67 4.43,214.84 4.39,304.43 -0.03,101.95 2.99,92.36 -38.05,112.96l159.35 -4.22c-23.23,-8.12 -29.52,-1.82 -36.63,-28.97 -7.2,-27.5 -0.95,-364.77 -0.82,-378.85 74.13,-6.25 120.48,23.43 125.99,94.73 7.91,102.28 -75.18,105.86 -97.65,116.72l11.17 4.39c23.41,5.78 45.57,2.21 68.5,-6.14 24.33,-8.86 42.65,-21.29 57.6,-37.45 27.92,-30.18 53,-90.88 28.14,-139.61 -23.15,-45.38 -69.28,-60.18 -127.36,-61.76 -32.28,-0.88 -158.64,-3.99 -183.06,-1.09l-26.69 8.31z"/>
   <path class="fil2" d="M264.67 1593.63c-40.34,5.41 -19.67,-4.46 -27.67,17.65 12.59,13.83 -28,15.36 86.83,14.74l1336.34 0.02c12.21,0.1 41.96,1.85 51.9,0.85 48.11,-4.81 19.51,6.37 32.15,-15.61 -10.58,-23.37 12.24,-16.06 -39.36,-18.33l-1440.19 0.68z"/>
   <path class="fil2" d="M2200.51 1594.24c-112.39,-1.08 -73.93,-4.66 -84.49,17.04 13.5,11.85 -29.17,15.28 91.79,14.74l1241.38 -0.02c48.53,0.01 173.41,11.77 173.56,-15.23 0.17,-28.21 -62.06,-16.67 -85.91,-16.51l-1336.33 -0.02z"/>
   <path class="fil1" d="M1829.98 1764.62c1.32,1.18 3.64,2.08 4.65,2.56 1.02,0.47 3.5,1.85 4.77,2.42 22.01,9.75 23.51,4.28 33.05,16.2 22.33,27.92 6.4,376.77 1.9,406.05l-43.05 10.91c15.93,10.21 183.05,9.82 198.84,-2.53l-57.87 -9.77c-13.55,-56.5 -8.01,-169.54 -8.02,-235.98 -0.05,-244.27 1.53,-143.25 49.98,-193.26l-184.25 3.4z"/>
   <path class="fil3" d="M1972.91 450.01c4.9,22.78 -1.04,5.71 12.03,26.02 -25.64,4.82 -17.24,-0.12 -37.75,-25.34l25.72 -0.68zm-40.68 0.26c14.39,26.76 74.67,76 100.99,87.58l-20.44 14.79c-1.64,1.79 -16.67,22.87 -35.14,28.35 -0.69,0.21 -2.83,0.63 -3.56,0.75l-63.57 -10.28c-19.44,-7.07 -41.73,-14.36 -59.61,-24.49 -21.38,8.97 -13.85,16.17 -28.5,17.26l-67.32 -52.97 -21.87 15.31 4.21 20.61 7.96 29.24 8.45 21.7c0.46,-1.21 2.48,3.63 3.75,5.42 54.73,-18.52 -20.56,-26.62 56.95,1.61l50.04 12.99c-35.84,-48.67 -24.11,-33.88 -24.3,-46.39l1.17 -10.72c18.11,41.26 15.29,1.55 33.1,42.51l22.31 -9.9c49.43,-14.5 22.03,1.92 23.83,3.48l51.8 5.03c16.38,8.34 9.11,1.23 20.16,13.42l13.47 21.91 -1.72 -15.18c18.3,-2.33 23.99,-3.4 37.31,-8.22 15.64,-5.65 2.64,-6.57 33.97,-10.97 -10.82,-20.05 -9.15,-10.76 -8.95,-23.74l19.16 -2.36c-1.31,-26.17 12.96,-11.38 -36.91,-47.58l92.18 -34.02c0.62,-1.83 3.57,-0.47 5.08,-1.37 -6.7,-8.87 -3.78,-5.7 -12.33,-14.17 -1.75,-1.74 -9.48,-8.29 -11.89,-10.15 -0.56,-0.43 -10.64,-6.85 -12.93,-8.03l-18.1 -13.78 -65.72 37.79c-18.05,-14.61 -12.45,-17.48 -23.39,-32.24l-28.96 -3.45c-6.75,-20.67 18.91,2.37 -15.53,-21.87 -8.77,18.03 1.29,3.41 -12.42,15.62 -15.58,13.9 1.16,3.97 -12.73,6.51z"/>
   <path class="fil0" d="M1970.68 1670.59c3.2,-28.15 -0.49,-31.64 18.07,-49.06 15.33,16.51 15.43,17.66 19.02,47.42l-37.09 1.64zm-64.4 -0.01c2.75,-28.13 3.5,-48.32 24.05,-62.1 18.59,14.83 19.51,35.09 23.36,62.08l-47.41 0.02zm-54.1 -2.37c2.7,-29.94 1.92,-31.59 19.74,-46.64 15.45,18.45 13.87,21.41 15.76,49.16l-35.5 -2.52zm-21.72 19.46l197.75 -2.31 24.87 -117.23c-36.27,3.31 -24.82,6.14 -49.73,25.35 -32.52,-26.81 -16.24,-38.52 -73.02,-59.58 -56.25,19.27 -40.98,27.56 -73.02,59.34 -14.53,-14.53 -20.61,-21.82 -50.67,-25.42l23.82 119.85z"/>
   <path class="fil4" d="M2301.1 660.19c0.31,9.4 0.16,4.82 -2.02,23.71l21.34 13.48c14.76,15.51 2.59,-8.09 5.41,15.73 -13.87,8.63 -11.37,-3.13 -37.5,15.69 24.9,5.64 50.97,6.81 68.32,8.63l-2.5 -21.4c63.2,-18.77 0.39,-11.52 67.99,-5.46l-39.76 27.63 0.56 -3.15c-8.53,0 -21.32,-1.06 -29.24,1.68 -34.86,12.07 -10.59,-0.28 -26.2,17.03 107.62,13.2 77.54,-35.61 85.37,8.54 7.45,14.6 4.53,26.6 20.81,31.06 3.38,0.92 12.28,32.86 2.2,-6.44 57.68,-7.58 -4.28,-85.9 33.83,-95.72 12.68,1.37 3.29,12.31 1.02,43.78 15,-11.01 33.31,-21.66 39.52,-41.51 0.75,-2.38 1.04,-4.6 1.64,-7 0.69,-2.76 0.78,-5.79 1.29,-8.22 0.55,-2.61 0.97,-5.87 1.33,-8.83 -4.17,-16.7 4.49,-31.04 9.18,-44.19 -6.67,2.39 -17.03,7.34 -21.99,7.98 -24.45,3.17 -0.15,9.86 -17.75,-4.04 -0.9,1.42 -2.38,3.4 -3,4.06 -0.59,0.62 -2.35,2.94 -3.09,3.65 -20.83,19.82 -14.07,1.69 -35.34,23.45l13.53 38.14c-25.8,-10.28 -26.88,-5.51 -53.76,-36.44 -20.09,13.18 34.64,-16.74 -23.41,-0.59l-41.07 16.67c-1.22,-66.88 -10.31,-64.6 -32.05,-84.45 -3.64,-3.32 -9.37,-8.9 -11.85,-11.14 -10.71,-9.66 -0.24,-2.43 -13.78,-11.71 -1.91,32.86 2.2,64.52 20.97,89.38z"/>
   <path class="fil5" d="M1286.82 619.48c-10.59,15.35 -9.92,14.35 -20.14,20.05 53.87,40.71 -1.55,-24.7 69.99,9.07l16.59 9.53c1.1,-1.73 3.96,2.57 5.94,3.86 -9.45,15.66 -6.28,11.49 -22.52,14.55l-2.06 16.6 14.3 7.33c24.55,12.61 19.71,14.1 55.61,24.7 -2.27,-8.24 -10.61,-35.17 -10.99,-42.51 -3.28,-62.05 -2.44,-18.55 13.38,-27.42l-2.31 6.72c15.11,-27.12 -24.33,-21.84 29.13,-21.84 8.74,10.73 20.85,15.42 33.77,23.05 13.54,8.01 28.19,17.41 35.86,16.35l-24.92 -19.34c-0.96,-0.82 -3.57,-1.39 -4.27,-3.92 -0.7,-2.56 -2.89,-2.62 -4.29,-3.98 44.05,9.91 70.35,79.5 146.45,37.38l7.3 -35.75c55.13,-8.35 34.04,9.36 141.93,-8.36 5.74,-10.69 4.34,-4.74 -10.45,-10.85 -4.65,-0.64 -15.33,-2.71 -24.11,-6.36 -18.16,-7.54 10.94,-8.39 -51.19,3.28 -28.83,4.07 -24.7,-1.9 -34.24,-22.87l-27.31 -4.25c-6.42,21.73 -22.7,-28.56 -1.98,28.31l-26.01 -3.86 10.7 16.8 -18.17 10.99c-28.66,8.62 -15.45,-11.47 -48.71,-1.24 6.85,16.9 1.95,6.43 12.18,18.4l-198.67 -83.23 3.46 2.13c-2.11,1.26 -4.75,2.8 -6.45,3.56 -1.61,0.72 -4.26,2.46 -6.17,3.2 -16.42,6.34 -16.59,4.79 -36.11,-0.59 -0.69,1.86 -1.27,4.58 -1.58,5.75l-13.94 14.76z"/>
   <path class="fil4" d="M1483.96 720.16c47.57,21.38 -16.38,-15.31 48.26,1.81 22.7,6.01 23.3,14.91 41.43,24.41 5.56,37.88 4.06,10.51 -7.68,19.26 4.7,8.29 10.78,-4.23 -4.01,24 34.17,13.58 43.54,16.49 56.34,74.84 22.64,-2.55 12.27,-8.04 25.99,-12.63 -6.21,-19.63 -17.4,-32.93 -27.19,-44.59 3.79,1.71 26.2,13.73 29.13,14.12 67.7,9.1 31.53,-6.24 43.09,-20.61 -31.67,-5.04 -101.61,-16.82 -110.75,-50 43.01,26.63 78.2,42.44 129.36,35.54 37.9,-5.11 86.4,26.61 142.04,28.99l-9.15 -20.32c-0.45,-0.5 -3.14,-0.99 -4.25,-2.12 -21.09,-13.17 -65.78,-23.89 -97.26,-23.34 -73.45,1.28 -44.8,-4.41 -104.24,-17.77l11.71 -8.94c-24.26,-6.12 -14.23,-6.98 -37.99,-15.19 -13.18,-4.55 -23.33,-6.29 -37.99,-12.58 -23.66,-10.17 -51.33,-21.05 -67.43,-35.52 -7.67,1.06 -22.32,-8.34 -35.86,-16.35 -12.92,-7.63 -25.03,-12.32 -33.77,-23.05 -53.46,0 -14.02,-5.28 -29.13,21.84l41.42 19.41c21.78,11.94 24.89,15.25 49.2,20.85 -17.06,10.96 -5.27,-0.31 -11.27,17.94z"/>
   <path class="fil4" d="M1590.28 628.95l26.01 3.86c-20.72,-56.87 -4.44,-6.58 1.98,-28.31 -24.41,10.63 -16.7,-0.74 -26,-31.81 24.05,4.96 7.97,5.74 24.07,-1.82 23.31,18.15 10.89,13.84 32.38,30.03 32.11,24.2 15.98,-5.06 31.1,30.72 62.13,-11.67 33.03,-10.82 51.19,-3.28 8.78,3.65 19.46,5.72 24.11,6.36l5.2 -23.76 16.75 8.89c20.63,-2.2 12.67,-28.86 49.24,-6.66 1.59,0.97 3.18,2.64 4.61,3.65 1.25,0.88 2.88,2.42 3.93,3.3 11.12,9.34 9.02,8.6 9.06,32.1l20.2 -4.09 -0.25 -15.2c-0.26,-1.68 -2.29,-12.47 -3.11,-14.75 25.44,-10.18 11.73,-2.91 26.45,-15.65 6.87,11.49 8.98,18.45 15.02,34.49 36.19,5.73 9.66,-39.97 64.62,-15.53 15.74,-13.83 5.86,5.81 5.64,-19.34l-51.8 -5.03c-1.8,-1.56 25.6,-17.98 -23.83,-3.48l-22.31 9.9c-17.81,-40.96 -14.99,-1.25 -33.1,-42.51l-1.17 10.72c0.19,12.51 -11.54,-2.28 24.3,46.39l-50.04 -12.99c-77.51,-28.23 -2.22,-20.13 -56.95,-1.61 -1.27,-1.79 -3.29,-6.63 -3.75,-5.42l-8.45 -21.7c-46.2,11.29 -25.22,-12.95 -60.3,-20.43l-63.68 -8.52c-1.33,13.33 -1.8,13.44 -5.84,19.56l-39.29 -12.49 -21.67 -29.18c-1.23,3.75 -9.79,-7.05 -0.39,22.06 12.21,37.85 22.51,46.33 44.62,52.64l-8.55 28.89z"/>
   <path class="fil0" d="M1765.57 645.55c-107.89,17.72 -86.8,0.01 -141.93,8.36l-7.3 35.75c-76.1,42.12 -102.4,-27.47 -146.45,-37.38 1.4,1.36 3.59,1.42 4.29,3.98 0.7,2.53 3.31,3.1 4.27,3.92l24.92 19.34c16.1,14.47 43.77,25.35 67.43,35.52 14.66,6.29 24.81,8.03 37.99,12.58 23.76,8.21 13.73,9.07 37.99,15.19 1.73,0.43 23.19,5.62 26.39,5.44 8.07,-0.44 8.82,-0.58 16.72,-3.93 13.45,-5.69 10.02,-5.3 17.28,-11.11l-20.86 -2.59c-11.21,-20.08 -8.88,-20.9 -31.05,-25.47l6.87 -29.22c-10.6,-20.57 -3.28,7.08 -1.98,-6.13 24.33,-3.02 53.46,5.98 72.05,14.37 27.78,12.55 14.31,5.43 21.71,21.54l-2.41 0.14c6.71,-11.57 -25.84,-22.49 32.77,-10.61 15.7,3.18 24.21,15.76 24.53,15.98 20.68,14.26 19.02,-5.75 26.6,9.15 -30.83,-4.69 -17.23,3.28 -24.45,-25.84 34.8,6.03 30.09,5.46 41.73,18.61l9.81 0.57c-14.41,-37.49 -25.5,-29.15 -32.31,-40.19 -0.25,-0.4 -0.56,-2.05 -0.75,-2.49l-15.93 -42.27c-24.99,4.38 -31.17,9.62 -47.93,16.79z"/>
   <path class="fil4" d="M979.15 563.84c-17.91,14.36 -10.28,5.83 -41.8,15.6l-27.68 12.6c-1.36,47.55 -2.89,12.25 10.41,20.77 28.85,-3.7 54.4,1.14 71.95,-25.76 20.19,-30.95 -34.18,20.27 3.62,-6.39 7.06,21.82 -1.6,13.17 15.42,20.79 -32.85,2.11 -24.79,1.36 -35.11,24.03l22.4 4.86c57.72,-3.65 -29.2,-6.19 19.19,-4.9 8.1,14.92 7.64,8.71 20.02,22.83 14.47,-7.69 12.3,17.7 7.22,-19.95 -4.05,-29.99 2.34,-0.49 -13.21,-21.2 30.05,-2.49 39.34,-14.59 51.77,2.8 41.11,27.02 -3.8,-27.16 6.49,19.98 0.2,0.93 0.47,3.66 1.49,5.11l7.46 -8.76c17.29,-16.01 37.42,-0.58 51.42,9.53 23.2,9.49 5.1,4.17 29.17,6.44 13.92,-6.95 19.41,-1.28 38.48,8.6l0.51 -10.58c-18.54,-27.93 -56.32,-58.44 -95.03,-69.8 -66.04,-19.37 -91.14,13.89 -144.19,-6.6z"/>
   <path class="fil0" d="M2014.37 723.59c-6.02,11.11 -14.78,6.72 -32.89,7.12l-117.73 11.34 50.7 2.72 -4.22 26.07 3.26 -20.86 52.52 -6.12c-18.29,30.56 12.05,7.29 -13.81,19.1 9.57,7.46 108.41,2.08 131.1,0.71 -17.09,-23.53 -16.97,-5.44 -29.05,-25.47l36.28 -6.3c19.09,3.82 42.2,-0.67 69.94,-4.45 28.63,-3.89 35.45,-2.82 47.38,-20.54 -5.31,8.65 8.14,6.73 -13.82,2.27l-81.33 4.62c7.49,-18.31 0.63,-2.53 19.49,-15.3 -18.28,-17.83 -32.18,-18.08 -44.29,-40.79 17.94,5.52 17.66,12.23 41.26,20.83 -9.51,-29.43 -11.51,-27.24 -30.84,-46.97l8.7 -8.96 0.08 -15.34 -21.22 -30.26c-3.55,37.39 -25.58,102.15 -26.68,108.81 -0.18,1.04 -3.07,19.53 -3.31,20.28 -5.05,15.8 -0.86,5.95 -8.71,17.73l-32.81 -0.24z"/>
   <path class="fil2" d="M1707.17 733.21c-7.26,5.81 -3.83,5.42 -17.28,11.11 -7.9,3.35 -8.65,3.49 -16.72,3.93 -3.2,0.18 -24.66,-5.01 -26.39,-5.44l-11.71 8.94c59.44,13.36 30.79,19.05 104.24,17.77 31.48,-0.55 76.17,10.17 97.26,23.34l20.77 1.78c2.14,-6.89 22.82,-4.75 -13.23,-12.22 36.08,-1.98 28.22,-4.89 35.28,-9.79l22.5 27.3c-3.47,-45.65 -0.67,-17.79 8.34,-29.09l4.22 -26.07 -50.7 -2.72 -46.98 -0.52c20.77,-20.94 17.59,-8.77 35.91,-28.39 -11.64,-13.15 -6.93,-12.58 -41.73,-18.61 7.22,29.12 -6.38,21.15 24.45,25.84 -7.58,-14.9 -5.92,5.11 -26.6,-9.15 -0.32,-0.22 -8.83,-12.8 -24.53,-15.98 -58.61,-11.88 -26.06,-0.96 -32.77,10.61 18.79,23.97 16.29,29.2 52.34,35.51l-96.67 -8.15z"/>
   <path class="fil3" d="M1462.46 457.99l19.33 10.44 -5.33 15.35c41.4,9.83 53.39,8.8 98.67,49.17l18.6 19.47c-26.07,-10.27 1.68,-19.09 -17.46,2.12l39.29 12.49c4.04,-6.12 4.51,-6.23 5.84,-19.56 -21.35,-39.03 -21.08,-18.32 -26.39,-46.39 9.74,8.47 53.01,35.11 69.5,33.04 32.85,-4.13 10.7,4.17 32.12,-18.14 -40.5,-3.66 -16.57,-9.47 -72.63,-43.44 -49.89,-30.25 -42.88,-44.46 -124.68,-10.36 -15.14,-11.26 0.12,1.02 -15.71,-14.13l-26.88 -6.43 5.73 16.37z"/>
   <path class="fil3" d="M2090.53 731.9l0.38 32.35 29.43 11.87 -65.84 44.4c39.28,2.45 28.35,-1.73 54.28,-7.36l51.59 -14.04c41.44,-10.52 4.36,10 36.44,-23.93l54.82 -28.22c3.23,-8.03 0.35,1.95 0.19,-8.77 -0.23,-15.52 -5.14,1.04 -0.19,-11.04l23.57 0.69c-9.73,-13.62 -4.96,-6.07 -8.99,-20.43l-32.54 -0.51 -6.62 -10.31c-0.43,-2.95 -3.2,-3.35 -4.63,-5.35l-28.43 0.58 0.04 17.35c21.96,4.46 8.51,6.38 13.82,-2.27 -11.93,17.72 -18.75,16.65 -47.38,20.54 -27.74,3.78 -50.85,8.27 -69.94,4.45z"/>
   <path class="fil0" d="M1519.46 607.53c-10.54,-3.22 1.38,8.01 -20.46,-10.77 -14.36,-12.36 -6.98,-4.08 -15.11,-20.11 28.09,5.75 27.09,6.27 35.57,30.88zm-94.93 -91.44c-5.86,19.99 -3.75,4.53 -4.47,28.65 15.91,7.2 3.24,-4.6 20.16,15.85l39.46 57.51c-38.7,-3.91 -52.25,-17.01 -75.11,-35.92 -14.79,20.43 24.62,22.7 -9.61,9.91 -17.33,-6.47 -41.03,-13.76 -47.35,-1.42l198.67 83.23c-10.23,-11.97 -5.33,-1.5 -12.18,-18.4l-1.34 -28.37c-11.86,-9.97 -6.72,-9.58 -13.3,-19.6 9.59,1.76 14.68,1.29 15.97,1.23 1.3,-0.06 5.71,-2.12 9.03,-3.3l-1.2 -11.04c-28.7,-27.66 -35.44,-33.97 -70.95,-58.04l-17.31 -20.14 -30.47 -0.15z"/>
   <path class="fil2" d="M920.08 612.81c-13.3,-8.52 -11.77,26.78 -10.41,-20.77l27.68 -12.6c31.52,-9.77 23.89,-1.24 41.8,-15.6l1.55 -3.7 14.46 -30.43 -10.86 -12.36c-17.88,11.11 -10.01,7.13 -25.05,20.77 -12.92,11.72 0.99,1.74 -11.7,10.1 -18.84,12.39 -6.11,4.4 -18.78,8.12 -23.99,1.03 -8.85,-4.47 -19.59,10.86 -39.96,-41.47 -31.19,-4.65 -31.3,-4.39 2.12,-16.05 7,-24.92 8.24,-27.85 6.31,8.15 -12.84,4.38 36.47,17.46 -1,-3.02 -2.64,-10.24 -3.42,-8.9 -0.02,0.04 -11.5,-17.15 -12.5,-49.65 2.74,-2.33 14.68,-6.3 18.23,-7.96 -4.54,-8.99 -14.51,-29.48 -18.26,-41.04 -8.5,-26.23 -1.17,-36.79 -13.22,-51.84 -26.03,73.49 -27.5,68.85 -13.02,108.31l-25.84 21.91c11.15,32.44 18.51,11.93 5.04,49.22 25.69,14 39.6,30.01 51.04,50.98l9.44 -10.64z"/>
   <path class="fil3" d="M2107.1 607.27l-0.08 15.34 27.5 15.98c36.73,-27.59 21.42,-3.99 63.41,-74.29l10.86 17.76c1.04,1.86 5.75,11.22 6.95,13.33 0.06,-0.05 19.86,-13.29 23.06,-37.49 2.23,-16.86 -4.36,-14.1 3.24,-41.49 -11.3,19.12 3.38,8.86 -18.86,10.12 3.19,19.1 4.62,2.35 -8.06,28.61 -26.04,-27.59 -35.41,-52.27 -67.28,-49.01 -16.27,1.67 -9.66,1.05 -10.62,1.39 -0.79,0.29 -3.25,1.75 -3.91,2.04l-9.01 19.28c1.23,17.25 -0.64,-9.6 2.51,16.67 1.78,14.78 2.16,28.64 3.89,43.46l-23.6 18.3z"/>
   <path class="fil0" d="M1256.52 472.1l14.22 17.51c11.47,15.34 -13.56,48.49 -15.13,54.95l-2.26 27.36 48.02 -1.11c-7.35,31.46 -3.2,0.66 -21.09,29.36 0.27,1.25 -0.24,2.19 -0.18,3.83 0.09,2.3 0.09,6.14 0.38,6.91 2.58,6.88 -15.28,-8.96 6.34,8.57l13.94 -14.76c0.31,-1.17 0.89,-3.89 1.58,-5.75 19.52,5.38 19.69,6.93 36.11,0.59 1.91,-0.74 4.56,-2.48 6.17,-3.2 1.7,-0.76 4.34,-2.3 6.45,-3.56 -13.5,-11.11 -2.81,10.83 -15.53,-22.98 -30.18,6.31 -11.03,4.4 -19.48,-2.76 9.3,-17.53 14.78,-3.93 28.43,-15.68 -5.18,-32.42 -26.14,-32.12 -34.05,-60.04 -2.12,-13.97 17.48,20.82 -1.13,-25.64 -9.48,-23.68 -16.13,-16.7 -3.35,-42.53 -18.41,-7.46 -3.84,5.26 -25.39,-11.9 15.45,42.06 -3.62,44.54 -24.05,60.83z"/>
   <path class="fil2" d="M1543.26 594.42l1.2 11.04c-3.32,1.18 -7.73,3.24 -9.03,3.3 -1.29,0.06 -6.38,0.53 -15.97,-1.23 6.58,10.02 1.44,9.63 13.3,19.6l1.34 28.37c33.26,-10.23 20.05,9.86 48.71,1.24l18.17 -10.99 -10.7 -16.8 8.55 -28.89c-22.11,-6.31 -32.41,-14.79 -44.62,-52.64 -9.4,-29.11 -0.84,-18.31 0.39,-22.06l21.67 29.18c19.14,-21.21 -8.61,-12.39 17.46,-2.12l-18.6 -19.47c-45.28,-40.37 -57.27,-39.34 -98.67,-49.17l8.4 24.68c8.19,21.3 10.08,14.85 36.55,31.59 1.68,14.71 -17.91,9.15 13.75,34.06l8.1 20.31z"/>
   <path class="fil3" d="M1185.01 478.98l3.03 3.93c13.27,10.15 19.46,11.58 34.71,19.79 -12.75,45.55 0.94,-5.57 1.69,42.61 17.72,-17.05 2.67,6.01 11.4,-15.97 9.63,-24.22 10.43,-41.24 2.09,-58.62l18.59 1.38c20.43,-16.29 39.5,-18.77 24.05,-60.83 21.55,17.16 6.98,4.44 25.39,11.9l-5.7 -16.64c41.01,13.63 15.58,5.22 28.97,-1.43 3.04,-17.64 6.64,-14.34 -10.7,-10.02 -15.22,0.5 -11.85,-0.41 -28.06,-3.04 -95.71,-15.54 -78.97,69.89 -105.46,86.94z"/>
   <path class="fil2" d="M1145.3 448.91c-42.48,10.05 -32.82,15.33 -60.8,39.55 -20.43,17.68 -18.46,9.96 -45.12,22.78 -6.24,-26.76 -3.92,-13.65 -13.86,-22.88 -11.8,18.36 -8.97,-2.3 -2.65,16.05 7.68,22.26 -11.03,-8.82 6.11,8.23 6.49,6.46 29.82,14.38 47.03,7.07 26.87,66.65 -0.49,10.55 58.42,45.7 -4.08,-34.5 -2.5,-14.43 13.52,-32.62 -6.11,-6.21 -3.77,-4.95 -3.5,-5.71l6.9 -9.02c-0.36,-18.68 -6.65,-9.07 0.64,-22.7l36.93 8.36c-6.82,-0.61 -9.79,-1.93 -22.68,-6.77 17.64,-30.39 -7.56,-6.46 21.8,-14.04l-3.03 -3.93c-7.86,3.75 5.06,-1.92 -17.85,5.61 -2.05,-37.15 -0.64,-18.96 7.27,-35.61l-29.13 -0.07z"/>
   <path class="fil3" d="M2514.51 669.42c-0.36,2.96 -0.78,6.22 -1.33,8.83 -0.51,2.43 -0.6,5.46 -1.29,8.22 -0.6,2.4 -0.89,4.62 -1.64,7 -6.21,19.85 -24.52,30.5 -39.52,41.51 2.27,-31.47 11.66,-42.41 -1.02,-43.78 -38.11,9.82 23.85,88.14 -33.83,95.72 10.08,39.3 1.18,7.36 -2.2,6.44 -16.28,-4.46 -13.36,-16.46 -20.81,-31.06l-2.69 63.54c27.69,-5.74 37.75,-4.85 49.28,-12.53l22.27 -49.65c19.39,-24.21 19.36,-30.06 15.21,-57.34 24.29,-0.01 44.52,2.07 61.52,14.09l-31.67 19.63c44.55,-1.17 77.5,-21.39 90.55,-36.41l-7.91 -16.67 -72.26 14.41 11.42 -21.36 -34.08 -10.59z"/>
   <path class="fil4" d="M1025.52 488.36c9.94,9.23 7.62,-3.88 13.86,22.88 26.66,-12.82 24.69,-5.1 45.12,-22.78 27.98,-24.22 18.32,-29.5 60.8,-39.55 19.19,-18.02 28.95,-19.96 49.23,-42.5l-32.03 -28.73c-6.24,-6.37 -1.19,-4.46 -13.51,-12.02 -9.36,2.99 -27.26,8.16 -34.85,14.45l-9.66 19.53c-7.15,21.79 -21.13,33.54 1.34,44.92 -31.84,13.28 1.51,0.36 -21.97,3.74l-25.49 50.07c-30.88,-11.04 -19.75,-10.32 -44.17,-31.5 7.52,25.81 -11.07,14.5 11.33,21.49z"/>
   <path class="fil3" d="M2362.76 446.26l1.22 -2.21c41.47,13.26 18.15,13.56 52.09,37.94 -14.07,-9.6 -12.04,-11.93 -21.3,-31.72l56.08 49.24 18.74 6.02c-3.49,28.86 -11.14,47.39 8.41,68.52l9.9 -36.47c11.3,3.7 0,8.63 20.4,3.84 31.55,-7.41 11.45,2.26 14.82,-13.39 -36.62,-33.83 0.91,-4.9 -21,-36.61l-26.37 -20.92c-9.49,-12.35 6.05,-6.36 -23.63,-19 -7.87,-3.34 -16.86,-3.86 -27.11,-8.12 -24.39,-10.13 -12,-12.38 -55.6,-24.43 1.45,1.88 9.74,14.86 11.77,16.67 2.24,22.09 5.69,15.32 -18.42,10.64z"/>
   <path class="fil2" d="M1864.11 648.13l3.79 14.39c0.08,1.26 0.16,3.37 0.14,4.73l-3.72 31.9 31.87 15.4c27.26,-12.13 22.59,8.45 65.55,4.32 18.66,-32.56 -6.13,-15.65 -12.25,-18.2 -26.03,-4.07 -12.48,2.74 -23,-16.77 12.54,-7.83 -21.72,-12.56 23.33,-6.05 -3,-15.05 2.66,-1.91 -3.89,-18.63 -17.96,-45.87 -21.17,-20.04 -30.17,-19.1l2.46 17.93c0.71,1.17 2.59,2.93 3.43,3.88l16.2 6.08c-27.47,5.94 -9.8,13.08 -36.76,-5.98 1.12,0.3 5.26,20.91 7.95,-7.23 2.43,-25.34 3.31,-6.39 -6.82,-17.78 -6.04,-16.04 -8.15,-23 -15.02,-34.49 -14.72,12.74 -1.01,5.47 -26.45,15.65 0.82,2.28 2.85,13.07 3.11,14.75l0.25 15.2z"/>
   <path class="fil2" d="M2135.44 298.53l13.92 25.81c4.1,-2.92 16.81,-1.5 18.29,-1.83 8.37,-1.87 9.12,-7.65 38,-9.37 7,10.12 10.82,15.68 17.6,28.18 39.59,24.02 15.24,3.28 24.15,27.7 4.97,13.61 29.23,28.95 37.38,33.94 14.2,-15.61 -16.73,-6.09 15.86,-15.97 -17.93,-23.12 -5.13,-21.01 -28.34,-42.59 -21.7,-22.71 -34.92,-20.4 -53.82,-36.54 -14.45,-12.33 -24.79,-29.39 -40.27,-45.68 -27.81,12.98 -27.97,14.31 -42.77,36.35z"/>
   <path class="fil1" d="M1940.34 965.6c49.81,-23.87 92.92,-46.39 158.9,-46.44 -5.84,-30.19 -12.05,-42.81 -30.16,-59.5 -24.26,8.36 -78.19,51.93 -102.31,72.53 -19.75,16.88 -23.59,11.64 -26.43,33.41z"/>
   <path class="fil5" d="M2609.47 564.92l4.17 -2.83c10.6,16.23 1.02,9.36 24.64,19.09l-36.46 15.09c19.17,35.25 -4.12,10.75 25.11,25.8 -24.12,6.51 -30.94,2.86 -46.7,-11.22 1.12,-19.5 -13.39,17.52 4.14,-6.72 0.02,-0.03 19.35,0.64 -6.97,-18.89 -9.52,18.07 -7.21,4.49 -19.99,22.96 -0.87,1.25 -1.81,3.26 -2.66,4.59l-23.17 32.39c17.46,-0.68 20.04,-7.03 34.04,-15.07 41.66,21.77 50.43,46.59 103.15,2.67l-20.51 -19.99c-1.16,-1.17 -3.21,-3.19 -4.72,-4.88 14.54,-13.21 8.79,-12.62 21.94,-26.24 -0.12,-0.07 9.25,-23.43 -18.8,7.26l-1.15 -28.99c-7.87,6.07 2.54,11.07 -36.06,4.98z"/>
   <path class="fil3" d="M2215.57 478.27c7.75,-22.03 0.38,-27.28 -2.9,-38.83 -8,-28.17 -6.56,-36.82 -42.37,-56.8 -11.56,6.25 -10.34,-4.33 -26.66,9.17 7.11,20.02 7.62,21.77 17.67,41.44 -41.72,-25.23 -10.8,-26.33 -50.36,-34.7 5.98,31.88 -8.32,7.38 17.84,29.42 56.74,47.8 20.01,34.27 54.16,52.79l16.75 -10.85c0.12,-0.77 0.38,-1.3 0.81,-1.8 0.08,21.91 -3.33,4.07 15.06,10.16z"/>
   <path class="fil0" d="M1902.22 637.02c10.13,11.39 9.25,-7.56 6.82,17.78 -2.69,28.14 -6.83,7.53 -7.95,7.23 26.96,19.06 9.29,11.92 36.76,5.98l-16.2 -6.08c-0.84,-0.95 -2.72,-2.71 -3.43,-3.88l-2.46 -17.93c9,-0.94 12.21,-26.77 30.17,19.1 6.55,16.72 0.89,3.58 3.89,18.63l1.08 23.71 19.28 -1.49c11.24,-22.22 -1.06,-16.97 18.57,-25.66l23.77 18.79c7.76,-13.33 -3.43,-5.89 11.09,-16.6l-17.5 -39.12 -13.47 -21.91c-11.05,-12.19 -3.78,-5.08 -20.16,-13.42 0.22,25.15 10.1,5.51 -5.64,19.34 -54.96,-24.44 -28.43,21.26 -64.62,15.53z"/>
   <path class="fil2" d="M2613.64 562.09l-4.17 2.83c0,-21.5 -5.23,-16.28 16.57,-14.7l-13.86 -14.66c12.47,-2.63 17.64,-11.19 23.77,-23.58l-41.56 -26.88c12,-12.61 -2.9,-2.41 22.31,-5.85l-58.34 -36.29c3.62,29.69 4,19.1 -3.77,43.78 1.14,1.4 3.32,1.58 3.7,3.95 1.77,11.27 7.4,-4.07 8.31,24.5 0.7,22.08 -2.19,20.91 6.36,44.53 22.11,6.75 16.03,5.1 40.68,2.37z"/>
   <path class="fil3" d="M2769.21 623.86c26.17,5.42 -17.5,22.32 56.84,-4.13 0.9,-0.33 2.99,-0.87 3.89,-1.26 62.19,-27.09 42.68,-41.17 41.87,-58.65 13.37,16.4 5.13,13.69 33.54,17.7 -1.01,-29.29 8.03,-18.81 -14.59,-37.96l-99.75 56.82c-12.82,13.04 -14.46,11.48 -21.8,27.48z"/>
   <path class="fil3" d="M2724.23 490.93c25.45,19.54 14.75,5.01 6.19,35.34 -23.39,-36.08 0.27,-12.12 -33.32,-24.34 13.64,23.11 30.62,30.51 31.78,35.64l72.77 -7.02c-9.39,-14.95 -0.58,-28.14 0.09,-34.53 2.34,-22.19 1.94,-13.62 -13.44,-24l-34.75 -7.15c-19.56,9.39 7.12,8.81 -25.75,0 6.67,45.03 3.22,14.9 -3.57,26.06z"/>
   <path class="fil4" d="M1335.54 569.82c12.72,33.81 2.03,11.87 15.53,22.98l-3.46 -2.13c6.32,-12.34 30.02,-5.05 47.35,1.42 34.23,12.79 -5.18,10.52 9.61,-9.91 22.86,18.91 36.41,32.01 75.11,35.92l-39.46 -57.51c-16.92,-20.45 -4.25,-8.65 -20.16,-15.85 -56.64,-1.35 -37.4,21.62 -84.52,25.08z"/>
   <path class="fil3" d="M2013.81 435.99c6.12,5.76 -9.36,11.32 39.5,11.29 -4.42,-7.27 -8.89,-20.14 -17.17,-28.96 -0.83,-0.88 -2.47,-2.53 -3.44,-3.44l-101.39 -73.1 -24.03 42.73 21.84 27.46c0.08,-0.01 85.09,-41.83 84.69,24.02z"/>
   <path class="fil3" d="M2665.13 459.08c14.16,-3.87 15.58,11.63 19.97,-12.35l0.86 30.08 21.99 5.58c-10.67,-29.63 -11.87,-16.41 -2.38,-38.52 7.74,-18.04 1.08,-2.24 11.1,-9.95 21.87,-16.83 -6.44,10.57 10.3,-6.06 1.23,-1.92 3.36,-6.86 4.05,-5.52 0.74,1.44 3.99,-3.91 7.8,-9.75l7.76 -14.15c0.49,-1.03 1.1,-3.45 1.56,-5.21l-13.89 -4.93c-1.93,-0.43 -10.9,-2.75 -13.56,-3 -28.34,-2.64 -8.59,-3.11 -35.82,5.16 -17.26,30.29 -19.06,12.24 -27.42,47.38 2.83,7.37 2.31,-3.55 7.68,21.24z"/>
   <path class="fil3" d="M1755.12 634.7c14.79,6.11 16.19,0.16 10.45,10.85 16.76,-7.17 22.94,-12.41 47.93,-16.79l15.93 42.27c0.19,0.44 0.5,2.09 0.75,2.49 6.81,11.04 17.9,2.7 32.31,40.19l16.45 11.3c24.27,-11.94 2.61,2.56 17.25,-10.46l-31.87 -15.4 3.72 -31.9c0.02,-1.36 -0.06,-3.47 -0.14,-4.73l-3.79 -14.39 -20.2 4.09c-0.04,-23.5 2.06,-22.76 -9.06,-32.1 -1.05,-0.88 -2.68,-2.42 -3.93,-3.3 -1.43,-1.01 -3.02,-2.68 -4.61,-3.65 -36.57,-22.2 -28.61,4.46 -49.24,6.66l-16.75 -8.89 -5.2 23.76z"/>
   <path class="fil4" d="M2685.78 668.85l30.87 21.12 49.29 -18.04c1.97,35.27 -5.93,13.95 23.73,22.6 0.74,-2.32 1.66,-10.16 1.59,-11.32 -0.05,-0.73 -0.16,-3.7 -0.24,-4.51l-1.16 -22.04 -27.48 -4.93 6.83 -27.87c-28.77,5.11 -17.29,3 -42.23,17.03 -10.02,5.65 -12.05,4.88 -20.29,9.14 -23.97,12.43 -9.1,0.03 -20.91,18.82z"/>
   <path class="fil2" d="M1565.97 765.64c11.74,-8.75 13.24,18.62 7.68,-19.26 -18.13,-9.5 -18.73,-18.4 -41.43,-24.41 -64.64,-17.12 -0.69,19.57 -48.26,-1.81l-13.36 8.33c0.05,0.13 0.56,1.75 0.6,1.87 0.01,0.06 -0.87,-0.38 -0.91,-0.08l-36.37 -11.86c23.45,26.51 14.63,37.48 61.49,36.83l70.56 10.39z"/>
   <path class="fil3" d="M1370.2 363.96l17.16 -5.22c-17.05,7.78 -1.85,-2.41 -18.83,11.73l-4.78 25.12c1.58,0.72 11.69,6.49 13.75,7.78 -3.57,-45.3 16.67,-9.58 29.27,-0.11 15.52,11.68 21.18,-0.71 45.43,10.42 -4.16,-24.07 -11.71,-21.83 3.53,-21.83 -0.06,0.05 1.89,20.66 -15.56,-4.72 -1.2,-1.74 -3.89,-9.79 -5.13,-11.79 -6.23,-10.1 -3.62,-5.95 -10.05,-13.06 -25.95,-28.71 2.08,-19.88 -26.6,-29.49 -26.85,9.44 -20.55,5.07 -41.19,21.35 24.6,-5.35 5.27,0.25 13,9.82z"/>
   <path class="fil4" d="M2836.24 638.79c-42.34,8.49 -14.06,1.82 -27.39,15.9 0.04,0.05 -4.51,20.99 25.51,13.42 26.89,-6.78 2.72,5.49 16.05,-18.19l13.17 3.89 18.62 0.97c-1.5,-1.03 1.61,-19.03 -12.82,-3.88 -17.77,18.66 -6.37,-0.93 -11.63,32.96 2.27,-0.86 15.91,-6.46 17.81,-6.98 2,-0.54 5.08,-1.76 7.33,-2.26 22.41,-4.99 23.82,0.98 40.51,1.98 0.96,-2.24 9.16,-16.55 -2.29,-32.54 -15.09,-21.09 4.27,3.97 -14.28,-11.09 -12.59,-10.22 2.09,6.55 -15.5,-13.14 -1.31,1.13 -2.56,3.17 -3.3,4l-6.89 8.51c-0.08,0.07 -2.93,19.2 -44.9,6.45z"/>
   <path class="fil0" d="M1151.35 518.06c21.31,13.57 12.76,0.87 20.26,18.04l16.59 33.67 25.97 -23.15 10.27 -1.31c-0.75,-48.18 -14.44,2.94 -1.69,-42.61 -15.25,-8.21 -21.44,-9.64 -34.71,-19.79 -29.36,7.58 -4.16,-16.35 -21.8,14.04 12.89,4.84 15.86,6.16 22.68,6.77l-36.93 -8.36c-7.29,13.63 -1,4.02 -0.64,22.7z"/>
   <path class="fil3" d="M1334.62 693.14l2.06 -16.6c16.24,-3.06 13.07,1.11 22.52,-14.55 -1.98,-1.29 -4.84,-5.59 -5.94,-3.86l-16.59 -9.53c-71.54,-33.77 -16.12,31.64 -69.99,-9.07 10.22,-5.7 9.55,-4.7 20.14,-20.05 -21.62,-17.53 -3.76,-1.69 -6.34,-8.57 -0.29,-0.77 -0.29,-4.61 -0.38,-6.91 -0.06,-1.64 0.45,-2.58 0.18,-3.83 -17.78,5.85 -6.72,-2.67 -17.94,10.71 -2.36,-0.6 -21.76,-8.24 -32.63,-11.27l6.52 12.99c2.78,5.22 -0.19,-1.14 0.23,-3.14l-22.83 -8.9c15.66,29.19 11.7,12.45 34.07,28.09 12.36,8.64 17.06,23.29 30.13,30.5 21.06,11.62 20.92,-2.3 35.18,7.93 15.53,11.14 5.78,11.93 21.61,26.06z"/>
   <path class="fil0" d="M1329.23 405.1c-13.39,6.65 12.04,15.06 -28.97,1.43l5.7 16.64c30.02,42.47 54.97,25.23 98.3,34.67 -12.13,-27.37 -15.86,-16.7 -3.67,-23.36 -7.69,-23.35 -15.3,-10.67 -23.09,-31.11 -6.78,21.21 4.33,3.03 -9.16,11.93l-39.11 -10.2z"/>
   <path class="fil0" d="M2284.78 402.96c13.5,10.52 19.85,14.9 33.63,23.76 5.51,3.53 11.45,7.83 18.01,11.21 16.01,8.25 -4.4,5.45 26.34,8.33 24.11,4.68 20.66,11.45 18.42,-10.64 -2.03,-1.81 -10.32,-14.79 -11.77,-16.67 -34.53,-14.46 -67.76,-50.15 -97.11,-74.55 23.21,21.58 10.41,19.47 28.34,42.59 -32.59,9.88 -1.66,0.36 -15.86,15.97z"/>
   <path class="fil4" d="M2244.37 815.3l65.68 4.28c0.54,-1.5 1.2,-5.62 1.4,-4.57 0.18,0.99 1.17,-3.62 1.43,-4.33 0.24,-0.68 1.14,-3.28 1.44,-4.09 0.29,-0.79 1.07,-3.09 1.39,-3.92 0.3,-0.79 1.12,-2.86 1.43,-3.64 0.31,-0.77 1.22,-2.77 1.54,-3.5l5.81 -12.35c4.61,-16.3 5.15,2.17 0.16,-14.71l-50.71 -13.9c-5.76,21.81 14.52,5.52 -11.04,32.14l-4.97 4.71c-4.35,4.74 -12.09,8.01 -13.56,23.88z"/>
   <path class="fil0" d="M2450.85 499.51l-56.08 -49.24c9.26,19.79 7.23,22.12 21.3,31.72 -33.94,-24.38 -10.62,-24.68 -52.09,-37.94 -1.06,1.61 -3.17,1.78 -3.73,4.46 -2.44,11.74 -31.69,20.23 -4.95,37.98l11.89 -1.72c13.48,2.37 24.7,17.25 55.59,20.86 49.41,5.76 10.1,6.77 28.07,-6.12z"/>
   <path class="fil3" d="M1134.43 565.41l66.48 29.02c25.01,-8.5 4.2,5.86 17.2,-12.54l-3.94 -35.27 -25.97 23.15 -16.59 -33.67c-7.5,-17.17 1.05,-4.47 -20.26,-18.04l-6.9 9.02c-0.27,0.76 -2.61,-0.5 3.5,5.71 -16.02,18.19 -17.6,-1.88 -13.52,32.62z"/>
   <path class="fil2" d="M2233.67 706.91l32.54 0.51c4.03,14.36 -0.74,6.81 8.99,20.43l13.13 0.95c26.13,-18.82 23.63,-7.06 37.5,-15.69 -2.82,-23.82 9.35,-0.22 -5.41,-15.73l-21.34 -13.48c2.18,-18.89 2.33,-14.31 2.02,-23.71l-12.68 30.83c-11.5,9.12 -8.97,11.62 -26.71,10.21 -12.57,-36.15 -3.63,-7.17 4.52,-17.68l-7.34 -28.83c-24.57,14.13 -16.69,12.19 -42.02,17.76 37.17,39.07 27.5,6.93 27.51,6.9 1.69,17.22 -0.98,17.64 -10.71,27.53z"/>
   <path class="fil2" d="M1398.39 332.79c28.68,9.61 0.65,0.78 26.6,29.49 6.43,7.11 3.82,2.96 10.05,13.06 1.24,2 3.93,10.05 5.13,11.79 17.45,25.38 15.5,4.77 15.56,4.72 -15.24,0 -7.69,-2.24 -3.53,21.83l4.53 27.94 26.88 6.43 -12.12 -3.94c17.65,-38.1 2.18,-14.34 0.93,-44.86l4.28 -16.42c0.22,-0.72 1.05,-2.29 1.22,-4.3 0.18,-2.09 0.95,-3 0.96,-4.55l-38.87 -24.42c-13.1,-7.46 -26.38,-17.21 -39.35,-23.96l-2.27 7.19z"/>
   <path class="fil3" d="M1655.26 705.15c18.86,-1.31 17.83,5.74 42.87,13.12 31.6,-9.79 1.53,-13 55.78,-12.56 -7.4,-16.11 6.07,-8.99 -21.71,-21.54 -18.59,-8.39 -47.72,-17.39 -72.05,-14.37 -1.3,13.21 -8.62,-14.44 1.98,6.13l-6.87 29.22z"/>
   <path class="fil3" d="M1893.22 496.44l22.22 -14.46c0.96,-2.93 2.95,-3.3 4.44,-4.94 4.9,7.12 18.67,24.3 19.92,26.39 7,-43.76 -45.74,-44.75 -31.04,-58.11 -13.74,-13.81 -45.72,-12.22 -66.02,-16.77 18.7,66.55 -6.26,13.73 31.35,35.46 9.74,5.63 13.99,19.04 19.13,32.43z"/>
   <path class="fil2" d="M2308.7 582.97c20.96,7.53 50.3,10.32 75.35,3.71 27.42,-7.24 12.42,-4.27 20.84,-13.2 -10.72,-12.29 -22.21,-19.71 -35.15,-34.48 -66.04,47.09 -46.08,9.64 -61.04,43.97z"/>
   <path class="fil2" d="M2207.74 399.11c24.17,42.85 32.1,23.31 80.36,34.42 -16.96,-28.25 -30.93,-41.07 -58.38,-61.89 -6.66,13 0.29,12.21 -13.15,22.22l-8.83 5.25z"/>
   <path class="fil4" d="M1377.5 403.37c7.79,20.44 15.4,7.76 23.09,31.11l27.62 -13.88c1.27,-0.8 3.36,-2.52 5.07,-3.73 4.25,33.72 -2.08,35.11 29.18,41.12l-5.73 -16.37 -4.53 -27.94c-24.25,-11.13 -29.91,1.26 -45.43,-10.42 -12.6,-9.47 -32.84,-45.19 -29.27,0.11z"/>
   <path class="fil3" d="M1348.92 700.47c-2.02,23.68 2.68,2.41 -9.24,11.77 16.65,21.82 42.32,31.45 69.42,15.47 8.49,-15.47 2.14,-42.93 -2.18,-72.47 -15.82,8.87 -16.66,-34.63 -13.38,27.42 0.38,7.34 8.72,34.27 10.99,42.51 -35.9,-10.6 -31.06,-12.09 -55.61,-24.7z"/>
   <path class="fil4" d="M1742.25 871.98c63.44,21.57 89.17,-29.62 27.43,-46.43l-14.27 20.57c-8.54,20.14 4.26,7.27 -13.16,25.86z"/>
   <path class="fil2" d="M1812.48 482.63c-12.32,-25.92 -27.68,-31.24 -29.29,-39.14 -0.54,-2.66 -2.04,-3.35 -3.07,-5.02 -7.62,26.07 5.24,6.76 -12.09,24.8 -3.55,3.7 12.4,-16.87 -8.72,6.63 -22.93,25.5 2.3,-19.89 -3.53,9.26 17.84,21.33 2.37,9.29 27.2,16.07l37.78 13.45 -8.28 -26.05z"/>
   <path class="fil3" d="M1950.9 701.56l-1.41 -0.89c6.12,2.55 30.91,-14.36 12.25,18.2l19.74 11.84c18.11,-0.4 26.87,3.99 32.89,-7.12 -3.95,-21.91 -8.71,-7.02 -1.85,-30.39l-23.77 -18.79c-19.63,8.69 -7.33,3.44 -18.57,25.66l-19.28 1.49z"/>
   <path class="fil2" d="M2836.24 638.79c41.97,12.75 44.82,-6.38 44.9,-6.45l6.89 -8.51c0.74,-0.83 1.99,-2.87 3.3,-4 18.79,-5.41 24.46,-2.64 22.1,-27.96 -14.85,7.33 15.83,2.29 -12.92,3.54 -5.22,0.23 -18.88,-0.68 -23.88,-0.98l2.99 25.12c-28.36,-10.06 -13.65,-11.43 -41.18,0.7l-2.2 18.54z"/>
   <path class="fil3" d="M1618.27 604.5l27.31 4.25c9.54,20.97 5.41,26.94 34.24,22.87 -15.12,-35.78 1.01,-6.52 -31.1,-30.72 -21.49,-16.19 -9.07,-11.88 -32.38,-30.03 -16.1,7.56 -0.02,6.78 -24.07,1.82 9.3,31.07 1.59,42.44 26,31.81z"/>
   <path class="fil2" d="M2752.38 596.06l-6.58 -31.1c-6.97,16.2 -2.5,0.91 -12.39,9.52 -2.51,-14.57 6.75,-13.81 -26.99,-35.08l-16.62 -8.81c6.23,48.34 -1.1,37.78 41.23,51.64 -5.17,10.03 -9.91,10.24 -4.76,21.87l26.11 -8.04z"/>
   <path class="fil3" d="M2760.3 395.68l-4.4 32.64c0.85,0.26 2.49,-0.89 2.64,0.08 2.73,17.17 -1.24,-23.52 6.33,3.18 2.35,8.29 -2.17,19.72 -4.5,29.19 33.53,-18.77 11.61,-20.63 37.47,-3.85 2.86,-22.2 5.05,-7.07 -1.42,-25.73l-7.69 -13.53c-9.09,-21.67 4.22,-9.37 -7.01,-19.24 -26.6,-23.38 -21.1,-2.83 -21.42,-2.74z"/>
   <path class="fil0" d="M1206.45 684.62l26.37 -17.49c-13.26,-10.23 -0.44,7.65 -14.96,-16.31 -19.07,-9.88 -24.56,-15.55 -38.48,-8.6l14.64 17.5c1.02,1.31 4.44,5.83 6.08,7.63l-45.07 -23.72c15.83,43.38 13.49,23.4 51.42,40.99z"/>
   <path class="fil0" d="M1881.71 369.43l-8.35 11.84c-15.1,-7.12 -9.53,-3.72 -18.58,-15.6l-6.33 9.41 -21.19 22.34 23.69 26.1 19.08 -25.03c9.97,-7.85 7.42,0.95 24.66,-6.68 -5.33,-18.47 2.01,-7.92 -12.98,-22.38z"/>
   <path class="fil4" d="M2707.95 482.39l7.85 -24.36c1.63,27.03 -1.53,15.58 8.43,32.9 6.79,-11.16 10.24,18.97 3.57,-26.06 32.87,8.81 6.19,9.39 25.75,0 -9.96,-22.28 -11.84,-19.73 -26.58,-37.01 -16.74,16.63 11.57,-10.77 -10.3,6.06 -10.02,7.71 -3.36,-8.09 -11.1,9.95 -9.49,22.11 -8.29,8.89 2.38,38.52z"/>
   <path class="fil3" d="M1796.76 429.17c18.62,-33.48 17.19,-24.68 31.86,-65.47l-55.89 30.62c3.42,28.41 5.85,-2.37 5.03,25.27l19 9.58z"/>
   <path class="fil4" d="M2160.03 844.41l22.86 0.4c4.21,0.47 12.39,27.13 32.18,-14.87 -6.85,-9.44 4.22,-7.14 -15.32,-13.3l-35.88 -2.9 -3.84 30.67z"/>
   <path class="fil3" d="M1206.45 684.62c6.62,0.93 29.73,5.76 31.4,5.75 6.19,-0.04 9.59,-0.65 15.38,-2.95 11.37,-4.51 11.74,-7.23 16.15,-10.26 -30,-29.46 -7.63,-17.47 -51.01,-36.92l-0.51 10.58c14.52,23.96 1.7,6.08 14.96,16.31l-26.37 17.49z"/>
   <path class="fil2" d="M2402.29 662.03c26.88,30.93 27.96,26.16 53.76,36.44l-13.53 -38.14 -7.4 -22.79 -32.83 24.49z"/>
   <path class="fil5" d="M1370.2 363.96c-24.06,10.37 -32.53,16.95 -51.67,31.12 17.34,-4.32 13.74,-7.62 10.7,10.02l39.11 10.2c13.49,-8.9 2.38,9.28 9.16,-11.93 -2.06,-1.29 -12.17,-7.06 -13.75,-7.78l4.78 -25.12c16.98,-14.14 1.78,-3.95 18.83,-11.73l-17.16 5.22z"/>
   <path class="fil3" d="M2923.4 676.6c-16.69,-1 -18.1,-6.97 -40.51,-1.98 -2.25,0.5 -5.33,1.72 -7.33,2.26 -1.9,0.52 -15.54,6.12 -17.81,6.98 5.26,-33.89 -6.14,-14.3 11.63,-32.96 14.43,-15.15 11.32,2.85 12.82,3.88l-18.62 -0.97c-18.63,-11.53 -11.36,11.74 -12.29,36.29l53.71 11.03 18.4 -24.53z"/>
   <path class="fil0" d="M928.77 556.34c-9.61,-15.47 -4.77,-1.07 -5.51,-25.79 1.4,-1.17 3.5,-4.91 4.16,-3.54l8.66 -6.31c0.93,-0.59 3.67,-2.12 4.51,-2.64 0.84,-0.52 3.08,-1.57 4.58,-2.42 -23.11,-11.22 -17.3,-1.13 -20.27,-29.73 -3.55,1.66 -15.49,5.63 -18.23,7.96 1,32.5 12.48,49.69 12.5,49.65 0.78,-1.34 2.42,5.88 3.42,8.9 -49.31,-13.08 -30.16,-9.31 -36.47,-17.46 -1.24,2.93 -6.12,11.8 -8.24,27.85 0.11,-0.26 -8.66,-37.08 31.3,4.39 10.74,-15.33 -4.4,-9.83 19.59,-10.86z"/>
   <path class="fil3" d="M1424.53 516.09l30.47 0.15 17.31 20.14 1.07 -23.23c-11.33,-6.21 -16.5,-10.53 -27.61,-17.1 -23.75,-14.05 -5.56,-8.33 -38.06,-7.25 11.16,29.07 -7.82,7.51 16.82,27.29z"/>
   <path class="fil0" d="M2356.65 737.43l25.73 0.77 39.76 -27.63c-67.6,-6.06 -4.79,-13.31 -67.99,5.46l2.5 21.4z"/>
   <path class="fil3" d="M1037.57 648.27c-15.08,-28.29 -4.1,-17.81 -40.06,-19.26 14.62,35.55 -14.1,13.29 25.48,25.64 -40.25,-16.16 -21.66,5.08 -26.17,8.71 54.74,-1.13 38.64,-9.64 40.75,-15.09z"/>
   <path class="fil3" d="M1910.23 770.84l-8.67 33.77c29.51,-14.8 24.2,-4.2 18.34,-48.15 27.71,3.07 8.39,-1.43 32.3,6.5 25.86,-11.81 -4.48,11.46 13.81,-19.1l-52.52 6.12 -3.26 20.86z"/>
   <path class="fil3" d="M1837.59 365.66c3.92,17.99 -3.07,2.75 10.86,9.42l6.33 -9.41c9.05,11.88 3.48,8.48 18.58,15.6l8.35 -11.84 -1.75 -33.04c-20.09,10.03 -33.44,12.12 -42.37,29.27z"/>
   <path class="fil4" d="M1050.51 680.46c21.96,1.9 18.18,7.39 22.83,-20.08 0.21,-1.28 0.83,-3.5 0.95,-4.82 2.49,-25.94 4.76,-12.84 -5.62,-24.61 -9.33,3.21 -24.97,-5.7 -18.16,49.51z"/>
   <path class="fil0" d="M1091.33 635.01c19.3,5.17 23.67,11.51 50.36,13.62 11.66,-9.94 3.52,0.69 8.52,-12.85 -14,-10.11 -34.13,-25.54 -51.42,-9.53l-7.46 8.76z"/>
   <path class="fil4" d="M1400.42 819.06c36.8,-3.84 22.88,10.84 35.48,-28.84 -33,-8.96 -44.51,-9.45 -35.48,28.84z"/>
   <path class="fil3" d="M2200.92 629.49c18.34,2.52 16.23,2.59 35.85,3.44l5.38 -38.78c-9.8,16.04 -8.56,13.29 -24.86,2.47 -7.1,7.38 -4.94,0.98 -10.74,13.74 -6.18,13.58 -1.44,3.52 -5.63,19.13z"/>
   <path class="fil2" d="M2665.13 459.08c-16.68,14.21 -20.92,21.32 -16.06,41.43 2.63,0.95 -8.16,15.3 24.76,1.66l8.59 -8.17c-0.33,-1.86 -0.99,-6.7 -1.52,-5.48l-15.04 -15.75c-1.1,-0.79 -3.78,-1.62 -5.5,-2.72l4.77 -10.97z"/>
   <polygon class="fil3" points="1696.7,493.52 1740.44,479.47 1687.96,457.32 "/>
   <path class="fil0" d="M2419.49 613.56c1.07,-1.71 2.89,-6.14 3.33,-5.03 0.43,1.08 2.58,-3.75 3.11,-5.01 8.77,-20.6 9.38,-28.57 0.95,-45.92 -19.16,9.56 -13.79,-16.59 -13.82,22.15 0,1.36 5.82,29.44 6.43,33.81z"/>
   <path class="fil4" d="M2745.8 564.96l6.58 31.1c13.73,-5.16 20.61,-9.36 32.42,-15.61l-20.26 -19.55c-13.76,6.21 8.99,3.72 -18.74,4.06z"/>
   <path class="fil3" d="M1612.73 862.55c-5.5,-17.62 4.72,-8.41 -11.3,-24.53 -14.75,-14.83 -12.84,-7.92 -25.59,-15.34 12.4,42.23 1.83,25.42 36.89,39.87z"/>
   <path class="fil3" d="M2358.53 800.73c9.44,19.43 1.89,10.18 17.24,19.51 11.94,-17.97 8.55,-14.52 4.86,-38.11 -24.61,17.7 -7.07,-6.99 -22.1,18.6z"/>
   <path class="fil3" d="M1228.2 766.84c28.52,11.27 20.26,11.88 34.19,-14.91 -22.53,-1.32 -31,-7.25 -34.19,14.91z"/>
   <path class="fil0" d="M1972.91 450.01l-25.72 0.68c20.51,25.22 12.11,30.16 37.75,25.34 -13.07,-20.31 -7.13,-3.24 -12.03,-26.02z"/>
   <path class="fil3" d="M1944.94 864.01c4.1,-9.55 19.12,9.85 2.42,-20.65 -9.93,-18.14 -15.39,-13.43 -19.96,-16.89 4.65,31.15 -3.6,20.77 17.54,37.54z"/>
   <path class="fil5" d="M1949.49 700.67l1.41 0.89 -1.08 -23.71c-45.05,-6.51 -10.79,-1.78 -23.33,6.05 10.52,19.51 -3.03,12.7 23,16.77z"/>
   <path class="fil4" d="M1519.46 607.53c-8.48,-24.61 -7.48,-25.13 -35.57,-30.88 8.13,16.03 0.75,7.75 15.11,20.11 21.84,18.78 9.92,7.55 20.46,10.77z"/>
   <path class="fil5" d="M1737.42 547.18l-4.21 -20.61 -22.06 2.95c-8.23,2.83 -10.5,0.45 -13.1,1.03 21.48,14.19 14.24,10.8 39.37,16.63z"/>
   <path class="fil5" d="M2288.42 691.02l-22.19 -7.47c-8.15,10.51 -17.09,-18.47 -4.52,17.68 17.74,1.41 15.21,-1.09 26.71,-10.21z"/>
   <path class="fil5" d="M2686.7 628.1c25.35,-9.46 22.63,-0.99 19.81,-26.04l-19.81 26.04z"/>
  </g>
 </g>
</svg>
