<?xml version="1.0" encoding="UTF-8"?>
<!DOCTYPE svg PUBLIC "-//W3C//DTD SVG 1.1//EN" "http://www.w3.org/Graphics/SVG/1.1/DTD/svg11.dtd">
<!-- Creator: CorelDRAW 2019 (64 Bit) -->
<svg xmlns="http://www.w3.org/2000/svg" xml:space="preserve" width="21.1666mm" height="12.6998mm" version="1.1" style="shape-rendering:geometricPrecision; text-rendering:geometricPrecision; image-rendering:optimizeQuality; fill-rule:evenodd; clip-rule:evenodd"
viewBox="0 0 2116.66 1269.98"
 xmlns:xlink="http://www.w3.org/1999/xlink">
 <defs>
  <style type="text/css">
   <![CDATA[
    .fil5 {fill:#350A02}
    .fil4 {fill:#472D24}
    .fil3 {fill:#764927}
    .fil2 {fill:#9C6C42}
    .fil0 {fill:#D78A38}
    .fil1 {fill:#FCFCFC}
   ]]>
  </style>
 </defs>
 <g id="Camada_x0020_1">
  <metadata id="CorelCorpID_0Corel-Layer"/>
  <g id="_1719538777200">
   <path class="fil0" d="M857.17 130.1l30.7 12.97 -25.59 8.22 -5.11 -21.19zm-411.79 35.14l6.35 7.23 -8.46 17.81 -0.91 2.16c31.05,11.99 45.73,-7.47 84.38,3.87 22.66,6.64 44.76,24.5 55.62,40.84 25.38,11.38 12.29,4.37 29.84,21.61 12.09,8.73 27.11,14.35 41.15,20.53 6.97,-5.48 4.22,6.97 5.4,-6.89l-8.36 -4.29c-9.27,-8.27 -3.56,-8.73 -12.65,-15.25 -8.35,-5.99 -8.27,2.16 -20.59,-4.64 -7.65,-4.22 -10.4,-12.8 -17.63,-17.85 -13.09,-9.16 -10.78,0.64 -19.94,-16.44l-7.45 -3.59 -38.9 -16.98c-34.47,-20.57 -18.46,12.26 -34.19,-26.74 -10.07,4.27 -23.72,-0.36 -27.52,-4.14 -10.03,-9.98 0.92,8.21 -3.57,-4.82 -3.7,-10.74 -5.36,1.35 1.55,-9.39 -13.11,-4.09 -2.23,2.53 -6.63,-12.57 14.29,12.39 7.77,11.97 25.84,18.43l14.92 -29.3c13.74,-1.98 -5.77,5.58 12.86,-2.19 -13.15,-6.66 -4.97,-13.54 -0.78,-26.29l5.65 -11.43c4.44,-3.68 14.92,-6.71 20.39,-8.45 7.21,4.42 4.26,3.3 7.91,7.03l18.75 16.81c-11.87,13.19 -17.59,14.32 -28.82,24.87l17.05 0.04c-4.63,9.75 -5.45,-0.9 -4.25,20.84 13.4,-4.4 5.84,-1.08 10.44,-3.28 15.5,-9.98 5.71,-59.97 61.72,-50.88 9.48,1.54 7.51,2.07 16.42,1.78 11.2,-8.29 16.16,-12.14 30.24,-18.21 -4.52,-5.6 6.79,-8.88 -7.61,-5.75 12.08,-9.52 8.39,-6.97 24.1,-12.49l1.33 -4.21c7.59,3.95 15.36,9.66 23.03,14.02l22.74 14.29c0,0.91 -0.45,1.44 -0.55,2.67 -0.1,1.17 -0.59,2.09 -0.72,2.51l-2.5 9.61c0.73,17.86 9.78,3.96 -0.55,26.26l7.1 2.3c9.26,8.87 0.33,1.68 9.19,8.27 47.87,-19.95 43.77,-11.64 72.96,6.06 32.81,19.88 18.81,23.28 42.5,25.42 -12.53,13.06 0.44,8.2 -18.79,10.62 -9.65,1.21 -34.97,-14.38 -40.67,-19.34 3.11,16.43 2.95,4.31 15.44,27.15l37.27 4.99c20.52,4.38 8.25,18.56 35.29,11.95l-4.66 -17.11c-14.71,-3.41 -10.47,-1.43 -23.04,-9.73 1.52,-0.34 2.85,1.05 7.66,-0.6l12.91 -1.73 12.8 -8.96 39.4 31c8.57,-0.64 4.16,-4.85 16.68,-10.1 10.46,5.92 23.51,10.19 34.88,14.33l37.21 6.01c0.42,-0.07 1.67,-0.31 2.08,-0.43 10.81,-3.21 19.6,-15.54 20.56,-16.59l11.96 -8.66c-15.4,-6.78 -50.68,-35.59 -59.1,-51.25l-13.73 -2.9c-8.6,7.82 22.26,8.4 18.16,34.01 -0.73,-1.22 -8.79,-11.28 -11.66,-15.45 -0.87,0.96 -2.03,1.18 -2.6,2.9l-13 8.46c2.6,14.88 1.74,3.23 -3.92,6.54 -10.31,-6.49 -32.02,-13.4 -43.33,-14.62l4.85 15.24 -22.11 -7.87c-14.53,-3.97 -5.48,3.08 -15.92,-9.4 3.41,-17.06 -11.35,9.5 2.07,-5.43 12.36,-13.75 3.02,-1.71 5.1,-3.87 10.14,-10.56 2.62,0.74 7.08,-14.52 11.52,-1.65 7.25,7.85 9.73,-5.44l-11.11 -5.61c0.47,-16.17 -0.95,1.84 -2.95,-14.78l32.71 -17.92 5.25 1.14c5.22,-10.03 13.04,-11.26 24.79,-17.12 0.33,-17.64 -3.3,-7.91 -0.43,-18.04 17.81,4.27 12.11,10.83 30.49,21.19l59.33 42.78c0.57,0.53 1.52,1.49 2.01,2.01 4.85,5.16 7.46,12.7 10.05,16.95 -28.6,0.02 -19.54,-3.24 -23.12,-6.61 -12.56,-5.03 -5.35,-0.03 -14.04,-2.68 -8.45,-2.58 -12.31,-6.32 -17.72,-9.81l-1.26 7.9c20.15,14.19 5.14,0.7 9.09,12.8l16.95 2.02c6.4,8.63 3.12,10.32 13.68,18.86l38.46 -22.11 10.6 8.06c27.87,5.54 49.21,16.67 66.77,37.95 13.01,-0.74 4.42,5.26 11.03,-5.93 -4.44,16.04 -0.59,14.42 -1.89,24.28 -1.87,14.17 -13.46,21.91 -13.5,21.95l0.91 0.71c9.54,6.34 8.82,7.95 14.55,-1.44l-3.15 22.69c-11.48,-0.49 -10.24,-0.53 -20.98,-2.01 -4.57,9.47 -2.31,2.48 -0.08,8.06 7.99,20.02 2.71,-4.53 4.1,6.75 0.8,6.58 -5.82,12.22 -8.07,21.67l16.63 -0.34c0.84,1.17 2.46,1.4 2.71,3.13l3.88 6.04c5.69,-5.79 7.25,-6.04 6.26,-16.11 0,0.01 5.66,18.82 -16.09,-4.04 14.82,-3.26 10.21,-2.13 24.59,-10.39l4.29 16.86 12.99 4.38 7.42 -18.05c-10.99,-14.54 -13.39,-33.07 -12.27,-52.3 -5.11,-9.45 -2.51,13.66 0.06,-5.74 1.96,-14.77 4.21,-7.9 -9.52,-28.39 2.27,-7.34 -0.15,-0.86 9.94,-10.8 -14.28,-16.07 -12.52,-22.43 -21.14,-34.55l-3.73 28.41c-19.23,4.02 -8.18,5.83 -13.4,-3.09 -10.76,-3.56 -8.76,6.88 -8.81,-5.94 -0.25,0.29 -0.4,0.6 -0.47,1.05l-9.8 6.35c-19.99,-10.84 1.5,-2.92 -31.7,-30.89 -15.31,-12.9 -6.94,1.44 -10.44,-17.22 23.15,4.9 5.06,5.54 29.47,20.31 -5.88,-11.51 -6.18,-12.53 -10.34,-24.25 9.55,-7.9 8.84,-1.71 15.6,-5.37 3.61,-16.5 1.37,-9.98 12.67,-12.5 14.74,-3.28 13.4,5.3 18.32,-11.68 -3.97,-7.31 -6.2,-10.57 -10.3,-16.49 -16.9,1 -17.34,4.39 -22.24,5.48 -0.87,0.2 -8.3,-0.63 -10.7,1.07l-8.15 -15.1c-15.78,11.09 -20.65,22.54 -34.56,32.91 -18.28,-1.54 -14.47,-6.51 -30.34,-12.78 -18.4,-7.27 -13.02,1.12 -30.59,8.06 -5.15,-4.82 -43.86,-31.05 -50.18,-34.49 -18.89,9.98 -28.34,21.02 -45.96,32.06 -20.49,12.83 -33.88,15.07 -59.11,22.21 -30.14,8.53 -31.97,20.49 -57.8,7.09 -18.88,-9.8 -39.54,-13.57 -58.77,-22.67 -65.41,-30.94 -41.12,-43.98 -106.68,-7.16 -80.4,45.15 -63.82,-1.76 -117.45,-5.74 -30.67,37.94 -18.53,16.86 -35.37,32.02l-46.84 76.55z"/>
   <path class="fil1" d="M1294.89 481.82c30.05,-31.44 111.69,41.27 61.53,99.85 -12.82,14.97 -63.62,30.6 -65.51,-6.64 -1.01,-20.01 -6.9,-81.83 3.98,-93.21zm-84.77 -18.51c28.92,13.79 35.3,-5.74 35.49,42.7 0.1,24.12 1.63,184.59 -3.21,196.62 -5.15,12.81 1.49,4 -22.84,16.93 -0.79,0.42 -2.29,1.04 -3.21,1.87l111.81 0.11c-5.26,-6.7 -24.77,-9.18 -30.21,-10.46 -8.05,-23.25 -8.02,-65.72 -5.95,-95.61 69.19,-10.69 48.41,42.25 114.92,93.92 26.23,20.39 161.63,12.57 205.44,12.36 -33.88,-26.47 -37.69,28.65 -37.64,-100.09l2.37 -148.1 27.03 -10.21c-11.69,-7.15 -98.78,-6.12 -108.42,0.6 22.89,9.58 29.66,-1.61 29.66,33.78l-0.71 192.51c-1.8,15.59 -3.63,16.5 -10.1,20.89 -52.52,32.13 -124.07,-87.33 -146.65,-110.84 17.67,-22.71 56.75,-44.35 45.23,-93.29 -17.49,-74.28 -202.91,-43.76 -203.01,-43.69z"/>
   <path class="fil1" d="M1778.87 433.5c160.67,-56.22 204.69,231.98 87.58,269.36 -109.82,35.05 -177.96,-95.29 -147.66,-203.13 9.99,-35.56 28.06,-55.03 60.08,-66.23zm11.64 -22.53c-214.86,37.08 -159.13,359.91 67.27,313.22 197.42,-40.71 172.63,-354.63 -67.27,-313.22z"/>
   <path class="fil1" d="M247 720.57l86.44 1.05 -26.72 -14.5c-2.36,-22.53 12.07,-127.39 17.45,-152.64 21.3,24.87 65.51,151.6 93.66,166.17 17.68,-19.95 32.05,-55.87 45.47,-83.45 10.14,-20.83 31.72,-69.11 44.27,-83.6 7.06,15.3 25.44,143.71 16.87,166.38l84.5 -1.96c-4.76,-2 -5.72,-2.18 -10.25,-3.94 -30.28,-11.73 -26.79,-47.26 -36.47,-113.11l-16.83 -111.6c-2.62,-19.29 -0.27,-24.9 -12.18,-34.8 -15.47,7.6 -46.13,82.28 -54.99,99.33 -15.05,28.98 -34.3,76.66 -51.03,100.78 -15.61,-28.33 -89.77,-191.62 -107.65,-200.16 -18.67,22.22 -35.51,229.1 -46.31,249.11 -5.82,10.78 -0.31,3.94 -11.08,9.77l-12.13 5.58c-0.69,0.34 -2.14,0.88 -3.02,1.59z"/>
   <path class="fil1" d="M1132.58 1040.44c-9.12,-69.54 10.85,-128.99 75.66,-133.82 63.58,-4.74 104.84,42.9 111.44,99.79 21.31,183.61 -169.79,166.02 -187.1,34.03zm240.34 0c18.41,-86.5 -47.9,-145.42 -125.9,-151.46 -89.76,-6.96 -159.95,39.1 -168.66,117.08 -20.31,181.84 255.46,218.13 294.56,34.38z"/>
   <path class="fil1" d="M997.61 476.77c60.62,-18.42 111.24,31.03 122.62,79.3 41.93,177.92 -147.45,200.33 -181.17,66.17 -13.76,-54.73 -7.51,-125.39 58.55,-145.47zm12.1 -20.45c-191.91,21.15 -162.29,293.86 40.67,268.8 180.58,-22.3 175.29,-292.6 -40.67,-268.8z"/>
   <path class="fil1" d="M720.65 912.26c46.74,-4.92 77.97,12.59 77.92,59.78 -0.04,48.81 -28.11,63.76 -78.24,54.25l0.32 -114.03zm-82.59 -17.11c16.81,15.04 34.79,-3.4 36.52,33.78 1.99,42.76 1.9,185.32 -5.33,214.49l-23.61 8.13c10.29,6.34 99.35,5.5 110.04,-1.54l-30.81 -6.03c-6.07,-28.23 -4.86,-64.94 -4.93,-96.82l41.59 0.93c13.17,23.45 39.12,58.07 56.98,78.86 24.26,28.24 60.74,34.02 97.56,26.71l6.06 -2.11c-25.83,-13.71 -37.97,-9.14 -72.14,-51.79 -9.69,-12.11 -18.77,-22.7 -29.11,-35.09 -10.18,-12.19 -17.17,-22.75 -25.02,-31.73 14.23,-17.92 33.84,-25.7 44.83,-56.81 10.37,-29.35 -3.99,-56.56 -24.05,-69.6 -21.91,-14.24 -156.29,-20.67 -178.58,-11.38z"/>
   <path class="fil1" d="M10.36 414.82l7.11 3.15c42.49,15.02 31.89,7.56 31.89,148.13 0,21.03 2.64,118.99 -3.92,135.38 -6.82,17.06 0.67,5.14 -10.42,11.16l-19.29 8.32c32.01,2.06 163.18,4.96 188.43,-0.41 9.76,-16.72 11.73,-39.59 9.43,-60.4 -13.08,11.14 -5.52,31.52 -33.75,38.98 -13.31,3.51 -52.34,4.05 -64.2,-1.74 -20.21,-9.86 -14.58,-38.93 -14.46,-58.62 0.15,-23.36 -1.81,-47.93 1.77,-70.89 26.24,-0.89 54.76,-0.26 77.02,5.51 3.72,9.09 4.94,19.37 12.5,28.79l5.84 -66.17c-21.85,4.19 -22.34,16.31 -96.83,9.66l0.16 -110.44c17.91,-0.88 44.87,-0.81 61.37,1.53 35.51,5.05 18.59,14.45 32.61,34.45 9.15,-12.35 7.49,-43 9.12,-60.06 -64.15,6.4 -128.89,1.57 -194.38,3.67z"/>
   <path class="fil1" d="M418.58 856.25c12.67,4.27 11.68,1.68 15.35,14.16 4.64,15.77 2.11,248.2 -3.7,272.97l-25.64 8.17c15.51,7.79 46.81,2.42 64.52,2.64 6.67,0.08 55.15,3.51 57.47,-1.56 0.57,-1.25 2.18,-0.6 3.45,-2.48l-35.21 -7.37c-9.27,-29.18 -6.62,-105.03 -6.59,-142.27 98.03,-0.79 70.12,4.5 91.37,33.84l7.24 -64.66c-14.02,1.76 -14.68,9.89 -44.85,10.21 -17.58,0.19 -36.24,1.52 -53.8,-1.6l0.04 -106.93c18.49,-4.66 46.59,-2.88 66.2,-1.11 27.13,2.44 24.44,11.77 31.95,27.43 0.34,0.71 1.45,3.65 1.7,3.01 0.26,-0.65 1.03,2.11 2.41,3.04l5.94 -57.84 -201.18 1.33 23.33 9.02z"/>
   <path class="fil0" d="M1453.23 214.81c1.65,14.66 3.24,9.7 -11.59,15.23l11.59 -15.23zm22.99 -21.71c16.23,-0.2 2.92,1.26 10.97,-2.38l11.85 11.44c-6.91,3.66 -10.94,6.12 -18.97,9.14l-15.28 4.7c-3.01,-6.8 -0.24,-6.93 2.79,-12.8 -24.77,-8.11 -20.48,-1.93 -24.13,-30.22l9.72 5.16c19.75,12.45 14.33,12 15.8,20.53 5.79,-5.04 3.17,3.91 7.25,-5.57zm8.49 -99.07c0.18,-0.05 -3.03,-12.07 12.53,1.6 6.57,5.78 -1.21,-1.42 4.11,11.27l4.49 7.91c3.79,10.92 2.51,2.07 0.84,15.06 -15.14,-9.82 -2.31,-8.73 -21.93,2.26 1.36,-5.55 4.01,-12.24 2.63,-17.09 -4.43,-15.62 -2.11,8.19 -3.7,-1.86 -0.09,-0.57 -1.05,0.1 -1.55,-0.05l2.58 -19.1zm-44.15 -3.05c15.94,-4.84 4.38,-4.57 20.97,-3.02 1.55,0.14 6.8,1.5 7.93,1.75l8.13 2.89c-0.27,1.03 -0.63,2.44 -0.91,3.05l-4.54 8.28c-2.24,3.42 -4.13,6.54 -4.57,5.7 -0.4,-0.78 -1.65,2.11 -2.37,3.23 8.62,10.12 9.73,8.63 15.55,21.66l20.34 4.19c9.01,6.07 9.24,1.06 7.87,14.04 -0.4,3.74 -5.55,11.46 -0.05,20.21l-42.59 4.11c-0.68,-3.01 -10.62,-7.34 -18.6,-20.86 19.66,7.15 5.81,-6.87 19.5,14.25 5.01,-17.75 11.27,-9.25 -3.62,-20.69 -5.83,-10.13 -3.98,-3.43 -4.94,-19.25l-4.59 14.25 -12.87 -3.26c2.77,17.12 5.34,15.76 4.96,30.73 -9.9,-19.33 -5.67,-10.5 -17.62,-15.73 -2.41,11.34 -2.61,37.12 -22.41,27.96 -12.75,-0.93 -9.69,-3.98 -9.69,8.6 22.59,3.57 16.49,0.64 21.1,-2.91l0.68 16.96c16.41,-17.96 10.93,-4.29 11,-4.25 -7.7,7.97 -4.33,7.63 -12.84,15.36 0.88,0.99 2.08,2.17 2.76,2.86l12 11.7c-30.85,25.7 -35.98,11.17 -60.36,-1.57 -8.2,4.71 -9.7,8.42 -19.93,8.82l13.57 -18.95c0.49,-0.78 1.04,-1.96 1.55,-2.69 7.48,-10.81 6.13,-2.86 11.7,-13.44 15.4,11.43 4.09,11.04 4.08,11.06 -10.26,14.19 -1.77,-7.48 -2.42,3.93 9.22,8.24 13.21,10.38 27.32,6.57 -17.1,-8.81 -3.47,5.53 -14.69,-15.1l21.34 -8.83c-13.83,-5.7 -8.22,-1.68 -14.42,-11.17 -14.43,1.6 -10.87,2.56 -23.8,-1.39 -5.01,-13.82 -3.32,-13.14 -3.73,-26.06 -0.53,-16.72 -3.83,-7.74 -4.86,-14.33 -0.22,-1.4 -1.5,-1.5 -2.17,-2.32 4.55,-14.44 4.33,-8.25 2.21,-25.62l34.14 21.24c11.26,4.75 0.88,1.9 6.45,-6.27 -25.78,-10.66 -11.04,-18.41 -18.43,-41.06 -3.97,-12.17 -9.85,-46.49 -13.64,-53.51 -5.43,5.17 -18.25,40.9 -20.77,51.31 -6.45,26.64 14.54,67.48 -36.09,44.41l15.43 12.24c12.82,18.56 -9.14,1.63 12.29,21.43 5.02,9.18 -6.62,7.17 -17.38,18.56 6.07,18.43 -4.36,5.42 15.57,12.82l-9 7.21c-11.24,9.39 -0.76,-3.69 -9.5,8.7 1.08,5.23 6.3,6.94 -2.62,11.89 10.31,8.14 -3.92,4.22 10.39,2.37 2.9,-0.38 8.96,-3.27 12.87,-4.67 -2.75,7.69 -7.81,16.09 -5.37,25.86l19.94 6.19 -6.68 12.5 42.29 -8.43 4.62 9.75c9.68,-5.73 26.37,-13.44 40.06,-20.35 6.91,-10.99 -1.8,-3.74 12.23,-11.01 4.82,-2.5 6.01,-2.05 11.88,-5.35 14.59,-8.21 7.87,-6.98 24.71,-9.96 4.3,-9.37 5.25,-8.45 12.76,-16.09l58.37 -33.25 42.08 -13.3c-7.53,-5.82 1.57,-2.91 -10.64,-4.64 -10.8,-1.53 -15.98,2.27 -32.24,9.57 -16.08,7.22 -25.42,17.4 -36.61,8.62 14.05,3.22 10.93,-3.08 11.77,-4 4.58,-5.04 5.52,-10.26 5.64,-18.68 -19.6,-19.41 -8.06,-5.12 -22.87,-29.85 10.1,-6.49 -12.38,0.49 3.05,0.9l7.62 -0.9c-8.3,-12.77 -12.43,-63.1 -13.19,-85.21l-19.97 35.26c-3.2,-4.3 0.02,-0.11 -5.36,-5.56l-7.96 -8.59c25.32,-10.56 1.12,-35.47 -2.92,-64.99l-6.11 -29.8c-9.17,16.45 -13.18,39.59 -20.52,59.46l-2.07 10.06c-7.48,43.54 -11.6,5.68 -10.19,54.4z"/>
   <path class="fil1" d="M1433.71 1149.01c169.07,50.21 208.04,-80.66 131.93,-153.9 -17.35,-16.7 -35.05,-28.16 -51.53,-42.4 -88.32,-76.29 22.75,-121.57 59.87,-72.67l11.87 26.73 7.36 -58.41c-60.06,-9.9 -122.76,-9.86 -145.62,38.25 -40.4,85.02 78.54,135.79 101.51,172.08 14.39,22.74 13.78,53.42 -5.02,69.57 -17.01,14.6 -48.31,17.25 -70.49,6.21 -30.32,-15.11 -19.26,-33.41 -34.44,-59.66 -10.23,15.08 -7.03,56.71 -5.44,74.2z"/>
   <path class="fil1" d="M641.41 463.73l32.26 9.69c5.25,49.54 2.59,125.72 2.57,178.15 -0.02,59.66 1.75,54.05 -22.27,66.11l93.26 -2.47c-13.6,-4.76 -17.28,-1.07 -21.44,-16.96 -4.21,-16.09 -0.56,-213.46 -0.48,-221.7 43.38,-3.66 70.5,13.71 73.73,55.44 4.63,59.85 -44,61.95 -57.15,68.3l6.54 2.57c13.7,3.38 26.67,1.29 40.09,-3.59 14.24,-5.19 24.96,-12.46 33.71,-21.92 16.34,-17.66 31.01,-53.18 16.46,-81.7 -13.54,-26.56 -40.54,-35.22 -74.53,-36.14 -18.89,-0.52 -92.84,-2.34 -107.13,-0.64l-15.62 4.86z"/>
   <path class="fil2" d="M24.24 795.08c-23.61,3.17 -11.51,-2.61 -16.19,10.33 7.37,8.1 -16.39,8.99 50.81,8.63l782.04 0.01c7.14,0.06 24.56,1.08 30.37,0.5 28.16,-2.82 11.42,3.73 18.81,-9.14 -6.19,-13.68 7.17,-9.4 -23.03,-10.73l-842.81 0.4z"/>
   <path class="fil2" d="M1157.11 795.44c-65.77,-0.63 -43.26,-2.73 -49.44,9.97 7.9,6.93 -17.07,8.94 53.72,8.62l726.46 0c28.4,0 101.48,6.88 101.57,-8.92 0.1,-16.51 -36.32,-9.75 -50.28,-9.66l-782.03 -0.01z"/>
   <path class="fil1" d="M940.27 895.15c0.77,0.69 2.13,1.22 2.73,1.49 0.59,0.28 2.04,1.09 2.79,1.42 12.88,5.7 13.76,2.5 19.34,9.48 13.07,16.34 3.74,220.49 1.11,237.62l-25.19 6.39c9.32,5.97 107.12,5.74 116.36,-1.48l-33.87 -5.72c-7.92,-33.06 -4.68,-99.22 -4.69,-138.1 -0.03,-142.95 0.89,-83.83 29.25,-113.09l-107.83 1.99z"/>
   <path class="fil3" d="M1023.92 125.83c2.87,13.33 -0.61,3.34 7.04,15.22 -15,2.83 -10.09,-0.07 -22.09,-14.83l15.05 -0.39zm-23.81 0.15c8.42,15.66 43.7,44.47 59.1,51.25l-11.96 8.66c-0.96,1.05 -9.75,13.38 -20.56,16.59 -0.41,0.12 -1.66,0.36 -2.08,0.43l-37.21 -6.01c-11.37,-4.14 -24.42,-8.41 -34.88,-14.33 -12.52,5.25 -8.11,9.46 -16.68,10.1l-39.4 -31 -12.8 8.96 2.47 12.06 4.66 17.11 4.94 12.7c0.27,-0.7 1.45,2.12 2.2,3.17 32.02,-10.84 -12.04,-15.58 33.32,0.94l29.29 7.61c-20.98,-28.48 -14.11,-19.83 -14.22,-27.15l0.68 -6.28c10.6,24.15 8.95,0.91 19.37,24.88l13.05 -5.79c28.94,-8.48 12.9,1.13 13.95,2.03l30.32 2.95c9.58,4.88 5.33,0.72 11.79,7.85l7.89 12.83 -1.01 -8.89c10.71,-1.36 14.04,-1.99 21.83,-4.81 9.16,-3.31 1.55,-3.84 19.88,-6.42 -6.33,-11.73 -5.35,-6.29 -5.24,-13.89l11.22 -1.38c-0.76,-15.32 7.58,-6.66 -21.6,-27.85l53.94 -19.9c0.37,-1.08 2.09,-0.28 2.97,-0.81 -3.91,-5.19 -2.21,-3.33 -7.21,-8.29 -1.02,-1.01 -5.55,-4.85 -6.96,-5.94 -0.32,-0.25 -6.22,-4.01 -7.56,-4.7l-10.6 -8.06 -38.46 22.11c-10.56,-8.54 -7.28,-10.23 -13.68,-18.86l-16.95 -2.02c-3.95,-12.1 11.06,1.39 -9.09,-12.8 -5.13,10.55 0.75,1.99 -7.27,9.14 -9.12,8.13 0.68,2.32 -7.45,3.81z"/>
   <path class="fil0" d="M1022.61 840.12c1.88,-16.48 -0.28,-18.52 10.58,-28.71 8.97,9.66 9.03,10.33 11.13,27.75l-21.71 0.96zm-37.68 -0.01c1.6,-16.46 2.05,-28.27 14.07,-36.34 10.88,8.68 11.42,20.54 13.67,36.33l-27.74 0.01zm-31.67 -1.38c1.58,-17.52 1.13,-18.49 11.56,-27.3 9.04,10.8 8.11,12.53 9.22,28.77l-20.78 -1.47zm-12.7 11.39l115.72 -1.36 14.56 -68.6c-21.23,1.94 -14.53,3.59 -29.11,14.83 -19.03,-15.69 -9.5,-22.54 -42.73,-34.87 -32.92,11.29 -23.98,16.13 -42.73,34.73 -8.51,-8.5 -12.06,-12.77 -29.66,-14.87l13.95 70.14z"/>
   <path class="fil4" d="M1215.98 248.82c0.18,5.5 0.09,2.83 -1.18,13.88l12.48 7.89c8.64,9.07 1.52,-4.74 3.17,9.2 -8.12,5.05 -6.65,-1.83 -21.95,9.19 14.58,3.3 29.84,3.98 39.98,5.05l-1.45 -12.52c36.98,-10.99 0.22,-6.75 39.78,-3.2l-23.26 16.17 0.32 -1.85c-4.99,0.01 -12.47,-0.61 -17.11,0.99 -20.4,7.06 -6.2,-0.17 -15.33,9.96 62.98,7.73 45.37,-20.84 49.95,5 4.37,8.54 2.66,15.57 12.19,18.18 1.97,0.54 7.18,19.23 1.28,-3.77 33.76,-4.44 -2.5,-50.27 19.8,-56.02 7.42,0.8 1.92,7.2 0.6,25.62 8.77,-6.44 19.49,-12.67 23.13,-24.29 0.44,-1.39 0.6,-2.69 0.95,-4.09 0.41,-1.62 0.46,-3.39 0.76,-4.82 0.32,-1.52 0.56,-3.43 0.78,-5.16 -2.44,-9.77 2.62,-18.17 5.37,-25.86 -3.91,1.4 -9.97,4.29 -12.87,4.67 -14.31,1.85 -0.08,5.77 -10.39,-2.37 -0.52,0.83 -1.39,1.99 -1.75,2.38 -0.35,0.36 -1.38,1.72 -1.81,2.13 -12.19,11.6 -8.23,0.99 -20.68,13.73l7.92 22.31c-15.1,-6.01 -15.73,-3.22 -31.47,-21.32 -11.75,7.71 20.28,-9.8 -13.7,-0.34l-24.03 9.75c-0.71,-39.14 -6.03,-37.8 -18.75,-49.42 -2.13,-1.94 -5.49,-5.21 -6.94,-6.52 -6.26,-5.65 -0.14,-1.42 -8.06,-6.85 -1.12,19.23 1.28,37.76 12.27,52.3z"/>
   <path class="fil5" d="M622.41 225c-6.2,8.99 -5.8,8.4 -11.78,11.73 31.52,23.83 -0.91,-14.45 40.95,5.31l9.71 5.58c0.65,-1.01 2.32,1.51 3.48,2.26 -5.53,9.17 -3.67,6.73 -13.18,8.51l-1.2 9.72 8.36 4.29c14.37,7.38 11.54,8.25 32.55,14.45 -1.33,-4.82 -6.21,-20.58 -6.44,-24.88 -1.91,-36.31 -1.42,-10.85 7.83,-16.04l-1.35 3.93c8.85,-15.87 -14.24,-12.78 17.05,-12.78 5.12,6.28 12.2,9.02 19.76,13.49 7.93,4.68 16.5,10.19 20.99,9.57l-14.58 -11.32c-0.56,-0.48 -2.09,-0.81 -2.5,-2.29 -0.41,-1.5 -1.69,-1.54 -2.51,-2.34 25.77,5.81 41.17,46.53 85.7,21.88l4.27 -20.92c32.26,-4.89 19.92,5.48 83.06,-4.89 3.36,-6.26 2.54,-2.78 -6.12,-6.35 -2.72,-0.38 -8.96,-1.59 -14.1,-3.72 -10.63,-4.42 6.4,-4.92 -29.96,1.92 -16.87,2.38 -14.45,-1.12 -20.04,-13.39l-15.98 -2.49c-3.76,12.72 -13.28,-16.71 -1.16,16.57l-15.22 -2.26 6.26 9.84 -10.63 6.43c-16.77,5.04 -9.04,-6.72 -28.51,-0.73 4.01,9.89 1.14,3.76 7.13,10.77l-116.26 -48.71 2.02 1.25c-1.23,0.73 -2.78,1.64 -3.77,2.08 -0.94,0.42 -2.5,1.44 -3.62,1.87 -9.6,3.71 -9.7,2.81 -21.13,-0.34 -0.4,1.09 -0.74,2.68 -0.92,3.36l-8.16 8.64z"/>
   <path class="fil4" d="M737.78 283.92c27.84,12.51 -9.58,-8.96 28.24,1.06 13.29,3.52 13.64,8.72 24.24,14.29 3.26,22.16 2.38,6.15 -4.49,11.26 2.75,4.86 6.31,-2.47 -2.34,14.05 19.99,7.95 25.48,9.65 32.97,43.8 13.24,-1.5 7.18,-4.71 15.21,-7.4 -3.64,-11.48 -10.19,-19.27 -15.92,-26.09 2.22,1 15.33,8.04 17.05,8.27 39.62,5.32 18.45,-3.66 25.22,-12.07 -18.54,-2.95 -59.46,-9.84 -64.81,-29.26 25.17,15.59 45.76,24.84 75.7,20.8 22.18,-2.99 50.56,15.57 83.12,16.97l-5.35 -11.89c-0.27,-0.29 -1.84,-0.59 -2.49,-1.25 -12.34,-7.7 -38.5,-13.97 -56.92,-13.65 -42.98,0.74 -26.21,-2.59 -61,-10.4l6.85 -5.23c-14.19,-3.59 -8.33,-4.09 -22.23,-8.89 -7.71,-2.67 -13.65,-3.69 -22.23,-7.37 -13.85,-5.94 -30.04,-12.31 -39.46,-20.78 -4.49,0.62 -13.06,-4.89 -20.99,-9.57 -7.56,-4.47 -14.64,-7.21 -19.76,-13.49 -31.29,0 -8.2,-3.09 -17.05,12.78l24.24 11.36c12.75,6.99 14.57,8.92 28.8,12.2 -9.99,6.42 -3.09,-0.18 -6.6,10.5z"/>
   <path class="fil4" d="M800 230.54l15.22 2.26c-12.12,-33.28 -2.6,-3.85 1.16,-16.57 -14.29,6.22 -9.77,-0.43 -15.22,-18.61 14.08,2.91 4.67,3.36 14.09,-1.06 13.64,10.61 6.37,8.09 18.95,17.57 18.79,14.16 9.35,-2.96 18.2,17.98 36.36,-6.84 19.33,-6.34 29.96,-1.92 5.14,2.13 11.38,3.34 14.1,3.72l3.05 -13.9 9.8 5.19c12.07,-1.28 7.41,-16.88 28.81,-3.89 0.94,0.57 1.87,1.54 2.71,2.14 0.73,0.51 1.68,1.41 2.29,1.92 6.51,5.47 5.28,5.04 5.31,18.79l11.82 -2.39 -0.15 -8.9c-0.15,-0.98 -1.34,-7.29 -1.82,-8.63 14.89,-5.96 6.87,-1.7 15.48,-9.16 4.02,6.72 5.26,10.8 8.79,20.19 21.18,3.35 5.65,-23.39 37.82,-9.09 9.21,-8.1 3.43,3.4 3.3,-11.32l-30.32 -2.95c-1.05,-0.9 14.99,-10.51 -13.95,-2.03l-13.05 5.79c-10.42,-23.97 -8.77,-0.73 -19.37,-24.88l-0.68 6.28c0.11,7.32 -6.76,-1.33 14.22,27.15l-29.29 -7.61c-45.36,-16.52 -1.3,-11.78 -33.32,-0.94 -0.75,-1.05 -1.93,-3.87 -2.2,-3.17l-4.94 -12.7c-27.04,6.61 -14.77,-7.57 -35.29,-11.95l-37.27 -4.99c-0.78,7.8 -1.05,7.86 -3.42,11.45l-22.99 -7.31 -12.68 -17.08c-0.72,2.19 -5.73,-4.12 -0.23,12.91 7.15,22.15 13.17,27.11 26.12,30.8l-5.01 16.91z"/>
   <path class="fil0" d="M902.58 240.26c-63.14,10.37 -50.8,0 -83.06,4.89l-4.27 20.92c-44.53,24.65 -59.93,-16.07 -85.7,-21.88 0.82,0.8 2.1,0.84 2.51,2.34 0.41,1.48 1.94,1.81 2.5,2.29l14.58 11.32c9.42,8.47 25.61,14.84 39.46,20.78 8.58,3.68 14.52,4.7 22.23,7.37 13.9,4.8 8.04,5.3 22.23,8.89 1.02,0.25 13.58,3.28 15.45,3.18 4.72,-0.26 5.16,-0.34 9.78,-2.3 7.87,-3.33 5.86,-3.1 10.11,-6.5l-12.2 -1.52c-6.56,-11.75 -5.2,-12.23 -18.18,-14.91l4.03 -17.1c-6.21,-12.03 -1.92,4.15 -1.16,-3.58 14.24,-1.77 31.28,3.5 42.16,8.41 16.26,7.34 8.37,3.18 12.71,12.6l-1.41 0.09c3.93,-6.77 -15.13,-13.16 19.17,-6.21 9.19,1.86 14.17,9.22 14.36,9.35 12.1,8.34 11.13,-3.37 15.57,5.36 -18.05,-2.75 -10.09,1.91 -14.31,-15.13 20.37,3.53 17.61,3.19 24.42,10.89l5.74 0.34c-8.43,-21.95 -14.93,-17.06 -18.91,-23.52 -0.15,-0.23 -0.32,-1.21 -0.44,-1.46l-9.32 -24.74c-14.63,2.57 -18.24,5.63 -28.05,9.83z"/>
   <path class="fil4" d="M442.36 192.44c-10.48,8.4 -6.01,3.41 -24.46,9.13l-16.2 7.37c-0.79,27.83 -1.69,7.17 6.09,12.16 16.89,-2.17 31.84,0.67 42.11,-15.08 11.81,-18.11 -20,11.87 2.12,-3.74 4.13,12.77 -0.94,7.71 9.02,12.17 -19.22,1.23 -14.51,0.79 -20.55,14.06l13.11 2.84c33.78,-2.13 -17.09,-3.62 11.24,-2.86 4.74,8.73 4.47,5.1 11.71,13.36 8.47,-4.5 7.2,10.36 4.22,-11.68 -2.37,-17.54 1.38,-0.28 -7.72,-12.4 17.58,-1.46 23.02,-8.54 30.29,1.64 24.06,15.81 -2.22,-15.9 3.8,11.69 0.12,0.54 0.27,2.14 0.87,2.99l4.36 -5.13c10.12,-9.36 21.9,-0.34 30.1,5.58 13.57,5.55 2.98,2.44 17.07,3.77 8.15,-4.07 11.35,-0.75 22.52,5.03l0.3 -6.19c-10.86,-16.34 -32.96,-34.2 -55.62,-40.84 -38.65,-11.34 -53.33,8.12 -84.38,-3.87z"/>
   <path class="fil0" d="M1048.18 285.92c-3.52,6.51 -8.65,3.94 -19.24,4.17l-68.9 6.64 29.67 1.59 -2.47 15.26 1.91 -12.21 30.73 -3.58c-10.7,17.89 7.05,4.27 -8.08,11.17 5.6,4.37 63.44,1.22 76.72,0.42 -10,-13.77 -9.93,-3.18 -17,-14.9l21.23 -3.69c11.17,2.24 24.7,-0.39 40.93,-2.6 16.75,-2.28 20.75,-1.65 27.73,-12.02 -3.11,5.06 4.76,3.93 -8.09,1.33l-47.59 2.7c4.38,-10.72 0.36,-1.48 11.4,-8.95 -10.7,-10.44 -18.83,-10.59 -25.92,-23.88 10.5,3.24 10.34,7.16 24.15,12.2 -5.57,-17.23 -6.74,-15.95 -18.05,-27.49l5.09 -5.25 0.05 -8.97 -12.42 -17.71c-2.08,21.88 -14.97,59.78 -15.62,63.67 -0.1,0.62 -1.79,11.44 -1.93,11.87 -2.96,9.25 -0.5,3.49 -5.1,10.38l-19.2 -0.15z"/>
   <path class="fil2" d="M868.4 291.56c-4.25,3.4 -2.24,3.17 -10.11,6.5 -4.62,1.96 -5.06,2.04 -9.78,2.3 -1.87,0.1 -14.43,-2.93 -15.45,-3.18l-6.85 5.23c34.79,7.81 18.02,11.14 61,10.4 18.42,-0.32 44.58,5.95 56.92,13.65l12.15 1.05c1.26,-4.04 13.36,-2.78 -7.74,-7.16 21.12,-1.15 16.52,-2.86 20.65,-5.72l13.16 15.97c-2.02,-26.71 -0.39,-10.41 4.89,-17.02l2.47 -15.26 -29.67 -1.59 -27.5 -0.31c12.16,-12.25 10.3,-5.13 21.02,-16.61 -6.81,-7.7 -4.05,-7.36 -24.42,-10.89 4.22,17.04 -3.74,12.38 14.31,15.13 -4.44,-8.73 -3.47,2.98 -15.57,-5.36 -0.19,-0.13 -5.17,-7.49 -14.36,-9.35 -34.3,-6.95 -15.24,-0.56 -19.17,6.21 11,14.02 9.53,17.09 30.63,20.78l-56.58 -4.77z"/>
   <path class="fil3" d="M725.2 130.5l11.31 6.1 -3.12 8.99c24.23,5.75 31.24,5.15 57.74,28.78l10.89 11.39c-15.26,-6.01 0.98,-11.18 -10.22,1.24l22.99 7.31c2.37,-3.59 2.64,-3.65 3.42,-11.45 -12.49,-22.84 -12.33,-10.72 -15.44,-27.15 5.7,4.96 31.02,20.55 40.67,19.34 19.23,-2.42 6.26,2.44 18.79,-10.62 -23.69,-2.14 -9.69,-5.54 -42.5,-25.42 -29.19,-17.7 -25.09,-26.01 -72.96,-6.06 -8.86,-6.59 0.07,0.6 -9.19,-8.27l-15.74 -3.76 3.36 9.58z"/>
   <path class="fil3" d="M1092.75 290.79l0.22 18.93 17.22 6.95 -38.52 25.98c22.98,1.43 16.58,-1.01 31.76,-4.31l30.19 -8.21c24.25,-6.16 2.55,5.85 21.33,-14.01l32.08 -16.51c1.89,-4.7 0.2,1.14 0.11,-5.13 -0.14,-9.09 -3.01,0.6 -0.11,-6.47l13.79 0.41c-5.7,-7.97 -2.9,-3.55 -5.26,-11.95l-19.04 -0.3 -3.88 -6.04c-0.25,-1.73 -1.87,-1.96 -2.71,-3.13l-16.63 0.34 0.02 10.16c12.85,2.6 4.98,3.73 8.09,-1.33 -6.98,10.37 -10.98,9.74 -27.73,12.02 -16.23,2.21 -29.76,4.84 -40.93,2.6z"/>
   <path class="fil0" d="M758.56 218.01c-6.17,-1.88 0.8,4.69 -11.98,-6.31 -8.4,-7.23 -4.08,-2.38 -8.84,-11.76 16.44,3.36 15.85,3.67 20.82,18.07zm-55.56 -53.51c-3.43,11.7 -2.19,2.65 -2.61,16.76 9.31,4.22 1.89,-2.69 11.79,9.28l23.1 33.65c-22.65,-2.28 -30.58,-9.95 -43.96,-21.02 -8.65,11.96 14.41,13.29 -5.62,5.81 -10.14,-3.79 -24.02,-8.06 -27.71,-0.84l116.26 48.71c-5.99,-7.01 -3.12,-0.88 -7.13,-10.77l-0.78 -16.6c-6.94,-5.84 -3.93,-5.61 -7.78,-11.47 5.6,1.03 8.59,0.75 9.34,0.72 0.76,-0.03 3.34,-1.24 5.28,-1.93l-0.7 -6.46c-16.79,-16.19 -20.74,-19.88 -41.51,-33.97l-10.14 -11.79 -17.83 -0.08z"/>
   <path class="fil2" d="M407.79 221.1c-7.78,-4.99 -6.88,15.67 -6.09,-12.16l16.2 -7.37c18.45,-5.72 13.98,-0.73 24.46,-9.13l0.91 -2.16 8.46 -17.81 -6.35 -7.23c-10.47,6.5 -5.86,4.17 -14.66,12.15 -7.56,6.86 0.57,1.02 -6.85,5.91 -11.02,7.25 -3.58,2.58 -10.99,4.75 -14.04,0.61 -5.18,-2.61 -11.46,6.35 -23.39,-24.26 -18.26,-2.71 -18.32,-2.56 1.24,-9.4 4.09,-14.58 4.82,-16.3 3.69,4.77 -7.51,2.56 21.34,10.22 -0.58,-1.77 -1.55,-6 -2,-5.21 -0.01,0.02 -6.73,-10.04 -7.32,-29.05 1.61,-1.37 8.6,-3.69 10.67,-4.67 -2.66,-5.26 -8.49,-17.24 -10.68,-24.01 -4.97,-15.35 -0.69,-21.53 -7.74,-30.34 -15.23,43.01 -16.09,40.29 -7.62,63.39l-15.12 12.82c6.52,18.98 10.83,6.98 2.95,28.8 15.03,8.19 23.18,17.56 29.87,29.83l5.52 -6.22z"/>
   <path class="fil3" d="M1102.45 217.86l-0.05 8.97 16.09 9.36c21.5,-16.15 12.54,-2.34 37.11,-43.48l6.36 10.39c0.6,1.09 3.36,6.57 4.06,7.81 0.04,-0.04 11.63,-7.78 13.5,-21.95 1.3,-9.86 -2.55,-8.24 1.89,-24.28 -6.61,11.19 1.98,5.19 -11.03,5.93 1.86,11.18 2.7,1.37 -4.72,16.74 -15.24,-16.15 -20.72,-30.59 -39.37,-28.68 -9.52,0.97 -5.65,0.61 -6.22,0.81 -0.46,0.17 -1.9,1.02 -2.28,1.19l-5.28 11.29c0.72,10.09 -0.37,-5.62 1.47,9.75 1.04,8.65 1.27,16.77 2.28,25.44l-13.81 10.71z"/>
   <path class="fil0" d="M604.68 138.75l8.32 10.25c6.71,8.98 -7.94,28.38 -8.85,32.16l-1.32 16.01 28.1 -0.65c-4.3,18.41 -1.87,0.39 -12.35,17.18 0.16,0.73 -0.14,1.28 -0.1,2.24 0.05,1.35 0.05,3.6 0.22,4.05 1.51,4.02 -8.94,-5.25 3.71,5.01l8.16 -8.64c0.18,-0.68 0.52,-2.27 0.92,-3.36 11.43,3.15 11.53,4.05 21.13,0.34 1.12,-0.43 2.68,-1.45 3.62,-1.87 0.99,-0.44 2.54,-1.35 3.77,-2.08 -7.9,-6.5 -1.64,6.33 -9.09,-13.45 -17.66,3.69 -6.45,2.58 -11.39,-1.61 5.44,-10.26 8.64,-2.3 16.63,-9.18 -3.03,-18.97 -15.3,-18.8 -19.93,-35.14 -1.23,-8.17 10.23,12.19 -0.66,-15 -5.55,-13.86 -9.44,-9.77 -1.96,-24.89 -10.77,-4.36 -2.24,3.08 -14.86,-6.96 9.04,24.61 -2.11,26.06 -14.07,35.59z"/>
   <path class="fil2" d="M772.48 210.34l0.7 6.46c-1.94,0.69 -4.52,1.9 -5.28,1.93 -0.75,0.03 -3.74,0.31 -9.34,-0.72 3.85,5.86 0.84,5.63 7.78,11.47l0.78 16.6c19.47,-5.99 11.74,5.77 28.51,0.73l10.63 -6.43 -6.26 -9.84 5.01 -16.91c-12.95,-3.69 -18.97,-8.65 -26.12,-30.8 -5.5,-17.03 -0.49,-10.72 0.23,-12.91l12.68 17.08c11.2,-12.42 -5.04,-7.25 10.22,-1.24l-10.89 -11.39c-26.5,-23.63 -33.51,-23.03 -57.74,-28.78l4.92 14.44c4.79,12.47 5.89,8.69 21.39,18.49 0.98,8.61 -10.49,5.35 8.04,19.93l4.74 11.89z"/>
   <path class="fil3" d="M562.83 142.78l1.78 2.3c7.76,5.94 11.38,6.78 20.31,11.58 -7.47,26.66 0.55,-3.26 0.99,24.94 10.36,-9.98 1.56,3.52 6.67,-9.35 5.63,-14.17 6.1,-24.13 1.22,-34.3l10.88 0.8c11.96,-9.53 23.11,-10.98 14.07,-35.59 12.62,10.04 4.09,2.6 14.86,6.96l-3.33 -9.74c24,7.98 9.11,3.06 16.95,-0.84 1.78,-10.32 3.89,-8.39 -6.26,-5.86 -8.91,0.29 -6.94,-0.24 -16.42,-1.78 -56.01,-9.09 -46.22,40.9 -61.72,50.88z"/>
   <path class="fil2" d="M539.59 125.18c-24.86,5.89 -19.2,8.98 -35.58,23.15 -11.96,10.35 -10.8,5.83 -26.4,13.33 -3.65,-15.66 -2.29,-7.99 -8.11,-13.39 -6.91,10.74 -5.25,-1.35 -1.55,9.39 4.49,13.03 -6.46,-5.16 3.57,4.82 3.8,3.78 17.45,8.41 27.52,4.14 15.73,39 -0.28,6.17 34.19,26.74 -2.39,-20.19 -1.46,-8.45 7.91,-19.09 -3.57,-3.63 -2.2,-2.9 -2.04,-3.34l4.03 -5.28c-0.21,-10.93 -3.89,-5.31 0.38,-13.28l21.61 4.89c-3.99,-0.36 -5.73,-1.13 -13.27,-3.96 10.32,-17.79 -4.43,-3.78 12.76,-8.22l-1.78 -2.3c-4.6,2.2 2.96,-1.12 -10.44,3.28 -1.2,-21.74 -0.38,-11.09 4.25,-20.84l-17.05 -0.04z"/>
   <path class="fil3" d="M1340.87 254.23c-0.22,1.73 -0.46,3.64 -0.78,5.16 -0.3,1.43 -0.35,3.2 -0.76,4.82 -0.35,1.4 -0.51,2.7 -0.95,4.09 -3.64,11.62 -14.36,17.85 -23.13,24.29 1.32,-18.42 6.82,-24.82 -0.6,-25.62 -22.3,5.75 13.96,51.58 -19.8,56.02 5.9,23 0.69,4.31 -1.28,3.77 -9.53,-2.61 -7.82,-9.64 -12.19,-18.18l-1.57 37.19c16.21,-3.37 22.09,-2.84 28.84,-7.34l13.04 -29.05c11.34,-14.17 11.32,-17.6 8.9,-33.56 14.21,-0.01 26.05,1.21 36,8.25l-18.54 11.48c26.07,-0.68 45.36,-12.51 52.99,-21.31l-4.62 -9.75 -42.29 8.43 6.68 -12.5 -19.94 -6.19z"/>
   <path class="fil4" d="M469.5 148.27c5.82,5.4 4.46,-2.27 8.11,13.39 15.6,-7.5 14.44,-2.98 26.4,-13.33 16.38,-14.17 10.72,-17.26 35.58,-23.15 11.23,-10.55 16.95,-11.68 28.82,-24.87l-18.75 -16.81c-3.65,-3.73 -0.7,-2.61 -7.91,-7.03 -5.47,1.74 -15.95,4.77 -20.39,8.45l-5.65 11.43c-4.19,12.75 -12.37,19.63 0.78,26.29 -18.63,7.77 0.88,0.21 -12.86,2.19l-14.92 29.3c-18.07,-6.46 -11.55,-6.04 -25.84,-18.43 4.4,15.1 -6.48,8.48 6.63,12.57z"/>
   <path class="fil3" d="M1252.06 123.63l0.72 -1.29c24.26,7.76 10.62,7.93 30.48,22.2 -8.24,-5.62 -7.05,-6.98 -12.47,-18.56l32.82 28.82 10.97 3.52c-2.04,16.89 -6.52,27.73 4.92,40.1l5.8 -21.35c6.61,2.17 -0.01,5.05 11.93,2.25 18.47,-4.34 6.71,1.32 8.68,-7.83 -21.43,-19.8 0.53,-2.87 -12.29,-21.43l-15.43 -12.24c-5.56,-7.23 3.53,-3.72 -13.84,-11.12 -4.6,-1.96 -9.86,-2.26 -15.86,-4.75 -14.27,-5.93 -7.02,-7.25 -32.54,-14.3 0.85,1.1 5.7,8.7 6.89,9.76 1.31,12.92 3.33,8.96 -10.78,6.22z"/>
   <path class="fil2" d="M960.25 241.77l2.21 8.42c0.05,0.74 0.1,1.97 0.09,2.77l-2.18 18.67 18.65 9.01c15.95,-7.1 13.22,4.94 38.36,2.52 10.92,-19.05 -3.59,-9.15 -7.17,-10.65 -15.23,-2.38 -7.3,1.61 -13.46,-9.81 7.34,-4.58 -12.71,-7.35 13.65,-3.54 -1.75,-8.81 1.56,-1.12 -2.27,-10.9 -10.51,-26.85 -12.39,-11.73 -17.65,-11.18l1.43 10.49c0.42,0.69 1.52,1.72 2.01,2.27l9.48 3.56c-16.07,3.48 -5.74,7.66 -21.51,-3.5 0.66,0.18 3.07,12.24 4.65,-4.23 1.42,-14.83 1.94,-3.74 -3.99,-10.4 -3.53,-9.39 -4.77,-13.47 -8.79,-20.19 -8.61,7.46 -0.59,3.2 -15.48,9.16 0.48,1.34 1.67,7.65 1.82,8.63l0.15 8.9z"/>
   <path class="fil2" d="M1119.03 37.18l8.15 15.1c2.4,-1.7 9.83,-0.87 10.7,-1.07 4.9,-1.09 5.34,-4.48 22.24,-5.48 4.1,5.92 6.33,9.18 10.3,16.49 23.17,14.06 8.92,1.92 14.13,16.21 2.91,7.97 17.11,16.94 21.88,19.87 8.3,-9.14 -9.79,-3.57 9.28,-9.35 -10.49,-13.53 -3.01,-12.3 -16.59,-24.92 -12.69,-13.3 -20.43,-11.95 -31.49,-21.39 -8.46,-7.22 -14.51,-17.2 -23.57,-26.73 -16.28,7.6 -16.37,8.37 -25.03,21.27z"/>
   <path class="fil1" d="M1004.86 427.55c29.14,-13.97 54.37,-27.14 92.98,-27.18 -3.41,-17.66 -7.04,-25.05 -17.64,-34.81 -14.2,4.89 -45.76,30.39 -59.87,42.44 -11.57,9.88 -13.81,6.81 -15.47,19.55z"/>
   <path class="fil5" d="M1396.44 193.07l2.44 -1.65c6.2,9.49 0.59,5.47 14.42,11.17l-21.34 8.83c11.22,20.63 -2.41,6.29 14.69,15.1 -14.11,3.81 -18.1,1.67 -27.32,-6.57 0.65,-11.41 -7.84,10.26 2.42,-3.93 0.01,-0.02 11.32,0.37 -4.08,-11.06 -5.57,10.58 -4.22,2.63 -11.7,13.44 -0.51,0.73 -1.06,1.91 -1.55,2.69l-13.57 18.95c10.23,-0.4 11.73,-4.11 19.93,-8.82 24.38,12.74 29.51,27.27 60.36,1.57l-12 -11.7c-0.68,-0.69 -1.88,-1.87 -2.76,-2.86 8.51,-7.73 5.14,-7.39 12.84,-15.36 -0.07,-0.04 5.41,-13.71 -11,4.25l-0.68 -16.96c-4.61,3.55 1.49,6.48 -21.1,2.91z"/>
   <path class="fil3" d="M1165.92 142.36c4.54,-12.89 0.23,-15.96 -1.69,-22.72 -4.69,-16.48 -3.84,-21.55 -24.8,-33.24 -6.76,3.66 -6.05,-2.53 -15.6,5.37 4.16,11.72 4.46,12.74 10.34,24.25 -24.41,-14.77 -6.32,-15.41 -29.47,-20.31 3.5,18.66 -4.87,4.32 10.44,17.22 33.2,27.97 11.71,20.05 31.7,30.89l9.8 -6.35c0.07,-0.45 0.22,-0.76 0.47,-1.05 0.05,12.82 -1.95,2.38 8.81,5.94z"/>
   <path class="fil0" d="M982.55 235.27c5.93,6.66 5.41,-4.43 3.99,10.4 -1.58,16.47 -3.99,4.41 -4.65,4.23 15.77,11.16 5.44,6.98 21.51,3.5l-9.48 -3.56c-0.49,-0.55 -1.59,-1.58 -2.01,-2.27l-1.43 -10.49c5.26,-0.55 7.14,-15.67 17.65,11.18 3.83,9.78 0.52,2.09 2.27,10.9l0.64 13.88 11.28 -0.88c6.58,-13 -0.62,-9.93 10.87,-15.01l13.91 10.99c4.54,-7.8 -2.01,-3.44 6.49,-9.71l-10.24 -22.89 -7.89 -12.83c-6.46,-7.13 -2.21,-2.97 -11.79,-7.85 0.13,14.72 5.91,3.22 -3.3,11.32 -32.17,-14.3 -16.64,12.44 -37.82,9.09z"/>
   <path class="fil2" d="M1398.88 191.42l-2.44 1.65c0,-12.58 -3.06,-9.53 9.69,-8.6l-8.11 -8.58c7.3,-1.54 10.33,-6.55 13.91,-13.8l-24.32 -15.73c7.03,-7.38 -1.69,-1.41 13.06,-3.42l-34.14 -21.24c2.12,17.37 2.34,11.18 -2.21,25.62 0.67,0.82 1.95,0.92 2.17,2.32 1.03,6.59 4.33,-2.39 4.86,14.33 0.41,12.92 -1.28,12.24 3.73,26.06 12.93,3.95 9.37,2.99 23.8,1.39z"/>
   <path class="fil3" d="M1489.92 227.57c15.32,3.17 -10.24,13.06 33.26,-2.42 0.53,-0.19 1.75,-0.51 2.28,-0.74 36.39,-15.85 24.98,-24.09 24.5,-34.32 7.83,9.6 3,8.01 19.63,10.35 -0.59,-17.14 4.7,-11 -8.54,-22.21l-58.37 33.25c-7.51,7.64 -8.46,6.72 -12.76,16.09z"/>
   <path class="fil3" d="M1463.6 149.77c14.89,11.44 8.63,2.94 3.62,20.69 -13.69,-21.12 0.16,-7.1 -19.5,-14.25 7.98,13.52 17.92,17.85 18.6,20.86l42.59 -4.11c-5.5,-8.75 -0.35,-16.47 0.05,-20.21 1.37,-12.98 1.14,-7.97 -7.87,-14.04l-20.34 -4.19c-11.44,5.5 4.17,5.16 -15.06,0 3.9,26.35 1.88,8.72 -2.09,15.25z"/>
   <path class="fil4" d="M650.92 195.94c7.45,19.78 1.19,6.95 9.09,13.45l-2.02 -1.25c3.69,-7.22 17.57,-2.95 27.71,0.84 20.03,7.48 -3.03,6.15 5.62,-5.81 13.38,11.07 21.31,18.74 43.96,21.02l-23.1 -33.65c-9.9,-11.97 -2.48,-5.06 -11.79,-9.28 -33.15,-0.79 -21.89,12.66 -49.47,14.68z"/>
   <path class="fil3" d="M1047.85 117.62c3.58,3.37 -5.48,6.63 23.12,6.61 -2.59,-4.25 -5.2,-11.79 -10.05,-16.95 -0.49,-0.52 -1.44,-1.48 -2.01,-2.01l-59.33 -42.78 -14.07 25 12.78 16.07c0.05,0 49.8,-24.47 49.56,14.06z"/>
   <path class="fil3" d="M1429.01 131.13c8.29,-2.26 9.12,6.81 11.69,-7.22l0.5 17.6 12.87 3.26c-6.24,-17.33 -6.95,-9.59 -1.39,-22.54 4.53,-10.55 0.63,-1.3 6.5,-5.82 12.79,-9.85 -3.78,6.19 6.02,-3.55 0.72,-1.12 1.97,-4.01 2.37,-3.23 0.44,0.84 2.33,-2.28 4.57,-5.7l4.54 -8.28c0.28,-0.61 0.64,-2.02 0.91,-3.05l-8.13 -2.89c-1.13,-0.25 -6.38,-1.61 -7.93,-1.75 -16.59,-1.55 -5.03,-1.82 -20.97,3.02 -10.1,17.72 -11.15,7.16 -16.04,27.72 1.66,4.32 1.35,-2.07 4.49,12.43z"/>
   <path class="fil3" d="M896.46 233.91c8.66,3.57 9.48,0.09 6.12,6.35 9.81,-4.2 13.42,-7.26 28.05,-9.83l9.32 24.74c0.12,0.25 0.29,1.23 0.44,1.46 3.98,6.46 10.48,1.57 18.91,23.52l9.63 6.61c14.2,-6.99 1.52,1.5 10.09,-6.12l-18.65 -9.01 2.18 -18.67c0.01,-0.8 -0.04,-2.03 -0.09,-2.77l-2.21 -8.42 -11.82 2.39c-0.03,-13.75 1.2,-13.32 -5.31,-18.79 -0.61,-0.51 -1.56,-1.41 -2.29,-1.92 -0.84,-0.6 -1.77,-1.57 -2.71,-2.14 -21.4,-12.99 -16.74,2.61 -28.81,3.89l-9.8 -5.19 -3.05 13.9z"/>
   <path class="fil4" d="M1441.1 253.89l18.06 12.36 28.85 -10.55c1.15,20.63 -3.47,8.16 13.88,13.22 0.44,-1.36 0.97,-5.94 0.93,-6.62 -0.03,-0.43 -0.09,-2.17 -0.13,-2.64l-0.69 -12.9 -16.08 -2.89 4 -16.3c-16.84,2.98 -10.12,1.75 -24.71,9.96 -5.87,3.3 -7.06,2.85 -11.88,5.35 -14.03,7.27 -5.32,0.02 -12.23,11.01z"/>
   <path class="fil2" d="M785.77 310.53c6.87,-5.11 7.75,10.9 4.49,-11.26 -10.6,-5.57 -10.95,-10.77 -24.24,-14.29 -37.82,-10.02 -0.4,11.45 -28.24,-1.06l-7.82 4.87c0.03,0.08 0.33,1.03 0.35,1.1 0.01,0.03 -0.51,-0.22 -0.53,-0.05l-21.28 -6.94c13.72,15.51 8.56,21.93 35.98,21.55l41.29 6.08z"/>
   <path class="fil3" d="M671.21 75.47l10.04 -3.05c-9.98,4.55 -1.08,-1.41 -11.02,6.86l-2.8 14.7c0.93,0.42 6.84,3.8 8.05,4.55 -2.09,-26.51 9.76,-5.6 17.13,-0.06 9.08,6.83 12.39,-0.42 26.59,6.1 -2.44,-14.09 -6.86,-12.78 2.06,-12.78 -0.04,0.03 1.1,12.09 -9.11,-2.76 -0.7,-1.02 -2.27,-5.73 -3,-6.9 -3.65,-5.91 -2.12,-3.48 -5.88,-7.65 -15.19,-16.79 1.22,-11.63 -15.57,-17.25 -15.71,5.52 -12.02,2.97 -24.1,12.49 14.4,-3.13 3.09,0.15 7.61,5.75z"/>
   <path class="fil4" d="M1529.15 236.3c-24.78,4.97 -8.23,1.07 -16.03,9.31 0.02,0.02 -2.64,12.28 14.93,7.85 15.73,-3.97 1.59,3.21 9.39,-10.64l7.71 2.27 10.9 0.57c-0.89,-0.61 0.93,-11.14 -7.51,-2.27 -10.4,10.92 -3.73,-0.54 -6.81,19.29 1.33,-0.51 9.31,-3.79 10.43,-4.09 1.17,-0.32 2.97,-1.03 4.28,-1.32 13.12,-2.92 13.95,0.57 23.71,1.16 0.57,-1.31 5.37,-9.69 -1.33,-19.05 -8.84,-12.33 2.49,2.33 -8.37,-6.48 -7.36,-5.98 1.23,3.83 -9.06,-7.69 -0.77,0.66 -1.5,1.85 -1.93,2.34l-4.04 4.98c-0.04,0.04 -1.71,11.23 -26.27,3.77z"/>
   <path class="fil0" d="M543.13 165.65c12.47,7.94 7.47,0.51 11.86,10.56l9.71 19.7 15.2 -13.55 6.01 -0.76c-0.44,-28.2 -8.46,1.72 -0.99,-24.94 -8.93,-4.8 -12.55,-5.64 -20.31,-11.58 -17.19,4.44 -2.44,-9.57 -12.76,8.22 7.54,2.83 9.28,3.6 13.27,3.96l-21.61 -4.89c-4.27,7.97 -0.59,2.35 -0.38,13.28z"/>
   <path class="fil3" d="M650.39 268.11l1.2 -9.72c9.51,-1.78 7.65,0.66 13.18,-8.51 -1.16,-0.75 -2.83,-3.27 -3.48,-2.26l-9.71 -5.58c-41.86,-19.76 -9.43,18.52 -40.95,-5.31 5.98,-3.33 5.58,-2.74 11.78,-11.73 -12.65,-10.26 -2.2,-0.99 -3.71,-5.01 -0.17,-0.45 -0.17,-2.7 -0.22,-4.05 -0.04,-0.96 0.26,-1.51 0.1,-2.24 -10.4,3.43 -3.93,-1.56 -10.49,6.27 -1.38,-0.35 -12.74,-4.83 -19.1,-6.59l3.82 7.59c1.63,3.06 -0.12,-0.66 0.13,-1.83l-13.36 -5.21c9.16,17.08 6.85,7.28 19.94,16.44 7.23,5.05 9.98,13.63 17.63,17.85 12.32,6.8 12.24,-1.35 20.59,4.64 9.09,6.52 3.38,6.98 12.65,15.25z"/>
   <path class="fil0" d="M647.23 99.54c-7.84,3.9 7.05,8.82 -16.95,0.84l3.33 9.74c17.57,24.86 32.17,14.77 57.53,20.29 -7.1,-16.02 -9.28,-9.77 -2.15,-13.67 -4.5,-13.67 -8.96,-6.25 -13.51,-18.21 -3.97,12.42 2.53,1.77 -5.36,6.99l-22.89 -5.98z"/>
   <path class="fil0" d="M1206.43 98.3c7.9,6.15 11.62,8.71 19.68,13.89 3.22,2.07 6.7,4.59 10.54,6.57 9.37,4.82 -2.58,3.19 15.41,4.87 14.11,2.74 12.09,6.7 10.78,-6.22 -1.19,-1.06 -6.04,-8.66 -6.89,-9.76 -20.21,-8.46 -39.65,-29.35 -56.83,-43.62 13.58,12.62 6.1,11.39 16.59,24.92 -19.07,5.78 -0.98,0.21 -9.28,9.35z"/>
   <path class="fil4" d="M1182.78 339.6l38.43 2.5c0.32,-0.87 0.71,-3.29 0.82,-2.68 0.11,0.58 0.69,-2.11 0.84,-2.53 0.14,-0.4 0.67,-1.92 0.85,-2.39 0.17,-0.46 0.62,-1.81 0.81,-2.29 0.18,-0.47 0.65,-1.68 0.84,-2.14 0.18,-0.44 0.71,-1.61 0.89,-2.04l3.41 -7.23c2.69,-9.54 3.01,1.27 0.09,-8.61l-29.68 -8.13c-3.36,12.76 8.5,3.23 -6.46,18.81l-2.91 2.75c-2.54,2.77 -7.07,4.69 -7.93,13.98z"/>
   <path class="fil0" d="M1303.61 154.8l-32.82 -28.82c5.42,11.58 4.23,12.94 12.47,18.56 -19.86,-14.27 -6.22,-14.44 -30.48,-22.2 -0.63,0.94 -1.86,1.04 -2.19,2.61 -1.42,6.87 -18.54,11.84 -2.89,22.22l6.95 -1c7.89,1.38 14.46,10.09 32.54,12.2 28.91,3.38 5.91,3.97 16.42,-3.57z"/>
   <path class="fil3" d="M533.23 193.36l38.9 16.98c14.64,-4.97 2.46,3.43 10.07,-7.34l-2.3 -20.64 -15.2 13.55 -9.71 -19.7c-4.39,-10.05 0.61,-2.62 -11.86,-10.56l-4.03 5.28c-0.16,0.44 -1.53,-0.29 2.04,3.34 -9.37,10.64 -10.3,-1.1 -7.91,19.09z"/>
   <path class="fil2" d="M1176.52 276.17l19.04 0.3c2.36,8.4 -0.44,3.98 5.26,11.95l7.68 0.56c15.3,-11.02 13.83,-4.14 21.95,-9.19 -1.65,-13.94 5.47,-0.13 -3.17,-9.2l-12.48 -7.89c1.27,-11.05 1.36,-8.38 1.18,-13.88l-7.42 18.05c-6.73,5.33 -5.25,6.8 -15.64,5.97 -7.35,-21.15 -2.12,-4.19 2.65,-10.35l-4.29 -16.86c-14.38,8.26 -9.77,7.13 -24.59,10.39 21.75,22.86 16.09,4.05 16.09,4.04 0.99,10.07 -0.57,10.32 -6.26,16.11z"/>
   <path class="fil2" d="M687.7 57.23c16.79,5.62 0.38,0.46 15.57,17.25 3.76,4.17 2.23,1.74 5.88,7.65 0.73,1.17 2.3,5.88 3,6.9 10.21,14.85 9.07,2.79 9.11,2.76 -8.92,0 -4.5,-1.31 -2.06,12.78l2.64 16.35 15.74 3.76 -7.1 -2.3c10.33,-22.3 1.28,-8.4 0.55,-26.26l2.5 -9.61c0.13,-0.42 0.62,-1.34 0.72,-2.51 0.1,-1.23 0.55,-1.76 0.55,-2.67l-22.74 -14.29c-7.67,-4.36 -15.44,-10.07 -23.03,-14.02l-1.33 4.21z"/>
   <path class="fil3" d="M838.02 275.13c11.04,-0.76 10.44,3.37 25.09,7.68 18.5,-5.73 0.9,-7.6 32.65,-7.35 -4.34,-9.42 3.55,-5.26 -12.71,-12.6 -10.88,-4.91 -27.92,-10.18 -42.16,-8.41 -0.76,7.73 -5.05,-8.45 1.16,3.58l-4.03 17.1z"/>
   <path class="fil3" d="M977.28 153l13 -8.46c0.57,-1.72 1.73,-1.94 2.6,-2.9 2.87,4.17 10.93,14.23 11.66,15.45 4.1,-25.61 -26.76,-26.19 -18.16,-34.01 -8.04,-8.08 -26.76,-7.15 -38.64,-9.81 10.94,38.94 -3.66,8.03 18.35,20.75 5.7,3.3 8.18,11.14 11.19,18.98z"/>
   <path class="fil2" d="M1220.43 203.64c12.26,4.4 29.43,6.04 44.09,2.17 16.04,-4.24 7.27,-2.5 12.2,-7.73 -6.28,-7.19 -13,-11.53 -20.57,-20.18 -38.65,27.56 -26.97,5.64 -35.72,25.74z"/>
   <path class="fil2" d="M1161.34 96.04c14.14,25.08 18.79,13.64 47.03,20.15 -9.93,-16.54 -18.1,-24.04 -34.16,-36.23 -3.9,7.61 0.16,7.15 -7.7,13.01l-5.17 3.07z"/>
   <path class="fil4" d="M675.48 98.53c4.55,11.96 9.01,4.54 13.51,18.21l16.16 -8.12c0.75,-0.48 1.97,-1.48 2.97,-2.19 2.49,19.74 -1.22,20.55 17.08,24.07l-3.36 -9.58 -2.64 -16.35c-14.2,-6.52 -17.51,0.73 -26.59,-6.1 -7.37,-5.54 -19.22,-26.45 -17.13,0.06z"/>
   <path class="fil3" d="M658.75 272.4c-1.18,13.86 1.57,1.41 -5.4,6.89 9.74,12.77 24.77,18.4 40.62,9.05 4.97,-9.06 1.26,-25.12 -1.28,-42.41 -9.25,5.19 -9.74,-20.27 -7.83,16.04 0.23,4.3 5.11,20.06 6.44,24.88 -21.01,-6.2 -18.18,-7.07 -32.55,-14.45z"/>
   <path class="fil4" d="M888.94 372.76c37.12,12.63 52.18,-17.32 16.05,-27.16l-8.35 12.04c-5.01,11.78 2.49,4.25 -7.7,15.12z"/>
   <path class="fil2" d="M930.03 144.92c-7.2,-15.17 -16.2,-18.28 -17.14,-22.91 -0.31,-1.56 -1.19,-1.96 -1.79,-2.94 -4.46,15.26 3.06,3.96 -7.08,14.52 -2.08,2.16 7.26,-9.88 -5.1,3.87 -13.42,14.93 1.34,-11.63 -2.07,5.43 10.44,12.48 1.39,5.43 15.92,9.4l22.11 7.87 -4.85 -15.24z"/>
   <path class="fil3" d="M1011.04 273.04l-0.83 -0.53c3.58,1.5 18.09,-8.4 7.17,10.65l11.56 6.93c10.59,-0.23 15.72,2.34 19.24,-4.17 -2.31,-12.82 -5.1,-4.1 -1.08,-17.78l-13.91 -10.99c-11.49,5.08 -4.29,2.01 -10.87,15.01l-11.28 0.88z"/>
   <path class="fil2" d="M1529.15 236.3c24.56,7.46 26.23,-3.73 26.27,-3.77l4.04 -4.98c0.43,-0.49 1.16,-1.68 1.93,-2.34 10.99,-3.17 14.31,-1.55 12.93,-16.37 -8.69,4.29 9.26,1.34 -7.56,2.08 -3.06,0.13 -11.05,-0.4 -13.97,-0.58l1.74 14.7c-16.59,-5.89 -7.98,-6.68 -24.09,0.41l-1.29 10.85z"/>
   <path class="fil3" d="M816.38 216.23l15.98 2.49c5.59,12.27 3.17,15.77 20.04,13.39 -8.85,-20.94 0.59,-3.82 -18.2,-17.98 -12.58,-9.48 -5.31,-6.96 -18.95,-17.57 -9.42,4.42 -0.01,3.97 -14.09,1.06 5.45,18.18 0.93,24.83 15.22,18.61z"/>
   <path class="fil2" d="M1480.07 211.3l-3.85 -18.2c-4.08,9.48 -1.46,0.53 -7.25,5.57 -1.47,-8.53 3.95,-8.08 -15.8,-20.53l-9.72 -5.16c3.65,28.29 -0.64,22.11 24.13,30.22 -3.03,5.87 -5.8,6 -2.79,12.8l15.28 -4.7z"/>
   <path class="fil3" d="M1484.71 94.03l-2.58 19.1c0.5,0.15 1.46,-0.52 1.55,0.05 1.59,10.05 -0.73,-13.76 3.7,1.86 1.38,4.85 -1.27,11.54 -2.63,17.09 19.62,-10.99 6.79,-12.08 21.93,-2.26 1.67,-12.99 2.95,-4.14 -0.84,-15.06l-4.49 -7.91c-5.32,-12.69 2.46,-5.49 -4.11,-11.27 -15.56,-13.67 -12.35,-1.65 -12.53,-1.6z"/>
   <path class="fil0" d="M575.38 263.12l15.43 -10.23c-7.76,-5.99 -0.26,4.47 -8.75,-9.55 -11.17,-5.78 -14.37,-9.1 -22.52,-5.03l8.56 10.24c0.6,0.77 2.6,3.41 3.56,4.46l-26.37 -13.88c9.26,25.39 7.89,13.7 30.09,23.99z"/>
   <path class="fil0" d="M970.55 78.67l-4.89 6.93c-8.84,-4.16 -5.58,-2.18 -10.87,-9.13l-3.71 5.51 -12.4 13.07 13.87 15.28 11.16 -14.65c5.84,-4.6 4.34,0.55 14.43,-3.91 -3.12,-10.81 1.18,-4.64 -7.59,-13.1z"/>
   <path class="fil4" d="M1454.07 144.77l4.59 -14.25c0.96,15.82 -0.89,9.12 4.94,19.25 3.97,-6.53 5.99,11.1 2.09,-15.25 19.23,5.16 3.62,5.5 15.06,0 -5.82,-13.03 -6.93,-11.54 -15.55,-21.66 -9.8,9.74 6.77,-6.3 -6.02,3.55 -5.87,4.52 -1.97,-4.73 -6.5,5.82 -5.56,12.95 -4.85,5.21 1.39,22.54z"/>
   <path class="fil3" d="M920.83 113.63c10.9,-19.59 10.06,-14.44 18.65,-38.31l-32.71 17.92c2,16.62 3.42,-1.39 2.95,14.78l11.11 5.61z"/>
   <path class="fil4" d="M1133.42 356.63l13.38 0.24c2.46,0.27 7.25,15.87 18.83,-8.7 -4.01,-5.53 2.47,-4.18 -8.96,-7.79l-21 -1.69 -2.25 17.94z"/>
   <path class="fil3" d="M575.38 263.12c3.87,0.55 17.4,3.37 18.38,3.36 3.62,-0.02 5.61,-0.37 8.99,-1.72 6.66,-2.64 6.88,-4.23 9.45,-6 -17.55,-17.24 -4.46,-10.23 -29.84,-21.61l-0.3 6.19c8.49,14.02 0.99,3.56 8.75,9.55l-15.43 10.23z"/>
   <path class="fil2" d="M1275.19 249.9c15.74,18.1 16.37,15.31 31.47,21.32l-7.92 -22.31 -4.33 -13.34 -19.22 14.33z"/>
   <path class="fil5" d="M671.21 75.47c-14.08,6.07 -19.04,9.92 -30.24,18.21 10.15,-2.53 8.04,-4.46 6.26,5.86l22.89 5.98c7.89,-5.22 1.39,5.43 5.36,-6.99 -1.21,-0.75 -7.12,-4.13 -8.05,-4.55l2.8 -14.7c9.94,-8.27 1.04,-2.31 11.02,-6.86l-10.04 3.05z"/>
   <path class="fil3" d="M1580.15 258.43c-9.76,-0.59 -10.59,-4.08 -23.71,-1.16 -1.31,0.29 -3.11,1 -4.28,1.32 -1.12,0.3 -9.1,3.58 -10.43,4.09 3.08,-19.83 -3.59,-8.37 6.81,-19.29 8.44,-8.87 6.62,1.66 7.51,2.27l-10.9 -0.57c-10.91,-6.75 -6.65,6.87 -7.2,21.24l31.44 6.46 10.76 -14.36z"/>
   <path class="fil0" d="M412.88 188.05c-5.62,-9.05 -2.8,-0.63 -3.23,-15.09 0.82,-0.68 2.05,-2.88 2.44,-2.07l5.07 -3.7c0.54,-0.34 2.14,-1.23 2.64,-1.54 0.49,-0.3 1.8,-0.92 2.67,-1.42 -13.52,-6.56 -10.12,-0.66 -11.86,-17.4 -2.07,0.98 -9.06,3.3 -10.67,4.67 0.59,19.01 7.31,29.07 7.32,29.05 0.45,-0.79 1.42,3.44 2,5.21 -28.85,-7.66 -17.65,-5.45 -21.34,-10.22 -0.73,1.72 -3.58,6.9 -4.82,16.3 0.06,-0.15 -5.07,-21.7 18.32,2.56 6.28,-8.96 -2.58,-5.74 11.46,-6.35z"/>
   <path class="fil3" d="M703 164.5l17.83 0.08 10.14 11.79 0.62 -13.59c-6.63,-3.64 -9.66,-6.17 -16.16,-10.01 -13.9,-8.22 -3.26,-4.87 -22.27,-4.24 6.53,17.01 -4.58,4.39 9.84,15.97z"/>
   <path class="fil0" d="M1248.48 294.03l15.07 0.45 23.26 -16.17c-39.56,-3.55 -2.8,-7.79 -39.78,3.2l1.45 12.52z"/>
   <path class="fil3" d="M476.55 241.85c-8.83,-16.55 -2.4,-10.42 -23.44,-11.27 8.55,20.8 -8.25,7.78 14.91,15 -23.56,-9.45 -12.68,2.98 -15.32,5.1 32.04,-0.66 22.61,-5.64 23.85,-8.83z"/>
   <path class="fil3" d="M987.24 313.58l-5.08 19.76c17.27,-8.66 14.17,-2.45 10.74,-28.18 16.21,1.8 4.91,-0.83 18.9,3.8 15.13,-6.9 -2.62,6.72 8.08,-11.17l-30.73 3.58 -1.91 12.21z"/>
   <path class="fil3" d="M944.73 76.46c2.29,10.53 -1.8,1.61 6.35,5.52l3.71 -5.51c5.29,6.95 2.03,4.97 10.87,9.13l4.89 -6.93 -1.03 -19.33c-11.75,5.86 -19.57,7.09 -24.79,17.12z"/>
   <path class="fil4" d="M484.12 260.69c12.85,1.11 10.64,4.32 13.36,-11.76 0.13,-0.75 0.49,-2.04 0.56,-2.82 1.45,-15.18 2.78,-7.51 -3.29,-14.39 -5.46,1.87 -14.62,-3.34 -10.63,28.97z"/>
   <path class="fil0" d="M508.01 234.09c11.3,3.02 13.85,6.74 29.47,7.97 6.82,-5.81 2.06,0.4 4.99,-7.52 -8.2,-5.92 -19.98,-14.94 -30.1,-5.58l-4.36 5.13z"/>
   <path class="fil4" d="M688.89 341.79c21.53,-2.24 13.39,6.35 20.76,-16.87 -19.31,-5.25 -26.04,-5.53 -20.76,16.87z"/>
   <path class="fil3" d="M1157.35 230.86c10.74,1.48 9.5,1.52 20.98,2.01l3.15 -22.69c-5.73,9.39 -5.01,7.78 -14.55,1.44 -4.15,4.32 -2.89,0.58 -6.28,8.04 -3.62,7.95 -0.85,2.07 -3.3,11.2z"/>
   <path class="fil2" d="M1429.01 131.13c-9.76,8.32 -12.24,12.48 -9.4,24.25 1.54,0.55 -4.77,8.96 14.49,0.97l5.03 -4.78c-0.19,-1.09 -0.58,-3.92 -0.89,-3.21l-8.8 -9.21c-0.64,-0.47 -2.21,-0.95 -3.22,-1.6l2.79 -6.42z"/>
   <polygon class="fil3" points="862.28,151.29 887.87,143.07 857.17,130.1 "/>
   <path class="fil0" d="M1285.26 221.54c0.62,-1 1.69,-3.6 1.95,-2.95 0.25,0.63 1.51,-2.19 1.82,-2.93 5.13,-12.05 5.49,-16.72 0.56,-26.87 -11.22,5.59 -8.07,-9.71 -8.09,12.96 0,0.8 3.4,17.23 3.76,19.79z"/>
   <path class="fil4" d="M1476.22 193.1l3.85 18.2c8.03,-3.02 12.06,-5.48 18.97,-9.14l-11.85 -11.44c-8.05,3.64 5.26,2.18 -10.97,2.38z"/>
   <path class="fil3" d="M813.14 367.25c-3.22,-10.31 2.76,-4.92 -6.62,-14.35 -8.63,-8.68 -7.51,-4.64 -14.97,-8.99 7.25,24.72 1.07,14.88 21.59,23.34z"/>
   <path class="fil3" d="M1249.58 331.07c5.53,11.37 1.11,5.96 10.09,11.42 6.99,-10.52 5.01,-8.5 2.85,-22.31 -14.4,10.36 -4.14,-4.09 -12.94,10.89z"/>
   <path class="fil3" d="M588.11 311.24c16.69,6.59 11.85,6.95 20,-8.73 -13.18,-0.77 -18.14,-4.24 -20,8.73z"/>
   <path class="fil0" d="M1023.92 125.83l-15.05 0.39c12,14.76 7.09,17.66 22.09,14.83 -7.65,-11.88 -4.17,-1.89 -7.04,-15.22z"/>
   <path class="fil3" d="M1007.55 368.1c2.4,-5.59 11.19,5.76 1.42,-12.08 -5.81,-10.62 -9.01,-7.86 -11.68,-9.89 2.72,18.23 -2.11,12.16 10.26,21.97z"/>
   <path class="fil5" d="M1010.21 272.51l0.83 0.53 -0.64 -13.88c-26.36,-3.81 -6.31,-1.04 -13.65,3.54 6.16,11.42 -1.77,7.43 13.46,9.81z"/>
   <path class="fil4" d="M758.56 218.01c-4.97,-14.4 -4.38,-14.71 -20.82,-18.07 4.76,9.38 0.44,4.53 8.84,11.76 12.78,11 5.81,4.43 11.98,6.31z"/>
   <path class="fil5" d="M886.11 182.69l-2.47 -12.06 -12.91 1.73c-4.81,1.65 -6.14,0.26 -7.66,0.6 12.57,8.3 8.33,6.32 23.04,9.73z"/>
   <path class="fil5" d="M1208.56 266.87l-12.99 -4.38c-4.77,6.16 -10,-10.8 -2.65,10.35 10.39,0.83 8.91,-0.64 15.64,-5.97z"/>
   <path class="fil5" d="M1441.64 230.04c14.83,-5.53 13.24,-0.57 11.59,-15.23l-11.59 15.23z"/>
  </g>
 </g>
</svg>
