<svg width="29" height="44" viewBox="0 0 29 44" fill="none" xmlns="http://www.w3.org/2000/svg">
<path d="M3.76356 39.1634C2.93691 38.4308 2.86069 37.1668 3.59331 36.3401L20.6884 17.0509C21.4211 16.2243 22.6851 16.1481 23.5117 16.8807L26.4603 19.4938C27.2869 20.2264 27.3631 21.4905 26.6305 22.3171L9.53538 41.6063C8.80276 42.433 7.53872 42.5092 6.71208 41.7766L3.76356 39.1634Z" fill="#FF0003"/>
<path d="M4.30419 1.83137C5.05292 1.01929 6.31821 0.967924 7.13029 1.71665L26.0797 19.1876C26.8918 19.9364 26.9432 21.2017 26.1945 22.0137L23.5239 24.9103C22.7752 25.7224 21.5099 25.7738 20.6978 25.0251L1.74833 7.55406C0.936243 6.80533 0.884879 5.54004 1.6336 4.72796L4.30419 1.83137Z" fill="#FF0003"/>
</svg>
