<svg xmlns="http://www.w3.org/2000/svg" width="20" height="20" fill="none"><g clip-path="url(#a)"><path fill="#fff" d="M19.53 9.825C19.53 4.432 15.156.06 9.764.06 4.372.06 0 4.432 0 9.825c0 4.873 3.57 8.913 8.239 9.645v-6.823h-2.48V9.823h2.48v-2.15c0-2.446 1.459-3.799 3.689-3.799 1.068 0 2.185.192 2.185.192v2.403h-1.231c-1.214 0-1.592.752-1.592 1.525v1.83h2.708l-.434 2.824H11.29v6.823c4.669-.733 8.24-4.773 8.24-9.646Z"/></g><defs><clipPath id="a"><path fill="#fff" d="M0 0h19.529v19.529H0z"/></clipPath></defs></svg>