<svg xmlns="http://www.w3.org/2000/svg" width="20" height="20" fill="none"><g clip-path="url(#a)"><path fill="#fff" d="M10.235 0C7.582 0 7.251.012 6.21.059 5.17.107 4.462.27 3.84.513a4.782 4.782 0 0 0-1.73 1.126 4.765 4.765 0 0 0-1.127 1.73C.742 3.99.577 4.699.53 5.739.48 6.781.471 7.112.471 9.765c0 2.653.012 2.984.058 4.025.049 1.04.213 1.748.454 2.37.245.652.63 1.243 1.126 1.73a4.775 4.775 0 0 0 1.73 1.127c.624.24 1.331.406 2.37.454 1.043.049 1.374.058 4.026.058 2.653 0 2.985-.012 4.026-.058 1.04-.049 1.748-.214 2.37-.454a4.8 4.8 0 0 0 1.73-1.126 4.771 4.771 0 0 0 1.126-1.73c.241-.623.406-1.332.454-2.37.05-1.043.059-1.374.059-4.026 0-2.653-.012-2.985-.059-4.026-.048-1.04-.213-1.748-.454-2.37a4.793 4.793 0 0 0-1.126-1.73 4.758 4.758 0 0 0-1.73-1.126c-.622-.242-1.33-.406-2.37-.454C13.219.009 12.888 0 10.235 0Zm0 1.758c2.606 0 2.918.012 3.947.058.952.044 1.468.202 1.812.337.458.177.781.388 1.125.73.34.341.552.666.729 1.123.133.344.292.86.336 1.813.046 1.03.056 1.339.056 3.946s-.012 2.917-.06 3.946c-.05.953-.208 1.469-.342 1.812-.182.458-.39.782-.731 1.125-.316.323-.7.572-1.123.729-.342.134-.867.293-1.819.336-1.037.047-1.342.057-3.954.057-2.613 0-2.918-.012-3.954-.06-.953-.05-1.478-.209-1.82-.343a3.017 3.017 0 0 1-1.122-.731 2.965 2.965 0 0 1-.732-1.123c-.134-.342-.292-.867-.342-1.819-.037-1.025-.05-1.342-.05-3.942s.013-2.917.05-3.955c.05-.952.208-1.476.342-1.818.17-.464.39-.781.732-1.123.341-.342.66-.561 1.123-.732.341-.134.855-.293 1.807-.342 1.037-.037 1.342-.049 3.954-.049l.036.025Zm0 2.993a5.014 5.014 0 1 0 0 10.028 5.014 5.014 0 1 0 0-10.028Zm0 8.269a3.255 3.255 0 1 1 0-6.51 3.255 3.255 0 0 1 0 6.51Zm6.385-8.467a1.172 1.172 0 0 1-2.344 0 1.172 1.172 0 0 1 2.344 0Z"/></g><defs><clipPath id="a"><path fill="#fff" d="M.47 0H20v19.529H.47z"/></clipPath></defs></svg>