<svg xmlns="http://www.w3.org/2000/svg" width="21" height="20" fill="none"><g clip-path="url(#a)"><path fill="#fff" d="M19.856 5.034a2.454 2.454 0 0 0-1.726-1.738c-1.523-.411-7.63-.411-7.63-.411s-6.107 0-7.63.41a2.455 2.455 0 0 0-1.726 1.739C.735 6.567.735 9.764.735 9.764s0 3.199.41 4.732a2.454 2.454 0 0 0 1.725 1.738c1.522.41 7.63.41 7.63.41s6.107 0 7.63-.41a2.453 2.453 0 0 0 1.726-1.738c.409-1.533.409-4.731.409-4.731s0-3.198-.41-4.731ZM8.503 12.669V6.861l5.103 2.903-5.104 2.903Z"/></g><defs><clipPath id="a"><path fill="#fff" d="M.735 0h19.53v19.529H.734z"/></clipPath></defs></svg>